SourceSans_ExtraLight.ufo
<glyph name="dollar" format="1">
	<unicode hex="0024"/>
	<advance width="472"/>
	<outline>
		<contour>
			<point x="244" y="-12" type="curve" smooth="yes"/>
			<point x="336" y="-12"/>
			<point x="412" y="52"/>
			<point x="412" y="158" type="curve" smooth="yes"/>
			<point x="412" y="352"/>
			<point x="120" y="342"/>
			<point x="120" y="502" type="curve" smooth="yes"/>
			<point x="120" y="570"/>
			<point x="170" y="624"/>
			<point x="242" y="624" type="curve" smooth="yes"/>
			<point x="306" y="624"/>
			<point x="344" y="602"/>
			<point x="374" y="564" type="curve"/>
			<point x="394" y="580" type="line"/>
			<point x="362" y="622"/>
			<point x="316" y="652"/>
			<point x="244" y="652" type="curve" smooth="yes"/>
			<point x="156" y="652"/>
			<point x="88" y="588"/>
			<point x="88" y="500" type="curve" smooth="yes"/>
			<point x="88" y="320"/>
			<point x="380" y="330"/>
			<point x="380" y="156" type="curve" smooth="yes"/>
			<point x="380" y="74"/>
			<point x="332" y="16"/>
			<point x="244" y="16" type="curve" smooth="yes"/>
			<point x="172" y="16"/>
			<point x="116" y="48"/>
			<point x="80" y="86" type="curve"/>
			<point x="62" y="68" type="line"/>
			<point x="98" y="22"/>
			<point x="166" y="-12"/>
		</contour>
		<contour>
			<point x="228" y="-110" type="line"/>
			<point x="258" y="-110" type="line"/>
			<point x="258" y="-8" type="line"/>
			<point x="228" y="-8" type="line"/>
		</contour>
		<contour>
			<point x="228" y="634" type="line"/>
			<point x="258" y="634" type="line"/>
			<point x="258" y="750" type="line"/>
			<point x="228" y="750" type="line"/>
		</contour>
	</outline>
</glyph>
<glyph name="plus" format="2">
	<unicode hex="002B"/>
	<advance width="472"/>
	<outline>
		<contour>
			<point x="220" y="112" type="line"/>
			<point x="252" y="112" type="line"/>
			<point x="252" y="316" type="line"/>
			<point x="438" y="316" type="line"/>
			<point x="438" y="344" type="line"/>
			<point x="252" y="344" type="line"/>
			<point x="252" y="548" type="line"/>
			<point x="220" y="548" type="line"/>
			<point x="220" y="344" type="line"/>
			<point x="34" y="344" type="line"/>
			<point x="34" y="316" type="line"/>
			<point x="220" y="316" type="line"/>
		</contour>
	</outline>
</glyph>
<glyph name="slash" format="1">
  <advance width="360"/>
  <unicode hex="002F"/>
  <outline>
    <contour>
      <point x="8" y="-160" type="line"/>
      <point x="38" y="-160" type="line"/>
      <point x="358" y="710" type="line"/>
      <point x="328" y="710" type="line"/>
    </contour>
  </outline>
</glyph>
<glyph name="one" format="2">
	<unicode hex="0031"/>
	<advance width="472"/>
	<outline>
		<contour>
			<point x="86" y="0" type="line"/>
			<point x="410" y="0" type="line"/>
			<point x="410" y="28" type="line"/>
			<point x="268" y="28" type="line"/>
			<point x="268" y="640" type="line"/>
			<point x="242" y="640" type="line"/>
			<point x="214" y="624"/>
			<point x="174" y="610"/>
			<point x="124" y="602" type="curve"/>
			<point x="124" y="580" type="line"/>
			<point x="238" y="580" type="line"/>
			<point x="238" y="28" type="line"/>
			<point x="86" y="28" type="line"/>
		</contour>
	</outline>
</glyph>
<glyph name="two" format="1">
	<unicode hex="0032"/>
	<advance width="472"/>
	<outline>
		<contour>
			<point x="42" y="0" type="line"/>
			<point x="426" y="0" type="line"/>
			<point x="426" y="28" type="line"/>
			<point x="194" y="28" type="line" smooth="yes"/>
			<point x="158" y="28"/>
			<point x="122" y="26"/>
			<point x="86" y="24" type="curve"/>
			<point x="276" y="222"/>
			<point x="394" y="346"/>
			<point x="394" y="476" type="curve" smooth="yes"/>
			<point x="394" y="582"/>
			<point x="330" y="652"/>
			<point x="218" y="652" type="curve" smooth="yes"/>
			<point x="142" y="652"/>
			<point x="86" y="610"/>
			<point x="40" y="558" type="curve"/>
			<point x="62" y="538" type="line"/>
			<point x="102" y="588"/>
			<point x="156" y="624"/>
			<point x="216" y="624" type="curve" smooth="yes"/>
			<point x="318" y="624"/>
			<point x="362" y="558"/>
			<point x="362" y="476" type="curve" smooth="yes"/>
			<point x="362" y="362"/>
			<point x="258" y="240"/>
			<point x="42" y="18" type="curve"/>
		</contour>
	</outline>
</glyph>
<glyph name="three" format="1">
  <advance width="472"/>
  <unicode hex="0033"/>
  <outline>
    <contour>
      <point x="230" y="-12" type="curve" smooth="yes"/>
      <point x="338" y="-12"/>
      <point x="420" y="58"/>
      <point x="420" y="168" type="curve" smooth="yes"/>
      <point x="420" y="260"/>
      <point x="352" y="320"/>
      <point x="272" y="336" type="curve"/>
      <point x="272" y="340" type="line"/>
      <point x="342" y="363"/>
      <point x="396" y="414"/>
      <point x="396" y="500" type="curve" smooth="yes"/>
      <point x="396" y="596"/>
      <point x="322" y="652"/>
      <point x="228" y="652" type="curve" smooth="yes"/>
      <point x="154" y="652"/>
      <point x="100" y="616"/>
      <point x="58" y="574" type="curve"/>
      <point x="78" y="552" type="line"/>
      <point x="114" y="592"/>
      <point x="168" y="624"/>
      <point x="228" y="624" type="curve" smooth="yes"/>
      <point x="310" y="624"/>
      <point x="364" y="574"/>
      <point x="364" y="498" type="curve" smooth="yes"/>
      <point x="364" y="418"/>
      <point x="310" y="352"/>
      <point x="158" y="352" type="curve"/>
      <point x="158" y="322" type="line"/>
      <point x="320" y="322"/>
      <point x="388" y="258"/>
      <point x="388" y="166" type="curve" smooth="yes"/>
      <point x="388" y="76"/>
      <point x="322" y="16"/>
      <point x="232" y="16" type="curve" smooth="yes"/>
      <point x="140" y="16"/>
      <point x="88" y="58"/>
      <point x="50" y="100" type="curve"/>
      <point x="30" y="78" type="line"/>
      <point x="70" y="36"/>
      <point x="128" y="-12"/>
    </contour>
  </outline>
</glyph>
<glyph name="six" format="2">
	<unicode hex="0036"/>
	<advance width="472"/>
	<outline>
		<contour>
			<point x="258" y="-12" type="curve" smooth="yes"/>
			<point x="350" y="-12"/>
			<point x="428" y="72"/>
			<point x="428" y="186" type="curve" smooth="yes"/>
			<point x="428" y="314"/>
			<point x="364" y="384"/>
			<point x="252" y="384" type="curve" smooth="yes"/>
			<point x="188" y="384"/>
			<point x="128" y="346"/>
			<point x="82" y="288" type="curve"/>
			<point x="82" y="248" type="line"/>
			<point x="138" y="326"/>
			<point x="202" y="356"/>
			<point x="250" y="356" type="curve" smooth="yes"/>
			<point x="354" y="356"/>
			<point x="396" y="282"/>
			<point x="396" y="186" type="curve" smooth="yes"/>
			<point x="396" y="92"/>
			<point x="338" y="16"/>
			<point x="260" y="16" type="curve" smooth="yes"/>
			<point x="138" y="16"/>
			<point x="86" y="132"/>
			<point x="86" y="288" type="curve" smooth="yes"/>
			<point x="86" y="538"/>
			<point x="178" y="624"/>
			<point x="284" y="624" type="curve" smooth="yes"/>
			<point x="326" y="624"/>
			<point x="365" y="606"/>
			<point x="394" y="570" type="curve"/>
			<point x="414" y="592" type="line"/>
			<point x="382" y="628"/>
			<point x="342" y="652"/>
			<point x="286" y="652" type="curve" smooth="yes"/>
			<point x="164" y="652"/>
			<point x="54" y="560"/>
			<point x="54" y="288" type="curve" smooth="yes"/>
			<point x="54" y="98"/>
			<point x="130" y="-12"/>
		</contour>
	</outline>
</glyph>
<glyph name="seven" format="1">
  <advance width="472"/>
  <unicode hex="0037"/>
  <outline>
    <contour>
      <point x="192" y="0" type="curve"/>
      <point x="226" y="0" type="line"/>
      <point x="236" y="250"/>
      <point x="276" y="416"/>
      <point x="430" y="622" type="curve"/>
      <point x="430" y="640" type="line"/>
      <point x="44" y="640" type="line"/>
      <point x="44" y="612" type="line"/>
      <point x="388" y="612" type="line"/>
      <point x="258" y="430"/>
      <point x="202" y="264"/>
    </contour>
  </outline>
</glyph>
<glyph name="eight" format="1">
  <advance width="472"/>
  <unicode hex="0038"/>
  <outline>
    <contour>
      <point x="240" y="-12" type="curve" smooth="yes"/>
      <point x="354" y="-12"/>
      <point x="430" y="62"/>
      <point x="430" y="154" type="curve" smooth="yes"/>
      <point x="430" y="240"/>
      <point x="372" y="282"/>
      <point x="318" y="316" type="curve"/>
      <point x="318" y="320" type="line"/>
      <point x="354" y="350"/>
      <point x="410" y="414"/>
      <point x="410" y="486" type="curve" smooth="yes"/>
      <point x="410" y="580"/>
      <point x="348" y="652"/>
      <point x="240" y="652" type="curve" smooth="yes"/>
      <point x="150" y="652"/>
      <point x="78" y="588"/>
      <point x="78" y="498" type="curve" smooth="yes"/>
      <point x="78" y="430"/>
      <point x="124" y="382"/>
      <point x="170" y="352" type="curve"/>
      <point x="170" y="348" type="line"/>
      <point x="110" y="316"/>
      <point x="40" y="252"/>
      <point x="40" y="164" type="curve" smooth="yes"/>
      <point x="40" y="64"/>
      <point x="124" y="-12"/>
    </contour>
    <contour>
      <point x="288" y="330" type="curve"/>
      <point x="202" y="364"/>
      <point x="110" y="402"/>
      <point x="110" y="498" type="curve" smooth="yes"/>
      <point x="110" y="570"/>
      <point x="164" y="624"/>
      <point x="240" y="624" type="curve" smooth="yes"/>
      <point x="328" y="624"/>
      <point x="378" y="560"/>
      <point x="378" y="486" type="curve" smooth="yes"/>
      <point x="378" y="428"/>
      <point x="346" y="376"/>
    </contour>
    <contour>
      <point x="240" y="16" type="curve" smooth="yes"/>
      <point x="142" y="16"/>
      <point x="72" y="82"/>
      <point x="72" y="164" type="curve" smooth="yes"/>
      <point x="72" y="238"/>
      <point x="124" y="294"/>
      <point x="194" y="334" type="curve"/>
      <point x="296" y="294"/>
      <point x="398" y="258"/>
      <point x="398" y="154" type="curve" smooth="yes"/>
      <point x="398" y="78"/>
      <point x="336" y="16"/>
    </contour>
  </outline>
</glyph>
<glyph name="less" format="1">
  <advance width="472"/>
  <unicode hex="003C"/>
  <outline>
    <contour>
      <point x="438" y="152" type="line"/>
      <point x="438" y="184" type="line"/>
      <point x="198" y="278" type="line"/>
      <point x="66" y="330" type="line"/>
      <point x="66" y="334" type="line"/>
      <point x="198" y="386" type="line"/>
      <point x="438" y="480" type="line"/>
      <point x="438" y="512" type="line"/>
      <point x="34" y="350" type="line"/>
      <point x="34" y="314" type="line"/>
    </contour>
  </outline>
</glyph>
<glyph name="H" format="2">
	<unicode hex="0048"/>
	<advance width="634"/>
	<outline>
		<contour>
			<point x="100" y="0" type="line"/>
			<point x="132" y="0" type="line"/>
			<point x="132" y="338" type="line"/>
			<point x="502" y="338" type="line"/>
			<point x="502" y="0" type="line"/>
			<point x="534" y="0" type="line"/>
			<point x="534" y="660" type="line"/>
			<point x="502" y="660" type="line"/>
			<point x="502" y="366" type="line"/>
			<point x="132" y="366" type="line"/>
			<point x="132" y="660" type="line"/>
			<point x="100" y="660" type="line"/>
		</contour>
	</outline>
	<anchor name="aboveUC" x="316" y="682"/>
	<anchor name="belowLC" x="316" y="-22"/>
</glyph>
<glyph name="K" format="2">
	<unicode hex="004B"/>
	<advance width="550"/>
	<outline>
		<contour>
			<point x="100" y="0" type="line"/>
			<point x="132" y="0" type="line"/>
			<point x="132" y="234" type="line"/>
			<point x="274" y="394" type="line"/>
			<point x="500" y="0" type="line"/>
			<point x="538" y="0" type="line"/>
			<point x="298" y="418" type="line"/>
			<point x="510" y="660" type="line"/>
			<point x="470" y="660" type="line"/>
			<point x="134" y="280" type="line"/>
			<point x="132" y="280" type="line"/>
			<point x="132" y="660" type="line"/>
			<point x="100" y="660" type="line"/>
		</contour>
	</outline>
	<anchor name="aboverightUC" x="500" y="682"/>
	<anchor name="aboveUC" x="304" y="682"/>
	<anchor name="belowLC" x="324" y="-22"/>
</glyph>
<glyph name="L" format="2">
	<unicode hex="004C"/>
	<advance width="460"/>
	<outline>
		<contour>
			<point x="100" y="0" type="line"/>
			<point x="442" y="0" type="line"/>
			<point x="442" y="28" type="line"/>
			<point x="132" y="28" type="line"/>
			<point x="132" y="660" type="line"/>
			<point x="100" y="660" type="line"/>
		</contour>
	</outline>
	<anchor name="aboveUC" x="120" y="682"/>
	<anchor name="belowLC" x="280" y="-22"/>
	<anchor name="center" x="120" y="360"/>
</glyph>
<glyph name="Q" format="2">
	<unicode hex="0051"/>
	<advance width="648"/>
	<outline>
		<contour>
			<point x="324" y="-12" type="curve" smooth="yes"/>
			<point x="480" y="-12"/>
			<point x="592" y="124"/>
			<point x="592" y="332" type="curve" smooth="yes"/>
			<point x="592" y="540"/>
			<point x="480" y="672"/>
			<point x="324" y="672" type="curve" smooth="yes"/>
			<point x="168" y="672"/>
			<point x="56" y="540"/>
			<point x="56" y="332" type="curve" smooth="yes"/>
			<point x="56" y="124"/>
			<point x="168" y="-12"/>
		</contour>
		<contour>
			<point x="324" y="16" type="curve" smooth="yes"/>
			<point x="184" y="16"/>
			<point x="90" y="142"/>
			<point x="90" y="332" type="curve" smooth="yes"/>
			<point x="90" y="522"/>
			<point x="184" y="642"/>
			<point x="324" y="642" type="curve" smooth="yes"/>
			<point x="464" y="642"/>
			<point x="558" y="522"/>
			<point x="558" y="332" type="curve" smooth="yes"/>
			<point x="558" y="142"/>
			<point x="464" y="16"/>
		</contour>
		<contour>
			<point x="514" y="-152" type="curve" smooth="yes"/>
			<point x="544" y="-152"/>
			<point x="574" y="-146"/>
			<point x="590" y="-140" type="curve"/>
			<point x="582" y="-112" type="line"/>
			<point x="566" y="-116"/>
			<point x="546" y="-120"/>
			<point x="516" y="-120" type="curve" smooth="yes"/>
			<point x="426" y="-120"/>
			<point x="364" y="-76"/>
			<point x="336" y="0" type="curve"/>
			<point x="300" y="0" type="line"/>
			<point x="328" y="-86"/>
			<point x="402" y="-152"/>
		</contour>
	</outline>
	<anchor name="aboveUC" x="324" y="682"/>
	<anchor name="belowLC" x="324" y="-142"/>
</glyph>
<glyph name="R" format="2">
	<unicode hex="0052"/>
	<advance width="534"/>
	<outline>
		<contour>
			<point x="100" y="0" type="line"/>
			<point x="132" y="0" type="line"/>
			<point x="132" y="312" type="line"/>
			<point x="282" y="312" type="line" smooth="yes"/>
			<point x="412" y="312"/>
			<point x="494" y="374"/>
			<point x="494" y="490" type="curve" smooth="yes"/>
			<point x="494" y="612"/>
			<point x="412" y="660"/>
			<point x="282" y="660" type="curve" smooth="yes"/>
			<point x="100" y="660" type="line"/>
		</contour>
		<contour>
			<point x="132" y="340" type="line"/>
			<point x="132" y="632" type="line"/>
			<point x="270" y="632" type="line" smooth="yes"/>
			<point x="392" y="632"/>
			<point x="460" y="594"/>
			<point x="460" y="490" type="curve" smooth="yes"/>
			<point x="460" y="388"/>
			<point x="392" y="340"/>
			<point x="270" y="340" type="curve" smooth="yes"/>
		</contour>
		<contour>
			<point x="466" y="0" type="line"/>
			<point x="504" y="0" type="line"/>
			<point x="310" y="324" type="line"/>
			<point x="274" y="322" type="line"/>
		</contour>
	</outline>
	<anchor name="aboveUC" x="282" y="682"/>
	<anchor name="belowLC" x="296" y="-22"/>
</glyph>
<glyph name="T" format="2">
	<unicode hex="0054"/>
	<advance width="520"/>
	<outline>
		<contour>
			<point x="244" y="0" type="line"/>
			<point x="276" y="0" type="line"/>
			<point x="276" y="632" type="line"/>
			<point x="490" y="632" type="line"/>
			<point x="490" y="660" type="line"/>
			<point x="30" y="660" type="line"/>
			<point x="30" y="632" type="line"/>
			<point x="244" y="632" type="line"/>
		</contour>
	</outline>
	<anchor name="aboverightUC" x="460" y="682"/>
	<anchor name="aboveUC" x="260" y="682"/>
	<anchor name="baseLC" x="260" y="0"/>
	<anchor name="belowLC" x="260" y="-22"/>
</glyph>
<glyph name="V" format="1">
	<unicode hex="0056"/>
	<advance width="482"/>
	<outline>
		<contour>
			<point x="222" y="0" type="line"/>
			<point x="254" y="0" type="line"/>
			<point x="476" y="660" type="line"/>
			<point x="444" y="660" type="line"/>
			<point x="312" y="264" type="line" smooth="yes"/>
			<point x="285" y="182"/>
			<point x="268" y="122"/>
			<point x="240" y="41" type="curve"/>
			<point x="236" y="41" type="line"/>
			<point x="208" y="122"/>
			<point x="190" y="182"/>
			<point x="164" y="264" type="curve" smooth="yes"/>
			<point x="40" y="660" type="line"/>
			<point x="6" y="660" type="line"/>
		</contour>
		<contour>
			<point name="aboveUC" x="240" y="682" type="move"/>
		</contour>
		<contour>
			<point name="belowLC" x="244" y="-22" type="move"/>
		</contour>
	</outline>
</glyph>
<glyph name="W" format="2">
	<unicode hex="0057"/>
	<advance width="764"/>
	<outline>
		<contour>
			<point x="182" y="0" type="line"/>
			<point x="214" y="0" type="line"/>
			<point x="342" y="474" type="line"/>
			<point x="354" y="526"/>
			<point x="368" y="570"/>
			<point x="380" y="622" type="curve"/>
			<point x="384" y="622" type="line"/>
			<point x="396" y="570"/>
			<point x="408" y="526"/>
			<point x="420" y="474" type="curve"/>
			<point x="546" y="0" type="line"/>
			<point x="578" y="0" type="line"/>
			<point x="732" y="660" type="line"/>
			<point x="700" y="660" type="line"/>
			<point x="610" y="260" type="line"/>
			<point x="594" y="188"/>
			<point x="580" y="116"/>
			<point x="564" y="44" type="curve"/>
			<point x="560" y="44" type="line"/>
			<point x="542" y="116"/>
			<point x="524" y="188"/>
			<point x="506" y="260" type="curve"/>
			<point x="400" y="660" type="line"/>
			<point x="364" y="660" type="line"/>
			<point x="254" y="260" type="line"/>
			<point x="236" y="188"/>
			<point x="218" y="116"/>
			<point x="202" y="44" type="curve"/>
			<point x="198" y="44" type="line"/>
			<point x="182" y="116"/>
			<point x="166" y="188"/>
			<point x="150" y="260" type="curve"/>
			<point x="64" y="660" type="line"/>
			<point x="30" y="660" type="line"/>
		</contour>
	</outline>
	<anchor name="aboverightUC" x="710" y="682"/>
	<anchor name="aboveUC" x="382" y="682"/>
	<anchor name="belowLC" x="386" y="-22"/>
</glyph>
<glyph name="bracketleft" format="1">
  <advance width="270"/>
  <unicode hex="005B"/>
  <outline>
    <contour>
      <point x="100" y="-152" type="line"/>
      <point x="252" y="-152" type="line"/>
      <point x="252" y="-130" type="line"/>
      <point x="124" y="-130" type="line"/>
      <point x="124" y="686" type="line"/>
      <point x="252" y="686" type="line"/>
      <point x="252" y="708" type="line"/>
      <point x="100" y="708" type="line"/>
    </contour>
  </outline>
</glyph>
<glyph name="underscore" format="2">
	<unicode hex="005F"/>
	<advance width="500"/>
	<outline>
		<contour>
			<point x="12" y="-114" type="line"/>
			<point x="488" y="-114" type="line"/>
			<point x="488" y="-82" type="line"/>
			<point x="12" y="-82" type="line"/>
		</contour>
	</outline>
</glyph>
<glyph name="e" format="2">
	<unicode hex="0065"/>
	<advance width="478"/>
	<outline>
		<contour>
			<point x="272" y="-12" type="curve" smooth="yes"/>
			<point x="344" y="-12"/>
			<point x="384" y="10"/>
			<point x="420" y="34" type="curve"/>
			<point x="406" y="56" type="line"/>
			<point x="372" y="32"/>
			<point x="328" y="16"/>
			<point x="274" y="16" type="curve" smooth="yes"/>
			<point x="167" y="16"/>
			<point x="86" y="104"/>
			<point x="86" y="240" type="curve" smooth="yes"/>
			<point x="86" y="388"/>
			<point x="176" y="462"/>
			<point x="260" y="462" type="curve" smooth="yes"/>
			<point x="350" y="462"/>
			<point x="410" y="398"/>
			<point x="410" y="266" type="curve"/>
			<point x="70" y="266" type="line"/>
			<point x="70" y="238" type="line"/>
			<point x="438" y="238" type="line"/>
			<point x="440" y="250"/>
			<point x="440" y="260"/>
			<point x="440" y="270" type="curve" smooth="yes"/>
			<point x="440" y="412"/>
			<point x="370" y="490"/>
			<point x="260" y="490" type="curve" smooth="yes"/>
			<point x="154" y="490"/>
			<point x="54" y="394"/>
			<point x="54" y="238" type="curve" smooth="yes"/>
			<point x="54" y="82"/>
			<point x="152" y="-12"/>
		</contour>
	</outline>
	<anchor name="aboveLC" x="260" y="502"/>
	<anchor name="baseLC" x="260" y="0"/>
	<anchor name="belowLC" x="260" y="-22"/>
	<anchor name="ogonekLC" x="340" y="0"/>
</glyph>
<glyph name="k" format="2">
	<unicode hex="006B"/>
	<advance width="452"/>
	<outline>
		<contour>
			<point x="96" y="0" type="line"/>
			<point x="126" y="0" type="line"/>
			<point x="126" y="132" type="line"/>
			<point x="240" y="266" type="line"/>
			<point x="406" y="0" type="line"/>
			<point x="440" y="0" type="line"/>
			<point x="258" y="290" type="line"/>
			<point x="412" y="478" type="line"/>
			<point x="376" y="478" type="line"/>
			<point x="128" y="174" type="line"/>
			<point x="126" y="174" type="line"/>
			<point x="126" y="722" type="line"/>
			<point x="96" y="722" type="line"/>
		</contour>
	</outline>
	<anchor name="aboverightLC" x="390" y="502"/>
	<anchor name="aboveUC" x="270" y="732"/>
	<anchor name="belowLC" x="260" y="-22"/>
</glyph>
<glyph name="l" format="2">
	<unicode hex="006C"/>
	<advance width="230"/>
	<outline>
		<contour>
			<point x="144" y="-12" type="curve" smooth="yes"/>
			<point x="154" y="-12"/>
			<point x="162" y="-10"/>
			<point x="170" y="-6" type="curve"/>
			<point x="164" y="18" type="line"/>
			<point x="156" y="16"/>
			<point x="152" y="16"/>
			<point x="148" y="16" type="curve" smooth="yes"/>
			<point x="134" y="16"/>
			<point x="126" y="24"/>
			<point x="126" y="46" type="curve" smooth="yes"/>
			<point x="126" y="722" type="line"/>
			<point x="96" y="722" type="line"/>
			<point x="96" y="52" type="line" smooth="yes"/>
			<point x="96" y="6"/>
			<point x="114" y="-12"/>
		</contour>
	</outline>
	<anchor name="aboveUC" x="110" y="732"/>
	<anchor name="belowLC" x="130" y="-22"/>
</glyph>
<glyph name="p" format="2">
	<unicode hex="0070"/>
	<advance width="540"/>
	<outline>
		<contour>
			<point x="96" y="-222" type="line"/>
			<point x="126" y="-222" type="line"/>
			<point x="126" y="-42" type="line"/>
			<point x="126" y="48" type="line"/>
			<point x="178" y="10"/>
			<point x="228" y="-12"/>
			<point x="274" y="-12" type="curve" smooth="yes"/>
			<point x="388" y="-12"/>
			<point x="486" y="84"/>
			<point x="486" y="246" type="curve" smooth="yes"/>
			<point x="486" y="394"/>
			<point x="424" y="490"/>
			<point x="294" y="490" type="curve" smooth="yes"/>
			<point x="234" y="490"/>
			<point x="176" y="454"/>
			<point x="128" y="416" type="curve"/>
			<point x="126" y="416" type="line"/>
			<point x="122" y="478" type="line"/>
			<point x="96" y="478" type="line"/>
		</contour>
		<contour>
			<point x="276" y="16" type="curve" smooth="yes"/>
			<point x="238" y="16"/>
			<point x="184" y="34"/>
			<point x="126" y="82" type="curve"/>
			<point x="126" y="378" type="line"/>
			<point x="188" y="432"/>
			<point x="242" y="462"/>
			<point x="292" y="462" type="curve" smooth="yes"/>
			<point x="410" y="462"/>
			<point x="454" y="368"/>
			<point x="454" y="246" type="curve" smooth="yes"/>
			<point x="454" y="112"/>
			<point x="380" y="16"/>
		</contour>
	</outline>
	<anchor name="aboveLC" x="280" y="502"/>
	<anchor name="aboverightLC" x="450" y="502"/>
	<anchor name="belowLC" x="120" y="-222"/>
	<anchor name="center" x="130" y="-140"/>
</glyph>
<glyph name="q" format="2">
	<unicode hex="0071"/>
	<advance width="540"/>
	<outline>
		<contour>
			<point x="414" y="-222" type="line"/>
			<point x="444" y="-222" type="line"/>
			<point x="444" y="478" type="line"/>
			<point x="418" y="478" type="line"/>
			<point x="414" y="434" type="line"/>
			<point x="412" y="434" type="line"/>
			<point x="366" y="468"/>
			<point x="326" y="490"/>
			<point x="268" y="490" type="curve" smooth="yes"/>
			<point x="152" y="490"/>
			<point x="54" y="392"/>
			<point x="54" y="238" type="curve" smooth="yes"/>
			<point x="54" y="76"/>
			<point x="132" y="-12"/>
			<point x="252" y="-12" type="curve" smooth="yes"/>
			<point x="318" y="-12"/>
			<point x="372" y="24"/>
			<point x="416" y="66" type="curve"/>
			<point x="414" y="-32" type="line"/>
		</contour>
		<contour>
			<point x="254" y="16" type="curve" smooth="yes"/>
			<point x="146" y="16"/>
			<point x="86" y="106"/>
			<point x="86" y="238" type="curve" smooth="yes"/>
			<point x="86" y="362"/>
			<point x="164" y="462"/>
			<point x="266" y="462" type="curve" smooth="yes"/>
			<point x="316" y="462"/>
			<point x="360" y="444"/>
			<point x="414" y="396" type="curve"/>
			<point x="414" y="100" type="line"/>
			<point x="360" y="46"/>
			<point x="310" y="16"/>
		</contour>
	</outline>
	<anchor name="aboveLC" x="266" y="502"/>
	<anchor name="belowLC" x="420" y="-222"/>
</glyph>
<glyph name="r" format="2">
	<unicode hex="0072"/>
	<advance width="306"/>
	<outline>
		<contour>
			<point x="96" y="0" type="line"/>
			<point x="126" y="0" type="line"/>
			<point x="126" y="332" type="line"/>
			<point x="164" y="426"/>
			<point x="216" y="460"/>
			<point x="260" y="460" type="curve" smooth="yes"/>
			<point x="278" y="460"/>
			<point x="288" y="458"/>
			<point x="300" y="454" type="curve"/>
			<point x="310" y="480" type="line"/>
			<point x="294" y="488"/>
			<point x="280" y="490"/>
			<point x="264" y="490" type="curve" smooth="yes"/>
			<point x="204" y="490"/>
			<point x="158" y="446"/>
			<point x="128" y="388" type="curve"/>
			<point x="126" y="388" type="line"/>
			<point x="122" y="478" type="line"/>
			<point x="96" y="478" type="line"/>
		</contour>
	</outline>
	<anchor name="aboveLC" x="200" y="502"/>
	<anchor name="belowLC" x="110" y="-22"/>
	<anchor name="center" x="130" y="220"/>
	<guideline x="314" y="220" angle="0" identifier="rnqF06099h"/>
</glyph>
<glyph name="t" format="2">
	<unicode hex="0074"/>
	<advance width="302"/>
	<outline>
		<contour>
			<point x="218" y="-12" type="curve" smooth="yes"/>
			<point x="240" y="-12"/>
			<point x="268" y="-4"/>
			<point x="294" y="10" type="curve"/>
			<point x="282" y="32" type="line"/>
			<point x="258" y="20"/>
			<point x="238" y="16"/>
			<point x="220" y="16" type="curve" smooth="yes"/>
			<point x="150" y="16"/>
			<point x="136" y="60"/>
			<point x="136" y="122" type="curve" smooth="yes"/>
			<point x="136" y="450" type="line"/>
			<point x="278" y="450" type="line"/>
			<point x="278" y="478" type="line"/>
			<point x="136" y="478" type="line"/>
			<point x="136" y="638" type="line"/>
			<point x="110" y="638" type="line"/>
			<point x="106" y="478" type="line"/>
			<point x="30" y="474" type="line"/>
			<point x="30" y="450" type="line"/>
			<point x="106" y="450" type="line"/>
			<point x="106" y="126" type="line" smooth="yes"/>
			<point x="106" y="44"/>
			<point x="130" y="-12"/>
		</contour>
	</outline>
	<anchor name="aboveLC" x="130" y="632"/>
	<anchor name="baseLC" x="200" y="0"/>
	<anchor name="belowLC" x="200" y="-22"/>
	<anchor name="aboverightLC" x="260" y="502"/>
</glyph>
<glyph name="v" format="2">
	<unicode hex="0076"/>
	<advance width="422"/>
	<outline>
		<contour>
			<point x="194" y="0" type="line"/>
			<point x="230" y="0" type="line"/>
			<point x="410" y="478" type="line"/>
			<point x="378" y="478" type="line"/>
			<point x="264" y="168" type="line" smooth="yes"/>
			<point x="248" y="122"/>
			<point x="230" y="74"/>
			<point x="214" y="32" type="curve"/>
			<point x="210" y="32" type="line"/>
			<point x="194" y="74"/>
			<point x="176" y="122"/>
			<point x="160" y="168" type="curve" smooth="yes"/>
			<point x="46" y="478" type="line"/>
			<point x="12" y="478" type="line"/>
		</contour>
	</outline>
	<anchor name="aboveLC" x="212" y="502"/>
	<anchor name="belowLC" x="212" y="-22"/>
</glyph>
<glyph name="asciitilde" format="1">
  <advance width="472"/>
  <unicode hex="007E"/>
  <outline>
    <contour>
      <point x="326" y="270" type="curve" smooth="yes"/>
      <point x="364" y="270"/>
      <point x="404" y="296"/>
      <point x="430" y="348" type="curve"/>
      <point x="408" y="362" type="line"/>
      <point x="384" y="314"/>
      <point x="358" y="298"/>
      <point x="328" y="298" type="curve" smooth="yes"/>
      <point x="270" y="298"/>
      <point x="222" y="390"/>
      <point x="146" y="390" type="curve" smooth="yes"/>
      <point x="108" y="390"/>
      <point x="68" y="364"/>
      <point x="42" y="310" type="curve"/>
      <point x="64" y="298" type="line"/>
      <point x="88" y="346"/>
      <point x="114" y="362"/>
      <point x="144" y="362" type="curve" smooth="yes"/>
      <point x="202" y="362"/>
      <point x="250" y="270"/>
    </contour>
  </outline>
</glyph>
<glyph name="cent" format="1">
  <advance width="472"/>
  <unicode hex="00A2"/>
  <outline>
    <contour>
      <point x="276" y="84" type="curve" smooth="yes"/>
      <point x="338" y="84"/>
      <point x="388" y="112"/>
      <point x="428" y="148" type="curve"/>
      <point x="410" y="168" type="line"/>
      <point x="376" y="137"/>
      <point x="330" y="112"/>
      <point x="276" y="112" type="curve" smooth="yes"/>
      <point x="166" y="112"/>
      <point x="94" y="192"/>
      <point x="94" y="312" type="curve" smooth="yes"/>
      <point x="94" y="432"/>
      <point x="174" y="512"/>
      <point x="276" y="512" type="curve" smooth="yes"/>
      <point x="326" y="512"/>
      <point x="366" y="490"/>
      <point x="398" y="460" type="curve"/>
      <point x="416" y="480" type="line"/>
      <point x="384" y="510"/>
      <point x="342" y="540"/>
      <point x="276" y="540" type="curve" smooth="yes"/>
      <point x="162" y="540"/>
      <point x="62" y="460"/>
      <point x="62" y="312" type="curve" smooth="yes"/>
      <point x="62" y="166"/>
      <point x="154" y="84"/>
    </contour>
    <contour>
      <point x="252" y="-26" type="line"/>
      <point x="280" y="-26" type="line"/>
      <point x="280" y="652" type="line"/>
      <point x="252" y="652" type="line"/>
    </contour>
  </outline>
</glyph>
<glyph name="sterling" format="1">
	<unicode hex="00A3"/>
	<advance width="472"/>
	<outline>
		<contour>
			<point x="58" y="0" type="line"/>
			<point x="418" y="0" type="line"/>
			<point x="418" y="28" type="line"/>
			<point x="118" y="28" type="line"/>
			<point x="118" y="32" type="line"/>
			<point x="166" y="78"/>
			<point x="194" y="130"/>
			<point x="194" y="218" type="curve" smooth="yes"/>
			<point x="194" y="324"/>
			<point x="144" y="398"/>
			<point x="144" y="488" type="curve" smooth="yes"/>
			<point x="144" y="562"/>
			<point x="188" y="624"/>
			<point x="274" y="624" type="curve" smooth="yes"/>
			<point x="331" y="624"/>
			<point x="368" y="602"/>
			<point x="396" y="564" type="curve"/>
			<point x="416" y="580" type="line"/>
			<point x="388" y="622"/>
			<point x="342" y="652"/>
			<point x="276" y="652" type="curve" smooth="yes"/>
			<point x="174" y="652"/>
			<point x="112" y="588"/>
			<point x="112" y="486" type="curve" smooth="yes"/>
			<point x="112" y="394"/>
			<point x="164" y="312"/>
			<point x="164" y="218" type="curve" smooth="yes"/>
			<point x="164" y="140"/>
			<point x="134" y="62"/>
			<point x="58" y="18" type="curve"/>
		</contour>
		<contour>
			<point x="54" y="296" type="line"/>
			<point x="346" y="296" type="line"/>
			<point x="346" y="324" type="line"/>
			<point x="120" y="324" type="line"/>
			<point x="54" y="322" type="line"/>
		</contour>
	</outline>
</glyph>
<glyph name="currency" format="2">
	<unicode hex="00A4"/>
	<advance width="472"/>
	<outline>
		<contour>
			<point x="52" y="118" type="line"/>
			<point x="117" y="186" type="line"/>
			<point x="149" y="155"/>
			<point x="191" y="138"/>
			<point x="236" y="138" type="curve" smooth="yes"/>
			<point x="280" y="138"/>
			<point x="323" y="155"/>
			<point x="354" y="186" type="curve"/>
			<point x="420" y="118" type="line"/>
			<point x="440" y="140" type="line"/>
			<point x="374" y="208" type="line"/>
			<point x="397" y="240"/>
			<point x="412" y="281"/>
			<point x="412" y="328" type="curve" smooth="yes"/>
			<point x="412" y="377"/>
			<point x="397" y="419"/>
			<point x="373" y="451" type="curve"/>
			<point x="440" y="520" type="line"/>
			<point x="420" y="542" type="line"/>
			<point x="354" y="473" type="line"/>
			<point x="322" y="503"/>
			<point x="280" y="520"/>
			<point x="236" y="520" type="curve" smooth="yes"/>
			<point x="191" y="520"/>
			<point x="149" y="503"/>
			<point x="118" y="473" type="curve"/>
			<point x="52" y="542" type="line"/>
			<point x="32" y="520" type="line"/>
			<point x="98" y="451" type="line"/>
			<point x="74" y="419"/>
			<point x="60" y="377"/>
			<point x="60" y="328" type="curve" smooth="yes"/>
			<point x="60" y="281"/>
			<point x="74" y="240"/>
			<point x="98" y="208" type="curve"/>
			<point x="32" y="140" type="line"/>
		</contour>
		<contour>
			<point x="236" y="166" type="curve" smooth="yes"/>
			<point x="158" y="166"/>
			<point x="92" y="232"/>
			<point x="92" y="328" type="curve" smooth="yes"/>
			<point x="92" y="424"/>
			<point x="158" y="492"/>
			<point x="236" y="492" type="curve" smooth="yes"/>
			<point x="314" y="492"/>
			<point x="380" y="424"/>
			<point x="380" y="328" type="curve" smooth="yes"/>
			<point x="380" y="232"/>
			<point x="314" y="166"/>
		</contour>
	</outline>
</glyph>
<glyph name="brokenbar" format="1">
  <advance width="220"/>
  <unicode hex="00A6"/>
  <outline>
    <contour>
      <point x="96" y="274" type="line"/>
      <point x="124" y="274" type="line"/>
      <point x="124" y="750" type="line"/>
      <point x="96" y="750" type="line"/>
    </contour>
    <contour>
      <point x="96" y="-250" type="line"/>
      <point x="124" y="-250" type="line"/>
      <point x="124" y="222" type="line"/>
      <point x="96" y="222" type="line"/>
    </contour>
  </outline>
</glyph>
<glyph name="copyright" format="1">
	<unicode hex="00A9"/>
	<advance width="740"/>
	<outline>
		<contour>
			<point x="370" y="-12" type="curve" smooth="yes"/>
			<point x="542" y="-12"/>
			<point x="688" y="120"/>
			<point x="688" y="322" type="curve" smooth="yes"/>
			<point x="688" y="522"/>
			<point x="542" y="652"/>
			<point x="370" y="652" type="curve" smooth="yes"/>
			<point x="198" y="652"/>
			<point x="52" y="522"/>
			<point x="52" y="322" type="curve" smooth="yes"/>
			<point x="52" y="120"/>
			<point x="198" y="-12"/>
		</contour>
		<contour>
			<point x="370" y="14" type="curve" smooth="yes"/>
			<point x="216" y="14"/>
			<point x="82" y="138"/>
			<point x="82" y="322" type="curve" smooth="yes"/>
			<point x="82" y="504"/>
			<point x="216" y="626"/>
			<point x="370" y="626" type="curve" smooth="yes"/>
			<point x="524" y="626"/>
			<point x="658" y="504"/>
			<point x="658" y="322" type="curve" smooth="yes"/>
			<point x="658" y="138"/>
			<point x="524" y="14"/>
		</contour>
		<contour>
			<point x="374" y="124" type="curve" smooth="yes"/>
			<point x="440" y="124"/>
			<point x="476" y="148"/>
			<point x="510" y="186" type="curve"/>
			<point x="492" y="204" type="line"/>
			<point x="460" y="172"/>
			<point x="432" y="154"/>
			<point x="376" y="154" type="curve" smooth="yes"/>
			<point x="292" y="154"/>
			<point x="236" y="214"/>
			<point x="236" y="312" type="curve" smooth="yes"/>
			<point x="236" y="412"/>
			<point x="298" y="478"/>
			<point x="378" y="478" type="curve" smooth="yes"/>
			<point x="420" y="478"/>
			<point x="454" y="462"/>
			<point x="480" y="432" type="curve"/>
			<point x="500" y="450" type="line"/>
			<point x="472" y="484"/>
			<point x="432" y="508"/>
			<point x="380" y="508" type="curve" smooth="yes"/>
			<point x="286" y="508"/>
			<point x="202" y="434"/>
			<point x="202" y="312" type="curve" smooth="yes"/>
			<point x="202" y="192"/>
			<point x="280" y="124"/>
		</contour>
	</outline>
</glyph>
<glyph name="registered" format="1">
  <advance width="392"/>
  <unicode hex="00AE"/>
  <outline>
    <contour>
      <point x="196" y="326" type="curve" smooth="yes"/>
      <point x="294" y="326"/>
      <point x="376" y="402"/>
      <point x="376" y="518" type="curve" smooth="yes"/>
      <point x="376" y="634"/>
      <point x="294" y="712"/>
      <point x="196" y="712" type="curve" smooth="yes"/>
      <point x="98" y="712"/>
      <point x="16" y="634"/>
      <point x="16" y="518" type="curve" smooth="yes"/>
      <point x="16" y="402"/>
      <point x="98" y="326"/>
    </contour>
    <contour>
      <point x="196" y="352" type="curve" smooth="yes"/>
      <point x="112" y="352"/>
      <point x="44" y="422"/>
      <point x="44" y="518" type="curve" smooth="yes"/>
      <point x="44" y="614"/>
      <point x="112" y="686"/>
      <point x="196" y="686" type="curve" smooth="yes"/>
      <point x="280" y="686"/>
      <point x="348" y="614"/>
      <point x="348" y="518" type="curve" smooth="yes"/>
      <point x="348" y="422"/>
      <point x="280" y="352"/>
    </contour>
    <contour>
      <point x="130" y="418" type="line"/>
      <point x="158" y="418" type="line"/>
      <point x="158" y="496" type="line"/>
      <point x="208" y="496" type="line"/>
      <point x="248" y="418" type="line"/>
      <point x="282" y="418" type="line"/>
      <point x="232" y="506" type="line"/>
      <point x="254" y="512"/>
      <point x="272" y="536"/>
      <point x="272" y="562" type="curve" smooth="yes"/>
      <point x="272" y="612"/>
      <point x="234" y="626"/>
      <point x="196" y="626" type="curve" smooth="yes"/>
      <point x="130" y="626" type="line"/>
    </contour>
    <contour>
      <point x="158" y="522" type="line"/>
      <point x="158" y="600" type="line"/>
      <point x="192" y="600" type="line" smooth="yes"/>
      <point x="230" y="600"/>
      <point x="242" y="584"/>
      <point x="242" y="560" type="curve" smooth="yes"/>
      <point x="242" y="532"/>
      <point x="220" y="522"/>
      <point x="188" y="522" type="curve" smooth="yes"/>
    </contour>
  </outline>
</glyph>
<glyph name="degree" format="1">
  <advance width="304"/>
  <unicode hex="00B0"/>
  <outline>
    <contour>
      <point x="152" y="454" type="curve" smooth="yes"/>
      <point x="208" y="454"/>
      <point x="262" y="496"/>
      <point x="262" y="568" type="curve" smooth="yes"/>
      <point x="262" y="642"/>
      <point x="208" y="684"/>
      <point x="152" y="684" type="curve" smooth="yes"/>
      <point x="96" y="684"/>
      <point x="42" y="642"/>
      <point x="42" y="568" type="curve" smooth="yes"/>
      <point x="42" y="496"/>
      <point x="96" y="454"/>
    </contour>
    <contour>
      <point x="152" y="480" type="curve" smooth="yes"/>
      <point x="104" y="480"/>
      <point x="70" y="518"/>
      <point x="70" y="568" type="curve" smooth="yes"/>
      <point x="70" y="620"/>
      <point x="104" y="658"/>
      <point x="152" y="658" type="curve" smooth="yes"/>
      <point x="200" y="658"/>
      <point x="234" y="620"/>
      <point x="234" y="568" type="curve" smooth="yes"/>
      <point x="234" y="518"/>
      <point x="200" y="480"/>
    </contour>
  </outline>
</glyph>
<glyph name="plusminus" format="1">
  <advance width="472"/>
  <unicode hex="00B1"/>
  <outline>
    <contour>
      <point x="220" y="102" type="line"/>
      <point x="252" y="102" type="line"/>
      <point x="252" y="312" type="line"/>
      <point x="438" y="312" type="line"/>
      <point x="438" y="340" type="line"/>
      <point x="252" y="340" type="line"/>
      <point x="252" y="548" type="line"/>
      <point x="220" y="548" type="line"/>
      <point x="220" y="340" type="line"/>
      <point x="34" y="340" type="line"/>
      <point x="34" y="312" type="line"/>
      <point x="220" y="312" type="line"/>
    </contour>
    <contour>
      <point x="34" y="0" type="line"/>
      <point x="438" y="0" type="line"/>
      <point x="438" y="28" type="line"/>
      <point x="34" y="28" type="line"/>
    </contour>
  </outline>
</glyph>
<glyph name="paragraph" format="1">
  <advance width="498"/>
  <unicode hex="00B6"/>
  <outline>
    <contour>
      <point x="370" y="-80" type="line"/>
      <point x="402" y="-80" type="line"/>
      <point x="402" y="660" type="line"/>
      <point x="370" y="660" type="line"/>
    </contour>
    <contour>
      <point x="290" y="250" type="curve" smooth="yes"/>
      <point x="316" y="250" type="line"/>
      <point x="316" y="660" type="line"/>
      <point x="272" y="660" type="line" smooth="yes"/>
      <point x="136" y="660"/>
      <point x="42" y="602"/>
      <point x="42" y="454" type="curve" smooth="yes"/>
      <point x="42" y="306"/>
      <point x="142" y="250"/>
    </contour>
  </outline>
</glyph>
<glyph name="cedilla" format="1">
  <advance width="532"/>
  <unicode hex="00B8"/>
  <outline>
    <contour>
      <point x="276" y="0" type="move" name="_baseLC"/>
    </contour>
    <component base="cedillacmb" xOffset="276"/>
  </outline>
</glyph>
<glyph name="Eth" format="2">
	<unicode hex="00D0"/>
	<advance width="620"/>
	<outline>
		<contour>
			<point x="38" y="336" type="line"/>
			<point x="320" y="336" type="line"/>
			<point x="320" y="364" type="line"/>
			<point x="122" y="364" type="line"/>
			<point x="38" y="362" type="line"/>
		</contour>
		<component base="D" xOffset="20"/>
	</outline>
</glyph>
<glyph name="germandbls" format="1">
	<unicode hex="00DF"/>
	<advance width="530"/>
	<outline>
		<contour>
			<point x="360" y="-12" type="curve" smooth="yes"/>
			<point x="440" y="-12"/>
			<point x="500" y="46"/>
			<point x="500" y="124" type="curve" smooth="yes"/>
			<point x="500" y="294"/>
			<point x="296" y="256"/>
			<point x="296" y="378" type="curve" smooth="yes"/>
			<point x="296" y="462"/>
			<point x="408" y="498"/>
			<point x="408" y="602" type="curve" smooth="yes"/>
			<point x="408" y="676"/>
			<point x="354" y="732"/>
			<point x="268" y="732" type="curve" smooth="yes"/>
			<point x="166" y="732"/>
			<point x="96" y="660"/>
			<point x="96" y="538" type="curve" smooth="yes"/>
			<point x="96" y="0" type="line"/>
			<point x="126" y="0" type="line"/>
			<point x="126" y="524" type="line" smooth="yes"/>
			<point x="126" y="648"/>
			<point x="182" y="704"/>
			<point x="266" y="704" type="curve" smooth="yes"/>
			<point x="338" y="704"/>
			<point x="376" y="660"/>
			<point x="376" y="600" type="curve" smooth="yes"/>
			<point x="376" y="508"/>
			<point x="264" y="476"/>
			<point x="264" y="376" type="curve" smooth="yes"/>
			<point x="264" y="230"/>
			<point x="468" y="270"/>
			<point x="468" y="122" type="curve" smooth="yes"/>
			<point x="468" y="68"/>
			<point x="432" y="16"/>
			<point x="360" y="16" type="curve" smooth="yes"/>
			<point x="316" y="16"/>
			<point x="280" y="28"/>
			<point x="244" y="60" type="curve"/>
			<point x="226" y="40" type="line"/>
			<point x="262" y="4"/>
			<point x="308" y="-12"/>
		</contour>
	</outline>
</glyph>
<glyph name="ae" format="2">
	<unicode hex="00E6"/>
	<advance width="776"/>
	<outline>
		<contour>
			<point x="198" y="-12" type="curve" smooth="yes"/>
			<point x="258" y="-12"/>
			<point x="340" y="28"/>
			<point x="402" y="90" type="curve"/>
			<point x="436" y="40"/>
			<point x="486" y="-12"/>
			<point x="574" y="-12" type="curve" smooth="yes"/>
			<point x="646" y="-12"/>
			<point x="682" y="8"/>
			<point x="718" y="34" type="curve"/>
			<point x="704" y="56" type="line"/>
			<point x="670" y="30"/>
			<point x="630" y="16"/>
			<point x="576" y="16" type="curve" smooth="yes"/>
			<point x="474" y="16"/>
			<point x="396" y="110"/>
			<point x="398" y="238" type="curve"/>
			<point x="736" y="238" type="line"/>
			<point x="738" y="250"/>
			<point x="738" y="260"/>
			<point x="738" y="270" type="curve" smooth="yes"/>
			<point x="738" y="412"/>
			<point x="672" y="490"/>
			<point x="562" y="490" type="curve" smooth="yes"/>
			<point x="490" y="490"/>
			<point x="426" y="440"/>
			<point x="392" y="364" type="curve"/>
			<point x="378" y="440"/>
			<point x="332" y="490"/>
			<point x="252" y="490" type="curve" smooth="yes"/>
			<point x="180" y="490"/>
			<point x="114" y="452"/>
			<point x="84" y="428" type="curve"/>
			<point x="100" y="406" type="line"/>
			<point x="130" y="428"/>
			<point x="188" y="462"/>
			<point x="250" y="462" type="curve" smooth="yes"/>
			<point x="350" y="462"/>
			<point x="370" y="376"/>
			<point x="368" y="298" type="curve"/>
			<point x="160" y="274"/>
			<point x="60" y="224"/>
			<point x="60" y="116" type="curve" smooth="yes"/>
			<point x="60" y="26"/>
			<point x="124" y="-12"/>
		</contour>
		<contour>
			<point x="200" y="16" type="curve" smooth="yes"/>
			<point x="142" y="16"/>
			<point x="92" y="44"/>
			<point x="92" y="118" type="curve" smooth="yes"/>
			<point x="92" y="200"/>
			<point x="168" y="248"/>
			<point x="368" y="272" type="curve"/>
			<point x="368" y="244" type="line" smooth="yes"/>
			<point x="368" y="196"/>
			<point x="376" y="146"/>
			<point x="390" y="116" type="curve"/>
			<point x="332" y="52"/>
			<point x="254" y="16"/>
		</contour>
		<contour>
			<point x="398" y="264" type="line"/>
			<point x="408" y="380"/>
			<point x="478" y="462"/>
			<point x="562" y="462" type="curve" smooth="yes"/>
			<point x="652" y="462"/>
			<point x="708" y="396"/>
			<point x="708" y="264" type="curve"/>
		</contour>
	</outline>
	<anchor name="aboveLC" x="406" y="502"/>
	<anchor name="belowLC" x="420" y="-22"/>
</glyph>
<glyph name="eth" format="1">
  <advance width="532"/>
  <unicode hex="00F0"/>
  <outline>
    <contour>
      <point x="266" y="-12" type="curve" smooth="yes"/>
      <point x="382" y="-12"/>
      <point x="464" y="90"/>
      <point x="464" y="250" type="curve" smooth="yes"/>
      <point x="464" y="510"/>
      <point x="326" y="638"/>
      <point x="172" y="722" type="curve"/>
      <point x="156" y="700" type="line"/>
      <point x="304" y="614"/>
      <point x="432" y="510"/>
      <point x="432" y="250" type="curve" smooth="yes"/>
      <point x="432" y="122"/>
      <point x="382" y="16"/>
      <point x="266" y="16" type="curve" smooth="yes"/>
      <point x="172" y="16"/>
      <point x="94" y="100"/>
      <point x="94" y="218" type="curve" smooth="yes"/>
      <point x="94" y="320"/>
      <point x="153" y="412"/>
      <point x="268" y="412" type="curve" smooth="yes"/>
      <point x="322" y="412"/>
      <point x="378" y="394"/>
      <point x="434" y="308" type="curve"/>
      <point x="434" y="346" type="line"/>
      <point x="392" y="408"/>
      <point x="334" y="440"/>
      <point x="270" y="440" type="curve" smooth="yes"/>
      <point x="144" y="440"/>
      <point x="62" y="348"/>
      <point x="62" y="218" type="curve" smooth="yes"/>
      <point x="62" y="74"/>
      <point x="162" y="-12"/>
    </contour>
    <contour>
      <point x="162" y="520" type="line"/>
      <point x="464" y="678" type="line"/>
      <point x="452" y="700" type="line"/>
      <point x="150" y="542" type="line"/>
    </contour>
  </outline>
</glyph>
<glyph name="divide" format="1">
  <advance width="472"/>
  <unicode hex="00F7"/>
  <outline>
    <contour>
      <point x="34" y="316" type="line"/>
      <point x="438" y="316" type="line"/>
      <point x="438" y="344" type="line"/>
      <point x="34" y="344" type="line"/>
    </contour>
    <contour>
      <point x="236" y="114" type="curve" smooth="yes"/>
      <point x="254" y="114"/>
      <point x="268" y="128"/>
      <point x="268" y="150" type="curve" smooth="yes"/>
      <point x="268" y="170"/>
      <point x="254" y="184"/>
      <point x="236" y="184" type="curve" smooth="yes"/>
      <point x="218" y="184"/>
      <point x="204" y="170"/>
      <point x="204" y="150" type="curve" smooth="yes"/>
      <point x="204" y="128"/>
      <point x="218" y="114"/>
    </contour>
    <contour>
      <point x="236" y="474" type="curve" smooth="yes"/>
      <point x="254" y="474"/>
      <point x="268" y="488"/>
      <point x="268" y="510" type="curve" smooth="yes"/>
      <point x="268" y="530"/>
      <point x="254" y="544"/>
      <point x="236" y="544" type="curve" smooth="yes"/>
      <point x="218" y="544"/>
      <point x="204" y="530"/>
      <point x="204" y="510" type="curve" smooth="yes"/>
      <point x="204" y="488"/>
      <point x="218" y="474"/>
    </contour>
  </outline>
</glyph>
<glyph name="Aogonek" format="1">
	<unicode hex="0104"/>
	<advance width="520"/>
	<outline>
		<contour>
			<point x="488" y="-214" type="curve" smooth="yes"/>
			<point x="518" y="-214"/>
			<point x="544" y="-200"/>
			<point x="560" y="-186" type="curve"/>
			<point x="546" y="-166" type="line"/>
			<point x="528" y="-180"/>
			<point x="512" y="-186"/>
			<point x="490" y="-186" type="curve" smooth="yes"/>
			<point x="460" y="-186"/>
			<point x="430" y="-168"/>
			<point x="430" y="-126" type="curve" smooth="yes"/>
			<point x="430" y="-82"/>
			<point x="467" y="-33"/>
			<point x="510" y="0" type="curve"/>
			<point x="274" y="660" type="line"/>
			<point x="246" y="660" type="line"/>
			<point x="10" y="0" type="line"/>
			<point x="42" y="0" type="line"/>
			<point x="182" y="396" type="line" smooth="yes"/>
			<point x="210" y="476"/>
			<point x="234" y="544"/>
			<point x="258" y="626" type="curve"/>
			<point x="262" y="626" type="line"/>
			<point x="286" y="544"/>
			<point x="310" y="476"/>
			<point x="338" y="396" type="curve" smooth="yes"/>
			<point x="476" y="0" type="line"/>
			<point x="478" y="0" type="line"/>
			<point x="439" y="-28"/>
			<point x="400" y="-77"/>
			<point x="400" y="-128" type="curve" smooth="yes"/>
			<point x="400" y="-188"/>
			<point x="440" y="-214"/>
		</contour>
		<contour>
			<point x="112" y="236" type="line"/>
			<point x="406" y="236" type="line"/>
			<point x="406" y="264" type="line"/>
			<point x="112" y="264" type="line"/>
		</contour>
		<contour>
			<point name="aboveUC" x="260" y="682" type="move"/>
		</contour>
	</outline>
</glyph>
<glyph name="aogonek" format="1">
	<unicode hex="0105"/>
	<advance width="486"/>
	<outline>
		<contour>
			<point x="368" y="-212" type="curve" smooth="yes"/>
			<point x="398" y="-212"/>
			<point x="422" y="-198"/>
			<point x="438" y="-184" type="curve"/>
			<point x="424" y="-164" type="line"/>
			<point x="406" y="-178"/>
			<point x="392" y="-184"/>
			<point x="370" y="-184" type="curve" smooth="yes"/>
			<point x="340" y="-184"/>
			<point x="312" y="-166"/>
			<point x="312" y="-124" type="curve" smooth="yes"/>
			<point x="312" y="-80"/>
			<point x="354" y="-28"/>
			<point x="404" y="0" type="curve"/>
			<point x="404" y="310" type="line" smooth="yes"/>
			<point x="404" y="406"/>
			<point x="370" y="490"/>
			<point x="258" y="490" type="curve" smooth="yes"/>
			<point x="180" y="490"/>
			<point x="114" y="452"/>
			<point x="84" y="428" type="curve"/>
			<point x="100" y="406" type="line"/>
			<point x="130" y="428"/>
			<point x="188" y="462"/>
			<point x="256" y="462" type="curve" smooth="yes"/>
			<point x="356" y="462"/>
			<point x="376" y="376"/>
			<point x="374" y="298" type="curve"/>
			<point x="158" y="274"/>
			<point x="60" y="224"/>
			<point x="60" y="116" type="curve" smooth="yes"/>
			<point x="60" y="26"/>
			<point x="124" y="-12"/>
			<point x="198" y="-12" type="curve" smooth="yes"/>
			<point x="262" y="-12"/>
			<point x="322" y="24"/>
			<point x="372" y="64" type="curve"/>
			<point x="374" y="64" type="line"/>
			<point x="378" y="8" type="line"/>
			<point x="326" y="-24"/>
			<point x="282" y="-76"/>
			<point x="282" y="-126" type="curve" smooth="yes"/>
			<point x="282" y="-186"/>
			<point x="320" y="-212"/>
		</contour>
		<contour>
			<point x="200" y="16" type="curve" smooth="yes"/>
			<point x="142" y="16"/>
			<point x="92" y="44"/>
			<point x="92" y="118" type="curve" smooth="yes"/>
			<point x="92" y="200"/>
			<point x="164" y="248"/>
			<point x="374" y="272" type="curve"/>
			<point x="374" y="98" type="line"/>
			<point x="310" y="44"/>
			<point x="258" y="16"/>
		</contour>
		<contour>
			<point name="aboveLC" x="260" y="502" type="move"/>
		</contour>
	</outline>
</glyph>
<glyph name="dcroat" format="2">
	<unicode hex="0111"/>
	<advance width="560"/>
	<outline>
		<contour>
			<point x="252" y="-12" type="curve" smooth="yes"/>
			<point x="318" y="-12"/>
			<point x="372" y="24"/>
			<point x="412" y="64" type="curve"/>
			<point x="414" y="64" type="line"/>
			<point x="418" y="0" type="line"/>
			<point x="444" y="0" type="line"/>
			<point x="444" y="722" type="line"/>
			<point x="414" y="722" type="line"/>
			<point x="414" y="488" type="line"/>
			<point x="416" y="398" type="line"/>
			<point x="366" y="436"/>
			<point x="326" y="458"/>
			<point x="268" y="458" type="curve" smooth="yes"/>
			<point x="152" y="458"/>
			<point x="54" y="366"/>
			<point x="54" y="222" type="curve" smooth="yes"/>
			<point x="54" y="70"/>
			<point x="132" y="-12"/>
		</contour>
		<contour>
			<point x="254" y="16" type="curve" smooth="yes"/>
			<point x="146" y="16"/>
			<point x="86" y="100"/>
			<point x="86" y="222" type="curve" smooth="yes"/>
			<point x="86" y="336"/>
			<point x="164" y="430"/>
			<point x="266" y="430" type="curve" smooth="yes"/>
			<point x="316" y="430"/>
			<point x="360" y="412"/>
			<point x="414" y="364" type="curve"/>
			<point x="414" y="100" type="line"/>
			<point x="360" y="46"/>
			<point x="310" y="16"/>
		</contour>
		<contour>
			<point x="222" y="584" type="line"/>
			<point x="444" y="584" type="line"/>
			<point x="538" y="588" type="line"/>
			<point x="538" y="612" type="line"/>
			<point x="222" y="612" type="line"/>
		</contour>
	</outline>
	<anchor name="aboveUC" x="260" y="732"/>
	<anchor name="belowLC" x="270" y="-22"/>
</glyph>
<glyph name="Eogonek" format="1">
	<unicode hex="0118"/>
	<advance width="510"/>
	<outline>
		<contour>
			<point x="416" y="-214" type="curve" smooth="yes"/>
			<point x="446" y="-214"/>
			<point x="472" y="-200"/>
			<point x="488" y="-186" type="curve"/>
			<point x="474" y="-166" type="line"/>
			<point x="456" y="-180"/>
			<point x="440" y="-186"/>
			<point x="418" y="-186" type="curve" smooth="yes"/>
			<point x="388" y="-186"/>
			<point x="358" y="-168"/>
			<point x="358" y="-126" type="curve" smooth="yes"/>
			<point x="358" y="-64"/>
			<point x="426" y="0"/>
			<point x="462" y="0" type="curve" smooth="yes"/>
			<point x="464" y="0" type="line"/>
			<point x="464" y="28" type="line"/>
			<point x="132" y="28" type="line"/>
			<point x="132" y="338" type="line"/>
			<point x="402" y="338" type="line"/>
			<point x="402" y="366" type="line"/>
			<point x="132" y="366" type="line"/>
			<point x="132" y="632" type="line"/>
			<point x="454" y="632" type="line"/>
			<point x="454" y="660" type="line"/>
			<point x="100" y="660" type="line"/>
			<point x="100" y="0" type="line"/>
			<point x="408" y="0" type="line"/>
			<point x="364" y="-28"/>
			<point x="328" y="-74"/>
			<point x="328" y="-128" type="curve" smooth="yes"/>
			<point x="328" y="-188"/>
			<point x="368" y="-214"/>
		</contour>
		<contour>
			<point name="aboveUC" x="290" y="682" type="move"/>
		</contour>
	</outline>
</glyph>
<glyph name="eogonek" format="1">
	<unicode hex="0119"/>
	<advance width="478"/>
	<outline>
		<contour>
			<point x="356" y="-212" type="curve" smooth="yes"/>
			<point x="386" y="-212"/>
			<point x="410" y="-198"/>
			<point x="426" y="-184" type="curve"/>
			<point x="412" y="-164" type="line"/>
			<point x="394" y="-178"/>
			<point x="380" y="-184"/>
			<point x="358" y="-184" type="curve" smooth="yes"/>
			<point x="328" y="-184"/>
			<point x="300" y="-166"/>
			<point x="300" y="-124" type="curve" smooth="yes"/>
			<point x="300" y="-74"/>
			<point x="346" y="-10"/>
			<point x="420" y="34" type="curve"/>
			<point x="406" y="56" type="line"/>
			<point x="372" y="32"/>
			<point x="328" y="16"/>
			<point x="274" y="16" type="curve" smooth="yes"/>
			<point x="160" y="16"/>
			<point x="86" y="110"/>
			<point x="86" y="238" type="curve"/>
			<point x="438" y="238" type="line"/>
			<point x="440" y="250"/>
			<point x="440" y="260"/>
			<point x="440" y="270" type="curve" smooth="yes"/>
			<point x="440" y="412"/>
			<point x="370" y="490"/>
			<point x="260" y="490" type="curve" smooth="yes"/>
			<point x="154" y="490"/>
			<point x="54" y="394"/>
			<point x="54" y="238" type="curve" smooth="yes"/>
			<point x="54" y="82"/>
			<point x="152" y="-12"/>
			<point x="272" y="-12" type="curve" smooth="yes"/>
			<point x="296" y="-12"/>
			<point x="318" y="-10"/>
			<point x="340" y="-2" type="curve"/>
			<point x="310" y="-28"/>
			<point x="270" y="-72"/>
			<point x="270" y="-126" type="curve" smooth="yes"/>
			<point x="270" y="-186"/>
			<point x="308" y="-212"/>
		</contour>
		<contour>
			<point x="86" y="266" type="line"/>
			<point x="96" y="388"/>
			<point x="174" y="462"/>
			<point x="260" y="462" type="curve" smooth="yes"/>
			<point x="350" y="462"/>
			<point x="410" y="398"/>
			<point x="410" y="266" type="curve"/>
		</contour>
		<contour>
			<point name="aboveLC" x="260" y="502" type="move"/>
		</contour>
	</outline>
</glyph>
<glyph name="Hbar" format="2">
	<unicode hex="0126"/>
	<advance width="666"/>
	<outline>
		<contour>
			<point x="38" y="496" type="line"/>
			<point x="628" y="496" type="line"/>
			<point x="628" y="524" type="line"/>
			<point x="122" y="524" type="line"/>
			<point x="38" y="520" type="line"/>
		</contour>
		<component base="H" xOffset="20"/>
	</outline>
</glyph>
<glyph name="hbar" format="1">
	<unicode hex="0127"/>
	<advance width="522"/>
	<outline>
		<contour>
			<point x="96" y="0" type="line"/>
			<point x="126" y="0" type="line"/>
			<point x="126" y="334" type="line"/>
			<point x="188" y="398"/>
			<point x="232" y="430"/>
			<point x="292" y="430" type="curve" smooth="yes"/>
			<point x="374" y="430"/>
			<point x="408" y="378"/>
			<point x="408" y="272" type="curve" smooth="yes"/>
			<point x="408" y="0" type="line"/>
			<point x="438" y="0" type="line"/>
			<point x="438" y="276" type="line" smooth="yes"/>
			<point x="438" y="400"/>
			<point x="392" y="458"/>
			<point x="294" y="458" type="curve" smooth="yes"/>
			<point x="228" y="458"/>
			<point x="178" y="420"/>
			<point x="126" y="368" type="curve"/>
			<point x="126" y="476" type="line"/>
			<point x="126" y="722" type="line"/>
			<point x="96" y="722" type="line"/>
		</contour>
		<contour>
			<point x="18" y="584" type="line"/>
			<point x="318" y="584" type="line"/>
			<point x="318" y="612" type="line"/>
			<point x="96" y="612" type="line"/>
			<point x="18" y="608" type="line"/>
		</contour>
	</outline>
</glyph>
<glyph name="Lslash" format="1">
	<unicode hex="0141"/>
	<advance width="460"/>
	<outline>
		<contour>
			<point x="20" y="228" type="line"/>
			<point x="110" y="266" type="line"/>
			<point x="122" y="268" type="line"/>
			<point x="340" y="372" type="line"/>
			<point x="328" y="398" type="line"/>
			<point x="122" y="300" type="line"/>
			<point x="110" y="298" type="line"/>
			<point x="8" y="254" type="line"/>
		</contour>
		<component base="L" xOffset="4"/>
	</outline>
</glyph>
<glyph name="lslash" format="1">
	<unicode hex="0142"/>
	<advance width="250"/>
	<outline>
		<contour>
			<point x="12" y="352" type="line"/>
			<point x="116" y="406" type="line"/>
			<point x="128" y="410" type="line"/>
			<point x="236" y="466" type="line"/>
			<point x="224" y="490" type="line"/>
			<point x="128" y="440" type="line"/>
			<point x="116" y="436" type="line"/>
			<point x="0" y="376" type="line"/>
		</contour>
		<component base="l" xOffset="10"/>
		<contour>
			<point name="aboveUC" x="120" y="730" type="move"/>
		</contour>
		<contour>
			<point name="belowLC" x="140" y="-22" type="move"/>
		</contour>
	</outline>
</glyph>
<glyph name="Eng" format="2">
	<unicode hex="014A"/>
	<advance width="610"/>
	<outline>
		<contour>
			<point x="402" y="-12" type="curve" smooth="yes"/>
			<point x="481" y="-12"/>
			<point x="554" y="70"/>
			<point x="554" y="338" type="curve" smooth="yes"/>
			<point x="554" y="584"/>
			<point x="456" y="672"/>
			<point x="324" y="672" type="curve" smooth="yes"/>
			<point x="252" y="672"/>
			<point x="178" y="622"/>
			<point x="132" y="570" type="curve"/>
			<point x="132" y="660" type="line"/>
			<point x="100" y="660" type="line"/>
			<point x="100" y="0" type="line"/>
			<point x="132" y="0" type="line"/>
			<point x="132" y="532" type="line"/>
			<point x="177" y="590"/>
			<point x="260" y="642"/>
			<point x="322" y="642" type="curve" smooth="yes"/>
			<point x="438" y="642"/>
			<point x="520" y="574"/>
			<point x="520" y="338" type="curve" smooth="yes"/>
			<point x="520" y="98"/>
			<point x="465" y="20"/>
			<point x="400" y="20" type="curve" smooth="yes"/>
			<point x="376" y="20"/>
			<point x="360" y="24"/>
			<point x="344" y="32" type="curve"/>
			<point x="332" y="0" type="line"/>
			<point x="350" y="-8"/>
			<point x="379" y="-12"/>
		</contour>
	</outline>
	<anchor name="aboveUC" x="330" y="682"/>
	<anchor name="belowLC" x="310" y="-22"/>
</glyph>
<glyph name="Tbar" format="1">
	<unicode hex="0166"/>
	<advance width="520"/>
	<outline>
		<contour>
			<point x="116" y="336" type="line"/>
			<point x="404" y="336" type="line"/>
			<point x="404" y="364" type="line"/>
			<point x="200" y="364" type="line"/>
			<point x="116" y="362" type="line"/>
		</contour>
		<component base="T"/>
		<contour>
			<point name="aboveUC" x="260" y="682" type="move"/>
		</contour>
		<contour>
			<point name="belowLC" x="260" y="-22" type="move"/>
		</contour>
	</outline>
</glyph>
<glyph name="Uogonek" format="1">
	<unicode hex="0172"/>
	<advance width="630"/>
	<outline>
		<contour>
			<point x="326" y="-214" type="curve" smooth="yes"/>
			<point x="356" y="-214"/>
			<point x="382" y="-200"/>
			<point x="398" y="-186" type="curve"/>
			<point x="384" y="-166" type="line"/>
			<point x="366" y="-180"/>
			<point x="350" y="-186"/>
			<point x="328" y="-186" type="curve" smooth="yes"/>
			<point x="298" y="-186"/>
			<point x="268" y="-168"/>
			<point x="268" y="-126" type="curve" smooth="yes"/>
			<point x="268" y="-76"/>
			<point x="310" y="-18"/>
			<point x="354" y="-10" type="curve" smooth="yes"/>
			<point x="463" y="10"/>
			<point x="532" y="85"/>
			<point x="532" y="246" type="curve" smooth="yes"/>
			<point x="532" y="660" type="line"/>
			<point x="502" y="660" type="line"/>
			<point x="502" y="254" type="line" smooth="yes"/>
			<point x="502" y="72"/>
			<point x="412" y="18"/>
			<point x="314" y="18" type="curve" smooth="yes"/>
			<point x="218" y="18"/>
			<point x="130" y="72"/>
			<point x="130" y="254" type="curve" smooth="yes"/>
			<point x="130" y="660" type="line"/>
			<point x="98" y="660" type="line"/>
			<point x="98" y="246" type="line" smooth="yes"/>
			<point x="98" y="42"/>
			<point x="208" y="-12"/>
			<point x="314" y="-12" type="curve"/>
			<point x="316" y="4" type="line"/>
			<point x="278" y="-26"/>
			<point x="238" y="-72"/>
			<point x="238" y="-128" type="curve" smooth="yes"/>
			<point x="238" y="-188"/>
			<point x="278" y="-214"/>
		</contour>
		<contour>
			<point name="aboveUC" x="314" y="682" type="move"/>
		</contour>
	</outline>
</glyph>
<glyph name="uogonek" format="1">
	<unicode hex="0173"/>
	<advance width="524"/>
	<outline>
		<contour>
			<point x="402" y="-212" type="curve" smooth="yes"/>
			<point x="432" y="-212"/>
			<point x="456" y="-198"/>
			<point x="472" y="-184" type="curve"/>
			<point x="458" y="-164" type="line"/>
			<point x="440" y="-178"/>
			<point x="426" y="-184"/>
			<point x="404" y="-184" type="curve" smooth="yes"/>
			<point x="374" y="-184"/>
			<point x="346" y="-166"/>
			<point x="346" y="-124" type="curve" smooth="yes"/>
			<point x="346" y="-80"/>
			<point x="384" y="-28"/>
			<point x="428" y="0" type="curve"/>
			<point x="428" y="478" type="line"/>
			<point x="398" y="478" type="line"/>
			<point x="398" y="120" type="line"/>
			<point x="338" y="48"/>
			<point x="294" y="16"/>
			<point x="234" y="16" type="curve" smooth="yes"/>
			<point x="151" y="16"/>
			<point x="118" y="68"/>
			<point x="118" y="174" type="curve" smooth="yes"/>
			<point x="118" y="478" type="line"/>
			<point x="88" y="478" type="line"/>
			<point x="88" y="170" type="line" smooth="yes"/>
			<point x="88" y="46"/>
			<point x="134" y="-12"/>
			<point x="232" y="-12" type="curve" smooth="yes"/>
			<point x="298" y="-12"/>
			<point x="348" y="26"/>
			<point x="396" y="82" type="curve"/>
			<point x="398" y="82" type="line"/>
			<point x="402" y="8" type="line"/>
			<point x="356" y="-24"/>
			<point x="316" y="-76"/>
			<point x="316" y="-126" type="curve" smooth="yes"/>
			<point x="316" y="-186"/>
			<point x="354" y="-212"/>
		</contour>
		<contour>
			<point name="aboveLC" x="260" y="502" type="move"/>
		</contour>
	</outline>
</glyph>
<glyph name="bstroke" format="2">
	<unicode hex="0180"/>
	<advance width="558"/>
	<outline>
		<contour>
			<point x="294" y="-12" type="curve" smooth="yes"/>
			<point x="408" y="-12"/>
			<point x="506" y="78"/>
			<point x="506" y="230" type="curve" smooth="yes"/>
			<point x="506" y="368"/>
			<point x="444" y="458"/>
			<point x="314" y="458" type="curve" smooth="yes"/>
			<point x="254" y="458"/>
			<point x="194" y="422"/>
			<point x="144" y="380" type="curve"/>
			<point x="146" y="476" type="line"/>
			<point x="146" y="722" type="line"/>
			<point x="116" y="722" type="line"/>
			<point x="116" y="0" type="line"/>
			<point x="142" y="0" type="line"/>
			<point x="146" y="48" type="line"/>
			<point x="148" y="48" type="line"/>
			<point x="194" y="12"/>
			<point x="248" y="-12"/>
		</contour>
		<contour>
			<point x="296" y="16" type="curve" smooth="yes"/>
			<point x="258" y="16"/>
			<point x="202" y="34"/>
			<point x="146" y="82" type="curve"/>
			<point x="146" y="346" type="line"/>
			<point x="206" y="400"/>
			<point x="262" y="430"/>
			<point x="312" y="430" type="curve" smooth="yes"/>
			<point x="430" y="430"/>
			<point x="474" y="342"/>
			<point x="474" y="230" type="curve" smooth="yes"/>
			<point x="474" y="106"/>
			<point x="400" y="16"/>
		</contour>
		<contour>
			<point x="22" y="584" type="line"/>
			<point x="338" y="584" type="line"/>
			<point x="338" y="612" type="line"/>
			<point x="116" y="612" type="line"/>
			<point x="22" y="608" type="line"/>
		</contour>
	</outline>
</glyph>
<glyph name="Schwa" format="1">
	<unicode hex="018F"/>
	<advance width="644"/>
	<outline>
		<contour>
			<point x="320" y="-12" type="curve" smooth="yes"/>
			<point x="484" y="-12"/>
			<point x="588" y="116"/>
			<point x="588" y="332" type="curve" smooth="yes"/>
			<point x="588" y="548"/>
			<point x="494" y="672"/>
			<point x="324" y="672" type="curve" smooth="yes"/>
			<point x="244" y="672"/>
			<point x="176" y="640"/>
			<point x="134" y="598" type="curve"/>
			<point x="154" y="578" type="line"/>
			<point x="194" y="618"/>
			<point x="258" y="644"/>
			<point x="326" y="644" type="curve" smooth="yes"/>
			<point x="476" y="644"/>
			<point x="556" y="528"/>
			<point x="556" y="332" type="curve" smooth="yes"/>
			<point x="556" y="136"/>
			<point x="468" y="16"/>
			<point x="320" y="16" type="curve" smooth="yes"/>
			<point x="190" y="16"/>
			<point x="100" y="130"/>
			<point x="96" y="304" type="curve"/>
			<point x="560" y="304" type="line"/>
			<point x="560" y="332" type="line"/>
			<point x="64" y="332" type="line"/>
			<point x="64" y="330"/>
			<point x="64" y="328"/>
			<point x="64" y="326" type="curve" smooth="yes"/>
			<point x="64" y="130"/>
			<point x="156" y="-12"/>
		</contour>
		<contour>
			<point name="aboveUC" x="338" y="682" type="move"/>
		</contour>
		<contour>
			<point name="belowLC" x="336" y="-22" type="move"/>
		</contour>
	</outline>
</glyph>
<glyph name="Ghook" format="1">
	<unicode hex="0193"/>
	<advance width="600"/>
	<outline>
		<contour>
			<point x="334" y="-12" type="curve" smooth="yes"/>
			<point x="420" y="-12"/>
			<point x="486" y="18"/>
			<point x="526" y="62" type="curve"/>
			<point x="526" y="318" type="line"/>
			<point x="330" y="318" type="line"/>
			<point x="330" y="290" type="line"/>
			<point x="494" y="290" type="line"/>
			<point x="494" y="72" type="line"/>
			<point x="460" y="38"/>
			<point x="400" y="18"/>
			<point x="336" y="18" type="curve" smooth="yes"/>
			<point x="182" y="18"/>
			<point x="90" y="142"/>
			<point x="90" y="332" type="curve" smooth="yes"/>
			<point x="90" y="522"/>
			<point x="186" y="642"/>
			<point x="344" y="642" type="curve" smooth="yes"/>
			<point x="418" y="642"/>
			<point x="466" y="619"/>
			<point x="500" y="592" type="curve"/>
			<point x="520" y="614" type="line"/>
			<point x="486" y="640"/>
			<point x="432" y="672"/>
			<point x="344" y="672" type="curve" smooth="yes"/>
			<point x="170" y="672"/>
			<point x="56" y="540"/>
			<point x="56" y="332" type="curve" smooth="yes"/>
			<point x="56" y="124"/>
			<point x="166" y="-12"/>
		</contour>
		<contour>
			<point x="490" y="618" type="curve"/>
			<point x="520" y="614" type="line"/>
			<point x="494" y="654"/>
			<point x="486" y="673"/>
			<point x="486" y="706" type="curve" smooth="yes"/>
			<point x="486" y="735"/>
			<point x="504" y="764"/>
			<point x="542" y="764" type="curve" smooth="yes"/>
			<point x="558" y="764"/>
			<point x="569" y="758"/>
			<point x="580" y="754" type="curve"/>
			<point x="588" y="780" type="line"/>
			<point x="575" y="786"/>
			<point x="560" y="792"/>
			<point x="544" y="792" type="curve" smooth="yes"/>
			<point x="496" y="792"/>
			<point x="456" y="763"/>
			<point x="456" y="710" type="curve" smooth="yes"/>
			<point x="456" y="677"/>
			<point x="464" y="658"/>
		</contour>
		<contour>
			<point name="aboveUC" x="300" y="562" type="move"/>
		</contour>
		<contour>
			<point name="belowLC" x="300" y="-22" type="move"/>
		</contour>
	</outline>
</glyph>
<glyph name="Iotalatin" format="2">
	<unicode hex="0196"/>
	<advance width="234"/>
	<outline>
		<contour>
			<point x="158" y="-8" type="curve" smooth="yes"/>
			<point x="170" y="-8"/>
			<point x="182" y="-4"/>
			<point x="190" y="0" type="curve"/>
			<point x="184" y="24" type="line"/>
			<point x="176" y="22"/>
			<point x="168" y="20"/>
			<point x="162" y="20" type="curve" smooth="yes"/>
			<point x="144" y="20"/>
			<point x="132" y="28"/>
			<point x="132" y="56" type="curve" smooth="yes"/>
			<point x="132" y="660" type="line"/>
			<point x="100" y="660" type="line"/>
			<point x="100" y="62" type="line" smooth="yes"/>
			<point x="100" y="10"/>
			<point x="122" y="-8"/>
		</contour>
	</outline>
	<anchor name="aboveUC" x="116" y="682"/>
	<anchor name="belowLC" x="140" y="-22"/>
</glyph>
<glyph name="Istroke" format="2">
	<unicode hex="0197"/>
	<advance width="264"/>
	<outline>
		<contour>
			<point x="38" y="338" type="line"/>
			<point x="226" y="338" type="line"/>
			<point x="226" y="366" type="line"/>
			<point x="122" y="366" type="line"/>
			<point x="38" y="362" type="line"/>
		</contour>
		<component base="I" xOffset="20"/>
	</outline>
	<anchor name="aboveUC" x="136" y="682"/>
	<anchor name="belowLC" x="136" y="-22"/>
</glyph>
<glyph name="ohorn" format="1">
  <advance width="532"/>
  <unicode hex="01A1"/>
  <outline>
    <contour>
      <point x="266" y="502" type="move" name="aboveLC"/>
    </contour>
    <contour>
      <point x="266" y="-22" type="move" name="belowLC"/>
    </contour>
    <contour>
      <point x="383" y="446" type="line"/>
      <point x="434" y="460"/>
      <point x="492" y="492"/>
      <point x="492" y="570" type="curve" smooth="yes"/>
      <point x="492" y="592"/>
      <point x="485" y="614"/>
      <point x="474" y="636" type="curve"/>
      <point x="446" y="620" type="line"/>
      <point x="456" y="603"/>
      <point x="460" y="583"/>
      <point x="460" y="568" type="curve" smooth="yes"/>
      <point x="460" y="510"/>
      <point x="424" y="478"/>
      <point x="352" y="467" type="curve"/>
    </contour>
    <component base="o"/>
  </outline>
</glyph>
<glyph name="uhorn" format="1">
  <advance width="524"/>
  <unicode hex="01B0"/>
  <outline>
    <contour>
      <point x="262" y="502" type="move" name="aboveLC"/>
    </contour>
    <contour>
      <point x="280" y="-22" type="move" name="belowLC"/>
    </contour>
    <contour>
      <point x="428" y="458" type="line"/>
      <point x="466" y="471"/>
      <point x="518" y="499"/>
      <point x="518" y="580" type="curve" smooth="yes"/>
      <point x="518" y="602"/>
      <point x="512" y="624"/>
      <point x="500" y="646" type="curve"/>
      <point x="472" y="630" type="line"/>
      <point x="482" y="613"/>
      <point x="486" y="593"/>
      <point x="486" y="578" type="curve" smooth="yes"/>
      <point x="486" y="520"/>
      <point x="454" y="489"/>
      <point x="400" y="478" type="curve"/>
    </contour>
    <component base="u"/>
  </outline>
</glyph>
<glyph name="wynn" format="2">
	<unicode hex="01BF"/>
	<advance width="520"/>
	<outline>
		<contour>
			<point x="96" y="-222" type="line"/>
			<point x="126" y="-222" type="line"/>
			<point x="126" y="-102" type="line"/>
			<point x="126" y="-12" type="line"/>
			<point x="316" y="34"/>
			<point x="466" y="170"/>
			<point x="466" y="320" type="curve" smooth="yes"/>
			<point x="466" y="422"/>
			<point x="410" y="490"/>
			<point x="294" y="490" type="curve" smooth="yes"/>
			<point x="234" y="490"/>
			<point x="176" y="454"/>
			<point x="128" y="416" type="curve"/>
			<point x="126" y="416" type="line"/>
			<point x="122" y="478" type="line"/>
			<point x="96" y="478" type="line"/>
		</contour>
		<contour>
			<point x="126" y="20" type="curve"/>
			<point x="126" y="378" type="line"/>
			<point x="188" y="432"/>
			<point x="242" y="462"/>
			<point x="292" y="462" type="curve" smooth="yes"/>
			<point x="394" y="462"/>
			<point x="434" y="398"/>
			<point x="434" y="320" type="curve" smooth="yes"/>
			<point x="434" y="190"/>
			<point x="304" y="64"/>
		</contour>
	</outline>
</glyph>
<glyph name="clickalveolar" format="1">
	<unicode hex="01C2"/>
	<advance width="324"/>
	<outline>
		<contour>
			<point x="30" y="272" type="line"/>
			<point x="294" y="272" type="line"/>
			<point x="294" y="300" type="line"/>
			<point x="108" y="300" type="line"/>
			<point x="30" y="296" type="line"/>
		</contour>
		<contour>
			<point x="30" y="422" type="line"/>
			<point x="294" y="422" type="line"/>
			<point x="294" y="450" type="line"/>
			<point x="108" y="450" type="line"/>
			<point x="30" y="446" type="line"/>
		</contour>
		<component base="l.a" xOffset="58"/>
		<contour>
			<point name="aboveUC" x="170" y="730" type="move"/>
		</contour>
		<contour>
			<point name="belowLC" x="170" y="-22" type="move"/>
		</contour>
	</outline>
</glyph>
<glyph name="clickretroflex" format="1">
	<unicode hex="01C3"/>
	<advance width="248"/>
	<outline>
		<contour>
			<point x="112" y="172" type="line"/>
			<point x="136" y="172" type="line"/>
			<point x="140" y="608" type="line"/>
			<point x="140" y="722" type="line"/>
			<point x="108" y="722" type="line"/>
			<point x="108" y="608" type="line"/>
		</contour>
		<contour>
			<point x="124" y="-12" type="curve" smooth="yes"/>
			<point x="142" y="-12"/>
			<point x="160" y="2"/>
			<point x="160" y="26" type="curve" smooth="yes"/>
			<point x="160" y="52"/>
			<point x="142" y="66"/>
			<point x="124" y="66" type="curve" smooth="yes"/>
			<point x="106" y="66"/>
			<point x="88" y="52"/>
			<point x="88" y="26" type="curve" smooth="yes"/>
			<point x="88" y="2"/>
			<point x="106" y="-12"/>
		</contour>
		<contour>
			<point name="aboveUC" x="124" y="502" type="move"/>
		</contour>
		<contour>
			<point name="belowLC" x="124" y="-22" type="move"/>
		</contour>
	</outline>
</glyph>
<glyph name="eturned" format="1">
	<unicode hex="01DD"/>
	<advance width="478"/>
	<outline>
		<component base="schwa"/>
		<contour>
			<point name="aboveLC" x="240" y="502" type="move"/>
		</contour>
		<contour>
			<point name="belowLC" x="220" y="-22" type="move"/>
		</contour>
		<contour>
			<point name="ogonekLC" x="220" y="0" type="move"/>
		</contour>
	</outline>
</glyph>
<glyph name="gstroke" format="2">
	<unicode hex="01E5"/>
	<advance width="540"/>
	<outline>
		<contour>
			<point x="278" y="238" type="line"/>
			<point x="536" y="238" type="line"/>
			<point x="536" y="266" type="line"/>
			<point x="414" y="266" type="line"/>
			<point x="278" y="262" type="line"/>
		</contour>
		<component base="gscript"/>
	</outline>
	<anchor name="aboveLC" x="270" y="502"/>
	<anchor name="belowLC" x="270" y="-222"/>
</glyph>
<glyph name="Oogonek" format="1">
	<unicode hex="01EA"/>
	<advance width="648"/>
	<outline>
		<contour>
			<point x="336" y="-214" type="curve" smooth="yes"/>
			<point x="366" y="-214"/>
			<point x="392" y="-200"/>
			<point x="408" y="-186" type="curve"/>
			<point x="394" y="-166" type="line"/>
			<point x="376" y="-180"/>
			<point x="360" y="-186"/>
			<point x="338" y="-186" type="curve" smooth="yes"/>
			<point x="308" y="-186"/>
			<point x="278" y="-168"/>
			<point x="278" y="-126" type="curve" smooth="yes"/>
			<point x="278" y="-92"/>
			<point x="304" y="-32"/>
			<point x="400" y="0" type="curve" smooth="yes"/>
			<point x="500" y="33"/>
			<point x="592" y="138"/>
			<point x="592" y="332" type="curve" smooth="yes"/>
			<point x="592" y="540"/>
			<point x="480" y="672"/>
			<point x="324" y="672" type="curve" smooth="yes"/>
			<point x="168" y="672"/>
			<point x="56" y="540"/>
			<point x="56" y="332" type="curve" smooth="yes"/>
			<point x="56" y="124"/>
			<point x="168" y="-12"/>
			<point x="324" y="-12" type="curve"/>
			<point x="346" y="4" type="line"/>
			<point x="274" y="-30"/>
			<point x="248" y="-90"/>
			<point x="248" y="-128" type="curve" smooth="yes"/>
			<point x="248" y="-188"/>
			<point x="288" y="-214"/>
		</contour>
		<contour>
			<point x="324" y="18" type="curve" smooth="yes"/>
			<point x="184" y="18"/>
			<point x="90" y="142"/>
			<point x="90" y="332" type="curve" smooth="yes"/>
			<point x="90" y="522"/>
			<point x="184" y="642"/>
			<point x="324" y="642" type="curve" smooth="yes"/>
			<point x="464" y="642"/>
			<point x="558" y="522"/>
			<point x="558" y="332" type="curve" smooth="yes"/>
			<point x="558" y="142"/>
			<point x="464" y="18"/>
		</contour>
		<contour>
			<point name="aboveUC" x="322" y="682" type="move"/>
		</contour>
	</outline>
</glyph>
<glyph name="oogonek" format="1">
	<unicode hex="01EB"/>
	<advance width="532"/>
	<outline>
		<contour>
			<point x="294" y="-202" type="curve" smooth="yes"/>
			<point x="314" y="-202"/>
			<point x="340" y="-192"/>
			<point x="354" y="-180" type="curve"/>
			<point x="340" y="-160" type="line"/>
			<point x="326" y="-170"/>
			<point x="314" y="-174"/>
			<point x="296" y="-174" type="curve" smooth="yes"/>
			<point x="270" y="-174"/>
			<point x="246" y="-156"/>
			<point x="246" y="-120" type="curve" smooth="yes"/>
			<point x="246" y="-76"/>
			<point x="278" y="-28"/>
			<point x="322" y="-8" type="curve" smooth="yes"/>
			<point x="414" y="34"/>
			<point x="478" y="100"/>
			<point x="478" y="238" type="curve" smooth="yes"/>
			<point x="478" y="398"/>
			<point x="380" y="490"/>
			<point x="266" y="490" type="curve" smooth="yes"/>
			<point x="152" y="490"/>
			<point x="54" y="398"/>
			<point x="54" y="238" type="curve" smooth="yes"/>
			<point x="54" y="80"/>
			<point x="152" y="-12"/>
			<point x="272" y="-12" type="curve"/>
			<point x="250" y="-30"/>
			<point x="216" y="-72"/>
			<point x="216" y="-122" type="curve" smooth="yes"/>
			<point x="216" y="-176"/>
			<point x="250" y="-202"/>
		</contour>
		<contour>
			<point x="266" y="16" type="curve" smooth="yes"/>
			<point x="164" y="16"/>
			<point x="86" y="106"/>
			<point x="86" y="238" type="curve" smooth="yes"/>
			<point x="86" y="370"/>
			<point x="164" y="462"/>
			<point x="266" y="462" type="curve" smooth="yes"/>
			<point x="368" y="462"/>
			<point x="446" y="370"/>
			<point x="446" y="238" type="curve" smooth="yes"/>
			<point x="446" y="106"/>
			<point x="368" y="16"/>
		</contour>
		<contour>
			<point name="aboveLC" x="266" y="502" type="move"/>
		</contour>
	</outline>
</glyph>
<glyph name="Wynn" format="2">
	<unicode hex="01F7"/>
	<advance width="556"/>
	<outline>
		<contour>
			<point x="100" y="-188" type="line"/>
			<point x="132" y="-188" type="line"/>
			<point x="132" y="-2" type="line"/>
			<point x="406" y="162"/>
			<point x="494" y="322"/>
			<point x="494" y="468" type="curve" smooth="yes"/>
			<point x="494" y="618"/>
			<point x="418" y="672"/>
			<point x="320" y="672" type="curve" smooth="yes"/>
			<point x="246" y="672"/>
			<point x="178" y="620"/>
			<point x="132" y="570" type="curve"/>
			<point x="132" y="660" type="line"/>
			<point x="100" y="660" type="line"/>
		</contour>
		<contour>
			<point x="132" y="32" type="curve"/>
			<point x="132" y="532" type="line"/>
			<point x="176" y="588"/>
			<point x="258" y="642"/>
			<point x="318" y="642" type="curve" smooth="yes"/>
			<point x="398" y="642"/>
			<point x="462" y="602"/>
			<point x="462" y="470" type="curve" smooth="yes"/>
			<point x="462" y="341"/>
			<point x="390" y="192"/>
		</contour>
	</outline>
</glyph>
<glyph name="Yogh" format="2">
	<unicode hex="021C"/>
	<advance width="484"/>
	<outline>
		<contour>
			<point x="112" y="-152" type="line"/>
			<point x="340" y="-50"/>
			<point x="438" y="60"/>
			<point x="438" y="178" type="curve" smooth="yes"/>
			<point x="438" y="284"/>
			<point x="362" y="342"/>
			<point x="244" y="329" type="curve"/>
			<point x="343" y="393"/>
			<point x="396" y="447"/>
			<point x="396" y="528" type="curve" smooth="yes"/>
			<point x="396" y="619"/>
			<point x="338" y="672"/>
			<point x="250" y="672" type="curve" smooth="yes"/>
			<point x="153" y="672"/>
			<point x="98" y="628"/>
			<point x="32" y="554" type="curve"/>
			<point x="52" y="536" type="line"/>
			<point x="120" y="606"/>
			<point x="170" y="642"/>
			<point x="248" y="642" type="curve" smooth="yes"/>
			<point x="318" y="642"/>
			<point x="362" y="600"/>
			<point x="362" y="528" type="curve" smooth="yes"/>
			<point x="362" y="455"/>
			<point x="320" y="400"/>
			<point x="133" y="292" type="curve"/>
			<point x="148" y="270" type="line"/>
			<point x="189" y="296"/>
			<point x="230" y="302"/>
			<point x="268" y="302" type="curve" smooth="yes"/>
			<point x="351" y="302"/>
			<point x="404" y="256"/>
			<point x="404" y="178" type="curve" smooth="yes"/>
			<point x="404" y="85"/>
			<point x="325" y="-24"/>
			<point x="98" y="-126" type="curve"/>
		</contour>
	</outline>
	<anchor name="aboveUC" x="240" y="682"/>
	<anchor name="belowLC" x="240" y="-142"/>
</glyph>
<glyph name="dotlessj" format="2">
	<unicode hex="0237"/>
	<advance width="222"/>
	<outline>
		<contour>
			<point x="28" y="-234" type="curve" smooth="yes"/>
			<point x="94" y="-234"/>
			<point x="126" y="-194"/>
			<point x="126" y="-102" type="curve" smooth="yes"/>
			<point x="126" y="478" type="line"/>
			<point x="96" y="478" type="line"/>
			<point x="96" y="-98" type="line" smooth="yes"/>
			<point x="96" y="-160"/>
			<point x="86" y="-206"/>
			<point x="30" y="-206" type="curve" smooth="yes"/>
			<point x="12" y="-206"/>
			<point x="-10" y="-200"/>
			<point x="-22" y="-196" type="curve"/>
			<point x="-30" y="-220" type="line"/>
			<point x="-16" y="-228"/>
			<point x="10" y="-234"/>
		</contour>
	</outline>
	<anchor name="aboveLC" x="112" y="502"/>
	<anchor name="belowLC" x="50" y="-222"/>
</glyph>
<glyph name="Astroke" format="2">
	<unicode hex="023A"/>
	<advance width="520"/>
	<outline>
		<contour>
			<point x="150" y="-20" type="line"/>
			<point x="392" y="674" type="line"/>
			<point x="366" y="680" type="line"/>
			<point x="124" y="-14" type="line"/>
		</contour>
		<component base="A"/>
	</outline>
	<anchor name="aboveUC" x="260" y="682"/>
	<anchor name="belowLC" x="260" y="-22"/>
	<anchor name="ogonekUC" x="476" y="0"/>
</glyph>
<glyph name="cstroke" format="2">
	<unicode hex="023C"/>
	<advance width="446"/>
	<outline>
		<contour>
			<point x="128" y="-22" type="line"/>
			<point x="406" y="486" type="line"/>
			<point x="382" y="498" type="line"/>
			<point x="104" y="-10" type="line"/>
		</contour>
		<component base="c"/>
	</outline>
	<anchor name="aboveLC" x="270" y="502"/>
	<anchor name="belowLC" x="270" y="-22"/>
</glyph>
<glyph name="Tstroke" format="2">
	<unicode hex="023E"/>
	<advance width="520"/>
	<outline>
		<contour>
			<point x="46" y="-20" type="line"/>
			<point x="510" y="686" type="line"/>
			<point x="488" y="700" type="line"/>
			<point x="24" y="-6" type="line"/>
		</contour>
		<component base="T"/>
	</outline>
	<anchor name="aboveUC" x="260" y="682"/>
	<anchor name="belowLC" x="260" y="-22"/>
</glyph>
<glyph name="Glottalstop" format="1">
	<unicode hex="0241"/>
	<advance width="442"/>
	<outline>
		<contour>
			<point x="184" y="0" type="line"/>
			<point x="216" y="0" type="line"/>
			<point x="216" y="258" type="line"/>
			<point x="345" y="308"/>
			<point x="418" y="382"/>
			<point x="418" y="492" type="curve" smooth="yes"/>
			<point x="418" y="608"/>
			<point x="328" y="672"/>
			<point x="210" y="672" type="curve" smooth="yes"/>
			<point x="112" y="672"/>
			<point x="42" y="628"/>
			<point x="0" y="586" type="curve"/>
			<point x="22" y="564" type="line"/>
			<point x="62" y="604"/>
			<point x="128" y="642"/>
			<point x="212" y="642" type="curve" smooth="yes"/>
			<point x="322" y="642"/>
			<point x="384" y="582"/>
			<point x="384" y="494" type="curve" smooth="yes"/>
			<point x="384" y="400"/>
			<point x="330" y="330"/>
			<point x="184" y="278" type="curve"/>
		</contour>
		<contour>
			<point name="aboveUC" x="220" y="682" type="move"/>
		</contour>
		<contour>
			<point name="belowLC" x="200" y="-22" type="move"/>
		</contour>
	</outline>
</glyph>
<glyph name="Ubar" format="2">
	<unicode hex="0244"/>
	<advance width="668"/>
	<outline>
		<contour>
			<point x="38" y="338" type="line"/>
			<point x="630" y="338" type="line"/>
			<point x="630" y="366" type="line"/>
			<point x="122" y="366" type="line"/>
			<point x="38" y="362" type="line"/>
		</contour>
		<component base="U" xOffset="20"/>
	</outline>
	<anchor name="aboveUC" x="334" y="682"/>
	<anchor name="belowLC" x="334" y="-22"/>
</glyph>
<glyph name="Jstroke" format="2">
	<unicode hex="0248"/>
	<advance width="476"/>
	<outline>
		<contour>
			<point x="174" y="338" type="line"/>
			<point x="450" y="338" type="line"/>
			<point x="450" y="366" type="line"/>
			<point x="258" y="366" type="line"/>
			<point x="174" y="362" type="line"/>
		</contour>
		<component base="J"/>
	</outline>
	<anchor name="aboveUC" x="338" y="682"/>
	<anchor name="belowLC" x="240" y="-22"/>
</glyph>
<glyph name="alphalatin" format="1">
	<unicode hex="0251"/>
	<advance width="548"/>
	<outline>
		<contour>
			<point x="252" y="-12" type="curve" smooth="yes"/>
			<point x="318" y="-12"/>
			<point x="372" y="24"/>
			<point x="412" y="64" type="curve"/>
			<point x="414" y="64" type="line"/>
			<point x="414" y="4"/>
			<point x="432" y="-12"/>
			<point x="462" y="-12" type="curve" smooth="yes"/>
			<point x="474" y="-12"/>
			<point x="480" y="-10"/>
			<point x="488" y="-8" type="curve"/>
			<point x="482" y="18" type="line"/>
			<point x="472" y="16"/>
			<point x="468" y="16"/>
			<point x="464" y="16" type="curve" smooth="yes"/>
			<point x="452" y="16"/>
			<point x="444" y="26"/>
			<point x="444" y="46" type="curve" smooth="yes"/>
			<point x="444" y="478" type="line"/>
			<point x="416" y="478" type="line"/>
			<point x="414" y="432" type="line"/>
			<point x="412" y="432" type="line"/>
			<point x="366" y="468"/>
			<point x="326" y="490"/>
			<point x="268" y="490" type="curve" smooth="yes"/>
			<point x="152" y="490"/>
			<point x="54" y="392"/>
			<point x="54" y="238" type="curve" smooth="yes"/>
			<point x="54" y="76"/>
			<point x="132" y="-12"/>
		</contour>
		<contour>
			<point x="254" y="16" type="curve" smooth="yes"/>
			<point x="146" y="16"/>
			<point x="86" y="106"/>
			<point x="86" y="238" type="curve" smooth="yes"/>
			<point x="86" y="362"/>
			<point x="164" y="462"/>
			<point x="266" y="462" type="curve" smooth="yes"/>
			<point x="316" y="462"/>
			<point x="360" y="444"/>
			<point x="414" y="396" type="curve"/>
			<point x="414" y="100" type="line"/>
			<point x="360" y="46"/>
			<point x="310" y="16"/>
		</contour>
		<contour>
			<point name="aboveLC" x="270" y="502" type="move"/>
		</contour>
		<contour>
			<point name="belowLC" x="270" y="-22" type="move"/>
		</contour>
		<contour>
			<point name="baseLC" x="270" y="0" type="move"/>
		</contour>
	</outline>
</glyph>
<glyph name="alphalatinturned" format="1">
	<unicode hex="0252"/>
	<advance width="548"/>
	<outline>
		<contour>
			<point x="282" y="-12" type="curve" smooth="yes"/>
			<point x="396" y="-12"/>
			<point x="494" y="84"/>
			<point x="494" y="246" type="curve" smooth="yes"/>
			<point x="494" y="394"/>
			<point x="432" y="490"/>
			<point x="302" y="490" type="curve" smooth="yes"/>
			<point x="242" y="490"/>
			<point x="184" y="454"/>
			<point x="136" y="414" type="curve"/>
			<point x="134" y="414" type="line"/>
			<point x="134" y="474"/>
			<point x="116" y="490"/>
			<point x="86" y="490" type="curve" smooth="yes"/>
			<point x="74" y="490"/>
			<point x="68" y="488"/>
			<point x="60" y="486" type="curve"/>
			<point x="66" y="460" type="line"/>
			<point x="76" y="462"/>
			<point x="80" y="462"/>
			<point x="84" y="462" type="curve" smooth="yes"/>
			<point x="96" y="462"/>
			<point x="104" y="452"/>
			<point x="104" y="432" type="curve" smooth="yes"/>
			<point x="104" y="0" type="line"/>
			<point x="132" y="0" type="line"/>
			<point x="134" y="46" type="line"/>
			<point x="136" y="46" type="line"/>
			<point x="186" y="10"/>
			<point x="236" y="-12"/>
		</contour>
		<contour>
			<point x="284" y="16" type="curve" smooth="yes"/>
			<point x="246" y="16"/>
			<point x="192" y="34"/>
			<point x="134" y="82" type="curve"/>
			<point x="134" y="378" type="line"/>
			<point x="196" y="432"/>
			<point x="250" y="462"/>
			<point x="300" y="462" type="curve" smooth="yes"/>
			<point x="418" y="462"/>
			<point x="462" y="368"/>
			<point x="462" y="246" type="curve" smooth="yes"/>
			<point x="462" y="112"/>
			<point x="388" y="16"/>
		</contour>
		<contour>
			<point name="aboveLC" x="300" y="502" type="move"/>
		</contour>
		<contour>
			<point name="belowLC" x="290" y="-22" type="move"/>
		</contour>
	</outline>
</glyph>
<glyph name="ccurl" format="1">
	<unicode hex="0255"/>
	<advance width="446"/>
	<outline>
		<contour>
			<point x="112" y="-66" type="line"/>
			<point x="150" y="50"/>
			<point x="256" y="134"/>
			<point x="340" y="134" type="curve" smooth="yes"/>
			<point x="374" y="134"/>
			<point x="392" y="114"/>
			<point x="392" y="90" type="curve" smooth="yes"/>
			<point x="392" y="44"/>
			<point x="331" y="16"/>
			<point x="284" y="16" type="curve" smooth="yes"/>
			<point x="170" y="16"/>
			<point x="86" y="106"/>
			<point x="86" y="238" type="curve" smooth="yes"/>
			<point x="86" y="370"/>
			<point x="166" y="462"/>
			<point x="268" y="462" type="curve" smooth="yes"/>
			<point x="318" y="462"/>
			<point x="356" y="438"/>
			<point x="388" y="408" type="curve"/>
			<point x="408" y="430" type="line"/>
			<point x="376" y="460"/>
			<point x="334" y="490"/>
			<point x="268" y="490" type="curve" smooth="yes"/>
			<point x="154" y="490"/>
			<point x="54" y="398"/>
			<point x="54" y="238" type="curve" smooth="yes"/>
			<point x="54" y="80"/>
			<point x="158" y="-12"/>
			<point x="284" y="-12" type="curve" smooth="yes"/>
			<point x="357" y="-12"/>
			<point x="424" y="30"/>
			<point x="424" y="94" type="curve" smooth="yes"/>
			<point x="424" y="130"/>
			<point x="400" y="162"/>
			<point x="340" y="162" type="curve" smooth="yes"/>
			<point x="237" y="162"/>
			<point x="136" y="76"/>
			<point x="84" y="-56" type="curve"/>
		</contour>
		<contour>
			<point name="aboveLC" x="270" y="502" type="move"/>
		</contour>
		<contour>
			<point name="belowLC" x="290" y="-22" type="move"/>
		</contour>
	</outline>
</glyph>
<glyph name="ereversed" format="1">
	<unicode hex="0258"/>
	<advance width="478"/>
	<outline>
		<contour>
			<point x="210" y="-12" type="curve" smooth="yes"/>
			<point x="334" y="-12"/>
			<point x="424" y="82"/>
			<point x="424" y="238" type="curve" smooth="yes"/>
			<point x="424" y="394"/>
			<point x="342" y="490"/>
			<point x="228" y="490" type="curve" smooth="yes"/>
			<point x="118" y="490"/>
			<point x="38" y="412"/>
			<point x="38" y="270" type="curve" smooth="yes"/>
			<point x="38" y="260"/>
			<point x="38" y="250"/>
			<point x="40" y="238" type="curve"/>
			<point x="392" y="238" type="line"/>
			<point x="392" y="110"/>
			<point x="326" y="16"/>
			<point x="208" y="16" type="curve" smooth="yes"/>
			<point x="154" y="16"/>
			<point x="106" y="30"/>
			<point x="72" y="56" type="curve"/>
			<point x="58" y="34" type="line"/>
			<point x="94" y="8"/>
			<point x="138" y="-12"/>
		</contour>
		<contour>
			<point x="68" y="266" type="line"/>
			<point x="68" y="398"/>
			<point x="138" y="462"/>
			<point x="228" y="462" type="curve" smooth="yes"/>
			<point x="322" y="462"/>
			<point x="382" y="388"/>
			<point x="392" y="266" type="curve"/>
		</contour>
		<contour>
			<point name="aboveLC" x="230" y="502" type="move"/>
		</contour>
		<contour>
			<point name="belowLC" x="230" y="-22" type="move"/>
		</contour>
		<contour>
			<point name="ogonekLC" x="229" y="0" type="move"/>
		</contour>
	</outline>
</glyph>
<glyph name="schwa" format="1">
	<unicode hex="0259"/>
	<advance width="478"/>
	<outline>
		<contour>
			<point x="228" y="-12" type="curve" smooth="yes"/>
			<point x="342" y="-12"/>
			<point x="424" y="84"/>
			<point x="424" y="240" type="curve" smooth="yes"/>
			<point x="424" y="400"/>
			<point x="340" y="490"/>
			<point x="224" y="490" type="curve" smooth="yes"/>
			<point x="152" y="490"/>
			<point x="108" y="468"/>
			<point x="68" y="438" type="curve"/>
			<point x="82" y="416" type="line"/>
			<point x="120" y="444"/>
			<point x="164" y="462"/>
			<point x="222" y="462" type="curve" smooth="yes"/>
			<point x="330" y="462"/>
			<point x="392" y="370"/>
			<point x="392" y="252" type="curve"/>
			<point x="40" y="252" type="line"/>
			<point x="38" y="240"/>
			<point x="38" y="228"/>
			<point x="38" y="218" type="curve" smooth="yes"/>
			<point x="38" y="66"/>
			<point x="120" y="-12"/>
		</contour>
		<contour>
			<point x="228" y="16" type="curve" smooth="yes"/>
			<point x="136" y="16"/>
			<point x="68" y="80"/>
			<point x="68" y="224" type="curve"/>
			<point x="392" y="224" type="line"/>
			<point x="383" y="96"/>
			<point x="324" y="16"/>
		</contour>
		<contour>
			<point name="aboveLC" x="240" y="502" type="move"/>
		</contour>
		<contour>
			<point name="belowLC" x="220" y="-22" type="move"/>
		</contour>
		<contour>
			<point name="ogonekLC" x="220" y="0" type="move"/>
		</contour>
	</outline>
</glyph>
<glyph name="schwahookrhotic" format="1">
	<unicode hex="025A"/>
	<advance width="620"/>
	<outline>
		<contour>
			<point x="230" y="-12" type="curve" smooth="yes"/>
			<point x="353" y="-12"/>
			<point x="424" y="102"/>
			<point x="424" y="240" type="curve" smooth="yes"/>
			<point x="424" y="408"/>
			<point x="334" y="490"/>
			<point x="222" y="490" type="curve" smooth="yes"/>
			<point x="152" y="490"/>
			<point x="106" y="466"/>
			<point x="68" y="440" type="curve"/>
			<point x="82" y="414" type="line"/>
			<point x="120" y="442"/>
			<point x="164" y="462"/>
			<point x="222" y="462" type="curve" smooth="yes"/>
			<point x="314" y="462"/>
			<point x="392" y="392"/>
			<point x="392" y="238" type="curve" smooth="yes"/>
			<point x="392" y="119"/>
			<point x="334" y="16"/>
			<point x="230" y="16" type="curve" smooth="yes"/>
			<point x="138" y="16"/>
			<point x="86" y="72"/>
			<point x="70" y="166" type="curve"/>
			<point x="506" y="328" type="line"/>
			<point x="506" y="304" type="line" smooth="yes"/>
			<point x="506" y="222"/>
			<point x="540" y="194"/>
			<point x="582" y="194" type="curve" smooth="yes"/>
			<point x="608" y="194"/>
			<point x="626" y="206"/>
			<point x="640" y="216" type="curve"/>
			<point x="624" y="238" type="line"/>
			<point x="616" y="230"/>
			<point x="602" y="222"/>
			<point x="586" y="222" type="curve" smooth="yes"/>
			<point x="552" y="222"/>
			<point x="534" y="242"/>
			<point x="534" y="318" type="curve" smooth="yes"/>
			<point x="534" y="330"/>
			<point x="534" y="340"/>
			<point x="536" y="358" type="curve"/>
			<point x="526" y="364" type="line"/>
			<point x="38" y="182" type="line"/>
			<point x="50" y="70"/>
			<point x="112" y="-12"/>
		</contour>
		<contour>
			<point name="aboveLC" x="220" y="502" type="move"/>
		</contour>
		<contour>
			<point name="belowLC" x="260" y="-22" type="move"/>
		</contour>
	</outline>
</glyph>
<glyph name="eopen" format="1">
	<unicode hex="025B"/>
	<advance width="422"/>
	<outline>
		<contour>
			<point x="234" y="-12" type="curve" smooth="yes"/>
			<point x="302" y="-12"/>
			<point x="348" y="4"/>
			<point x="400" y="47" type="curve"/>
			<point x="384" y="66" type="line"/>
			<point x="336" y="28"/>
			<point x="294" y="16"/>
			<point x="238" y="16" type="curve" smooth="yes"/>
			<point x="148" y="16"/>
			<point x="86" y="60"/>
			<point x="86" y="129" type="curve" smooth="yes"/>
			<point x="86" y="197"/>
			<point x="146" y="238"/>
			<point x="248" y="238" type="curve"/>
			<point x="306" y="238" type="line"/>
			<point x="306" y="266" type="line"/>
			<point x="262" y="266" type="line"/>
			<point x="159" y="266"/>
			<point x="114" y="310"/>
			<point x="114" y="366" type="curve" smooth="yes"/>
			<point x="114" y="432"/>
			<point x="171" y="462"/>
			<point x="236" y="462" type="curve" smooth="yes"/>
			<point x="284" y="462"/>
			<point x="322" y="448"/>
			<point x="360" y="418" type="curve"/>
			<point x="376" y="439" type="line"/>
			<point x="338" y="470"/>
			<point x="296" y="490"/>
			<point x="238" y="490" type="curve" smooth="yes"/>
			<point x="154" y="490"/>
			<point x="82" y="448"/>
			<point x="82" y="368" type="curve" smooth="yes"/>
			<point x="82" y="318"/>
			<point x="114" y="276"/>
			<point x="164" y="256" type="curve"/>
			<point x="164" y="252" type="line"/>
			<point x="112" y="238"/>
			<point x="54" y="200"/>
			<point x="54" y="128" type="curve" smooth="yes"/>
			<point x="54" y="46"/>
			<point x="126" y="-12"/>
		</contour>
		<contour>
			<point name="aboveLC" x="240" y="502" type="move"/>
		</contour>
		<contour>
			<point name="baseLC" x="240" y="0" type="move"/>
		</contour>
		<contour>
			<point name="belowLC" x="240" y="-22" type="move"/>
		</contour>
	</outline>
</glyph>
<glyph name="eopenreversed" format="1">
	<unicode hex="025C"/>
	<advance width="440"/>
	<outline>
		<contour>
			<point x="206" y="-12" type="curve" smooth="yes"/>
			<point x="314" y="-12"/>
			<point x="386" y="48"/>
			<point x="386" y="132" type="curve" smooth="yes"/>
			<point x="386" y="202"/>
			<point x="328" y="238"/>
			<point x="276" y="252" type="curve"/>
			<point x="276" y="256" type="line"/>
			<point x="326" y="276"/>
			<point x="358" y="320"/>
			<point x="358" y="372" type="curve" smooth="yes"/>
			<point x="358" y="448"/>
			<point x="290" y="490"/>
			<point x="210" y="490" type="curve" smooth="yes"/>
			<point x="150" y="490"/>
			<point x="104" y="472"/>
			<point x="64" y="439" type="curve"/>
			<point x="80" y="418" type="line"/>
			<point x="122" y="450"/>
			<point x="162" y="462"/>
			<point x="212" y="462" type="curve" smooth="yes"/>
			<point x="274" y="462"/>
			<point x="326" y="432"/>
			<point x="326" y="370" type="curve" smooth="yes"/>
			<point x="326" y="312"/>
			<point x="281" y="266"/>
			<point x="178" y="266" type="curve"/>
			<point x="134" y="266" type="line"/>
			<point x="134" y="238" type="line"/>
			<point x="192" y="238" type="line"/>
			<point x="294" y="238"/>
			<point x="354" y="198"/>
			<point x="354" y="133" type="curve" smooth="yes"/>
			<point x="354" y="62"/>
			<point x="292" y="16"/>
			<point x="202" y="16" type="curve" smooth="yes"/>
			<point x="146" y="16"/>
			<point x="104" y="28"/>
			<point x="56" y="66" type="curve"/>
			<point x="40" y="47" type="line"/>
			<point x="92" y="4"/>
			<point x="138" y="-12"/>
		</contour>
		<contour>
			<point name="aboveLC" x="212" y="502" type="move"/>
		</contour>
		<contour>
			<point name="belowLC" x="216" y="-22" type="move"/>
		</contour>
	</outline>
</glyph>
<glyph name="eopenreversedclosed" format="1">
	<unicode hex="025E"/>
	<advance width="530"/>
	<outline>
		<contour>
			<point x="296" y="-12" type="curve" smooth="yes"/>
			<point x="406" y="-12"/>
			<point x="476" y="46"/>
			<point x="476" y="128" type="curve" smooth="yes"/>
			<point x="476" y="200"/>
			<point x="418" y="238"/>
			<point x="366" y="252" type="curve"/>
			<point x="366" y="256" type="line"/>
			<point x="416" y="276"/>
			<point x="448" y="318"/>
			<point x="448" y="368" type="curve" smooth="yes"/>
			<point x="448" y="448"/>
			<point x="381" y="490"/>
			<point x="292" y="490" type="curve" smooth="yes"/>
			<point x="156" y="490"/>
			<point x="54" y="398"/>
			<point x="54" y="228" type="curve" smooth="yes"/>
			<point x="54" y="74"/>
			<point x="158" y="-12"/>
		</contour>
		<contour>
			<point x="294" y="16" type="curve" smooth="yes"/>
			<point x="168" y="16"/>
			<point x="86" y="100"/>
			<point x="86" y="228" type="curve" smooth="yes"/>
			<point x="86" y="368"/>
			<point x="168" y="462"/>
			<point x="292" y="462" type="curve" smooth="yes"/>
			<point x="363" y="462"/>
			<point x="416" y="432"/>
			<point x="416" y="366" type="curve" smooth="yes"/>
			<point x="416" y="310"/>
			<point x="371" y="266"/>
			<point x="268" y="266" type="curve" smooth="yes"/>
			<point x="244" y="266" type="line"/>
			<point x="244" y="238" type="line"/>
			<point x="282" y="238" type="line" smooth="yes"/>
			<point x="384" y="238"/>
			<point x="444" y="197"/>
			<point x="444" y="129" type="curve" smooth="yes"/>
			<point x="444" y="60"/>
			<point x="386" y="16"/>
		</contour>
		<contour>
			<point name="aboveLC" x="290" y="502" type="move"/>
		</contour>
		<contour>
			<point name="belowLC" x="270" y="-22" type="move"/>
		</contour>
	</outline>
</glyph>
<glyph name="dotlessjstroke" format="1">
	<unicode hex="025F"/>
	<advance width="230"/>
	<outline>
		<contour>
			<point x="4" y="238" type="line"/>
			<point x="222" y="238" type="line"/>
			<point x="222" y="266" type="line"/>
			<point x="100" y="266" type="line"/>
			<point x="4" y="262" type="line"/>
		</contour>
		<component base="dotlessj" xOffset="4"/>
		<contour>
			<point name="aboveLC" x="116" y="502" type="move"/>
		</contour>
		<contour>
			<point name="belowLC" x="115" y="-120" type="move"/>
		</contour>
	</outline>
</glyph>
<glyph name="gammalatin" format="1">
	<unicode hex="0263"/>
	<advance width="422"/>
	<outline>
		<contour>
			<point x="212" y="-234" type="curve" smooth="yes"/>
			<point x="268" y="-234"/>
			<point x="294" y="-196"/>
			<point x="294" y="-142" type="curve" smooth="yes"/>
			<point x="294" y="-96"/>
			<point x="266" y="-36"/>
			<point x="224" y="47" type="curve"/>
			<point x="224" y="4" type="line"/>
			<point x="410" y="478" type="line"/>
			<point x="378" y="478" type="line"/>
			<point x="264" y="178" type="line"/>
			<point x="248" y="131"/>
			<point x="230" y="94"/>
			<point x="214" y="50" type="curve"/>
			<point x="210" y="50" type="line"/>
			<point x="194" y="94"/>
			<point x="176" y="131"/>
			<point x="160" y="178" type="curve"/>
			<point x="46" y="478" type="line"/>
			<point x="12" y="478" type="line"/>
			<point x="200" y="4" type="line"/>
			<point x="200" y="48" type="line"/>
			<point x="158" y="-36"/>
			<point x="130" y="-96"/>
			<point x="130" y="-142" type="curve" smooth="yes"/>
			<point x="130" y="-196"/>
			<point x="156" y="-234"/>
		</contour>
		<contour>
			<point x="212" y="-206" type="curve" smooth="yes"/>
			<point x="176" y="-206"/>
			<point x="162" y="-178"/>
			<point x="162" y="-144" type="curve" smooth="yes"/>
			<point x="162" y="-102"/>
			<point x="180" y="-50"/>
			<point x="210" y="2" type="curve"/>
			<point x="214" y="2" type="line"/>
			<point x="244" y="-50"/>
			<point x="262" y="-102"/>
			<point x="262" y="-144" type="curve" smooth="yes"/>
			<point x="262" y="-178"/>
			<point x="248" y="-206"/>
		</contour>
		<contour>
			<point name="aboveLC" x="212" y="502" type="move"/>
		</contour>
		<contour>
			<point name="belowLC" x="212" y="-22" type="move"/>
		</contour>
	</outline>
</glyph>
<glyph name="henghook" format="1">
  <advance width="522"/>
  <unicode hex="0267"/>
  <outline>
    <contour>
      <point x="340" y="-180" type="curve" smooth="yes"/>
      <point x="406" y="-180"/>
      <point x="438" y="-140"/>
      <point x="438" y="-48" type="curve" smooth="yes"/>
      <point x="438" y="308" type="line" smooth="yes"/>
      <point x="438" y="432"/>
      <point x="392" y="490"/>
      <point x="294" y="490" type="curve" smooth="yes"/>
      <point x="228" y="490"/>
      <point x="178" y="452"/>
      <point x="126" y="400" type="curve"/>
      <point x="126" y="562" type="line" smooth="yes"/>
      <point x="126" y="646"/>
      <point x="158" y="706"/>
      <point x="234" y="706" type="curve" smooth="yes"/>
      <point x="252" y="706"/>
      <point x="272" y="702"/>
      <point x="292" y="692" type="curve"/>
      <point x="304" y="718" type="line"/>
      <point x="282" y="728"/>
      <point x="256" y="734"/>
      <point x="236" y="734" type="curve" smooth="yes"/>
      <point x="150" y="734"/>
      <point x="96" y="674"/>
      <point x="96" y="566" type="curve" smooth="yes"/>
      <point x="96" y="0" type="line"/>
      <point x="126" y="0" type="line"/>
      <point x="126" y="366" type="line"/>
      <point x="188" y="430"/>
      <point x="232" y="462"/>
      <point x="292" y="462" type="curve" smooth="yes"/>
      <point x="374" y="462"/>
      <point x="408" y="410"/>
      <point x="408" y="304" type="curve" smooth="yes"/>
      <point x="408" y="-44" type="line"/>
      <point x="408" y="-106"/>
      <point x="398" y="-152"/>
      <point x="342" y="-152" type="curve" smooth="yes"/>
      <point x="322" y="-152"/>
      <point x="302" y="-146"/>
      <point x="290" y="-142" type="curve"/>
      <point x="282" y="-168" type="line"/>
      <point x="296" y="-174"/>
      <point x="320" y="-180"/>
    </contour>
  </outline>
</glyph>
<glyph name="iotalatin" format="2">
	<unicode hex="0269"/>
	<advance width="230"/>
	<outline>
		<contour>
			<point x="144" y="-8" type="curve" smooth="yes"/>
			<point x="154" y="-8"/>
			<point x="166" y="-4"/>
			<point x="170" y="-2" type="curve"/>
			<point x="164" y="22" type="line"/>
			<point x="156" y="20"/>
			<point x="152" y="20"/>
			<point x="148" y="20" type="curve" smooth="yes"/>
			<point x="134" y="20"/>
			<point x="126" y="30"/>
			<point x="126" y="50" type="curve" smooth="yes"/>
			<point x="126" y="478" type="line"/>
			<point x="96" y="478" type="line"/>
			<point x="96" y="56" type="line" smooth="yes"/>
			<point x="96" y="10"/>
			<point x="114" y="-8"/>
		</contour>
	</outline>
	<anchor name="aboveLC" x="110" y="502"/>
	<anchor name="belowLC" x="130" y="-22"/>
</glyph>
<glyph name="lmiddletilde" format="1">
	<unicode hex="026B"/>
	<advance width="292"/>
	<outline>
		<component base="l" xOffset="32"/>
		<component base="tildeoverlaycmb" xOffset="146" yOffset="140"/>
		<contour>
			<point name="belowLC" x="160" y="-20" type="move"/>
		</contour>
		<contour>
			<point name="aboveUC" x="140" y="730" type="move"/>
		</contour>
	</outline>
</glyph>
<glyph name="lbelt" format="1">
	<unicode hex="026C"/>
	<advance width="252"/>
	<outline>
		<contour>
			<point x="108" y="340" type="curve" smooth="yes"/>
			<point x="252" y="340" type="line"/>
			<point x="252" y="368" type="line"/>
			<point x="102" y="368" type="line" smooth="yes"/>
			<point x="52" y="368"/>
			<point x="30" y="388"/>
			<point x="30" y="412" type="curve" smooth="yes"/>
			<point x="30" y="432"/>
			<point x="41" y="450"/>
			<point x="68" y="450" type="curve" smooth="yes"/>
			<point x="102" y="450"/>
			<point x="120" y="424"/>
			<point x="120" y="378" type="curve"/>
			<point x="140" y="370" type="line"/>
			<point x="140" y="428"/>
			<point x="120" y="478"/>
			<point x="64" y="478" type="curve" smooth="yes"/>
			<point x="24" y="478"/>
			<point x="-2" y="450"/>
			<point x="-2" y="414" type="curve" smooth="yes"/>
			<point x="-2" y="371"/>
			<point x="34" y="340"/>
		</contour>
		<component base="l.a" xOffset="24"/>
		<contour>
			<point name="aboveUC" x="130" y="730" type="move"/>
		</contour>
		<contour>
			<point name="belowLC" x="150" y="-22" type="move"/>
		</contour>
	</outline>
</glyph>
<glyph name="lretroflex" format="1">
	<unicode hex="026D"/>
	<advance width="230"/>
	<outline>
		<contour>
			<point x="184" y="-234" type="curve" smooth="yes"/>
			<point x="200" y="-234"/>
			<point x="222" y="-228"/>
			<point x="232" y="-222" type="curve"/>
			<point x="224" y="-196" type="line"/>
			<point x="214" y="-200"/>
			<point x="198" y="-206"/>
			<point x="182" y="-206" type="curve" smooth="yes"/>
			<point x="138" y="-206"/>
			<point x="126" y="-164"/>
			<point x="126" y="-104" type="curve"/>
			<point x="126" y="722" type="line"/>
			<point x="96" y="722" type="line"/>
			<point x="96" y="-108" type="line" smooth="yes"/>
			<point x="96" y="-198"/>
			<point x="124" y="-234"/>
		</contour>
	</outline>
</glyph>
<glyph name="lezh" format="1">
  <advance width="526"/>
  <unicode hex="026E"/>
  <outline>
    <contour>
      <point x="119" y="450" type="line"/>
      <point x="204" y="450" type="line"/>
      <point x="204" y="478" type="line"/>
      <point x="119" y="478" type="line"/>
    </contour>
    <component base="l.alt"/>
    <component base="ezh" xOffset="130"/>
  </outline>
</glyph>
<glyph name="Rsmallinverted" format="1">
	<unicode hex="0281"/>
	<advance width="466"/>
	<outline>
		<contour>
			<point x="242" y="0" type="line" smooth="yes"/>
			<point x="340" y="0"/>
			<point x="409" y="36"/>
			<point x="409" y="130" type="curve" smooth="yes"/>
			<point x="409" y="224"/>
			<point x="338" y="266"/>
			<point x="250" y="266" type="curve"/>
			<point x="126" y="266" type="line"/>
			<point x="126" y="478" type="line"/>
			<point x="96" y="478" type="line"/>
			<point x="96" y="0" type="line"/>
		</contour>
		<contour>
			<point x="232" y="28" type="curve" smooth="yes"/>
			<point x="126" y="28" type="line"/>
			<point x="126" y="238" type="line"/>
			<point x="232" y="238" type="line" smooth="yes"/>
			<point x="321" y="238"/>
			<point x="377" y="201"/>
			<point x="377" y="130" type="curve" smooth="yes"/>
			<point x="377" y="59"/>
			<point x="321" y="28"/>
		</contour>
		<contour>
			<point x="268" y="252" type="line"/>
			<point x="420" y="478" type="line"/>
			<point x="386" y="478" type="line"/>
			<point x="244" y="264" type="line"/>
		</contour>
		<contour>
			<point name="aboveLC" x="250" y="502" type="move"/>
		</contour>
		<contour>
			<point name="belowLC" x="230" y="-22" type="move"/>
		</contour>
	</outline>
</glyph>
<glyph name="shook" format="1">
	<unicode hex="0282"/>
	<advance width="400"/>
	<outline>
		<contour>
			<point x="132" y="-234" type="curve" smooth="yes"/>
			<point x="152" y="-234"/>
			<point x="176" y="-228"/>
			<point x="190" y="-222" type="curve"/>
			<point x="182" y="-196" type="line"/>
			<point x="170" y="-200"/>
			<point x="150" y="-206"/>
			<point x="130" y="-206" type="curve" smooth="yes"/>
			<point x="74" y="-206"/>
			<point x="64" y="-160"/>
			<point x="64" y="-98" type="curve" smooth="yes"/>
			<point x="64" y="70" type="line"/>
			<point x="34" y="94" type="line"/>
			<point x="34" y="-102" type="line" smooth="yes"/>
			<point x="34" y="-194"/>
			<point x="66" y="-234"/>
		</contour>
		<component base="s"/>
		<contour>
			<point name="aboveLC" x="200" y="502" type="move"/>
		</contour>
		<contour>
			<point name="belowLC" x="230" y="-218" type="move"/>
		</contour>
	</outline>
</glyph>
<glyph name="esh" format="1">
	<unicode hex="0283"/>
	<advance width="222"/>
	<outline>
		<contour>
			<point x="28" y="-234" type="curve" smooth="yes"/>
			<point x="94" y="-234"/>
			<point x="126" y="-194"/>
			<point x="126" y="-102" type="curve" smooth="yes"/>
			<point x="126" y="600" type="line" smooth="yes"/>
			<point x="126" y="662"/>
			<point x="138" y="708"/>
			<point x="202" y="708" type="curve" smooth="yes"/>
			<point x="218" y="708"/>
			<point x="234" y="702"/>
			<point x="244" y="698" type="curve"/>
			<point x="252" y="724" type="line"/>
			<point x="240" y="730"/>
			<point x="221" y="736"/>
			<point x="204" y="736" type="curve" smooth="yes"/>
			<point x="131" y="736"/>
			<point x="96" y="696"/>
			<point x="96" y="604" type="curve" smooth="yes"/>
			<point x="96" y="-98" type="line"/>
			<point x="96" y="-160"/>
			<point x="86" y="-206"/>
			<point x="30" y="-206" type="curve" smooth="yes"/>
			<point x="10" y="-206"/>
			<point x="-10" y="-200"/>
			<point x="-22" y="-196" type="curve"/>
			<point x="-30" y="-222" type="line"/>
			<point x="-16" y="-228"/>
			<point x="8" y="-234"/>
		</contour>
	</outline>
</glyph>
<glyph name="tretroflex" format="2">
	<unicode hex="0288"/>
	<advance width="302"/>
	<outline>
		<contour>
			<point x="218" y="-234" type="curve" smooth="yes"/>
			<point x="234" y="-234"/>
			<point x="264" y="-226"/>
			<point x="292" y="-216" type="curve"/>
			<point x="282" y="-190" type="line"/>
			<point x="264" y="-198"/>
			<point x="238" y="-206"/>
			<point x="220" y="-206" type="curve" smooth="yes"/>
			<point x="150" y="-206"/>
			<point x="136" y="-162"/>
			<point x="136" y="-100" type="curve" smooth="yes"/>
			<point x="136" y="450" type="line"/>
			<point x="278" y="450" type="line"/>
			<point x="278" y="478" type="line"/>
			<point x="136" y="478" type="line"/>
			<point x="136" y="638" type="line"/>
			<point x="110" y="638" type="line"/>
			<point x="106" y="478" type="line"/>
			<point x="30" y="474" type="line"/>
			<point x="30" y="450" type="line"/>
			<point x="106" y="450" type="line"/>
			<point x="106" y="-96" type="line" smooth="yes"/>
			<point x="106" y="-178"/>
			<point x="130" y="-234"/>
		</contour>
	</outline>
	<anchor name="aboveLC" x="124" y="632"/>
	<anchor name="belowLC" x="200" y="-222"/>
</glyph>
<glyph name="ubar" format="1">
	<unicode hex="0289"/>
	<advance width="540"/>
	<outline>
		<contour>
			<point x="4" y="258" type="line"/>
			<point x="532" y="258" type="line"/>
			<point x="532" y="286" type="line"/>
			<point x="100" y="286" type="line"/>
			<point x="4" y="282" type="line"/>
		</contour>
		<component base="u" xOffset="12"/>
		<contour>
			<point name="aboveLC" x="274" y="502" type="move"/>
		</contour>
		<contour>
			<point name="ogonekLC" x="270" y="0" type="move"/>
		</contour>
		<contour>
			<point name="baseLC" x="270" y="0" type="move"/>
		</contour>
		<contour>
			<point name="belowLC" x="270" y="-22" type="move"/>
		</contour>
	</outline>
</glyph>
<glyph name="yturned" format="2">
	<unicode hex="028E"/>
	<advance width="424"/>
	<outline>
		<contour>
			<point x="12" y="0" type="line"/>
			<point x="44" y="0" type="line"/>
			<point x="152" y="314" type="line" smooth="yes"/>
			<point x="166" y="354"/>
			<point x="182" y="406"/>
			<point x="198" y="448" type="curve"/>
			<point x="202" y="448" type="line"/>
			<point x="220" y="406"/>
			<point x="240" y="354"/>
			<point x="256" y="314" type="curve" smooth="yes"/>
			<point x="378" y="0" type="line"/>
			<point x="412" y="0" type="line"/>
			<point x="214" y="490" type="line"/>
			<point x="240" y="568" type="line" smooth="yes"/>
			<point x="266" y="646"/>
			<point x="308" y="704"/>
			<point x="368" y="704" type="curve" smooth="yes"/>
			<point x="382" y="704"/>
			<point x="398" y="700"/>
			<point x="408" y="696" type="curve"/>
			<point x="416" y="724" type="line"/>
			<point x="404" y="730"/>
			<point x="386" y="734"/>
			<point x="370" y="734" type="curve" smooth="yes"/>
			<point x="288" y="734"/>
			<point x="240" y="654"/>
			<point x="216" y="580" type="curve"/>
		</contour>
	</outline>
	<anchor name="aboveUC" x="220" y="732"/>
	<anchor name="belowLC" x="210" y="-22"/>
</glyph>
<glyph name="Ysmall" format="1">
  <advance width="374"/>
  <unicode hex="028F"/>
  <outline>
    <contour>
      <point x="188" y="502" type="move" name="aboveLC"/>
    </contour>
    <contour>
      <point x="186" y="-22" type="move" name="belowLC"/>
    </contour>
    <contour>
      <point x="172" y="0" type="line"/>
      <point x="202" y="0" type="line"/>
      <point x="202" y="176" type="line"/>
      <point x="370" y="478" type="line"/>
      <point x="336" y="478" type="line"/>
      <point x="250" y="316" type="line"/>
      <point x="231" y="279"/>
      <point x="211" y="245"/>
      <point x="190" y="208" type="curve"/>
      <point x="186" y="208" type="line"/>
      <point x="164" y="245"/>
      <point x="144" y="279"/>
      <point x="124" y="316" type="curve"/>
      <point x="38" y="478" type="line"/>
      <point x="4" y="478" type="line"/>
      <point x="172" y="176" type="line"/>
    </contour>
  </outline>
</glyph>
<glyph name="zretroflex" format="1">
  <advance width="396"/>
  <unicode hex="0290"/>
  <outline>
    <contour>
      <point x="216" y="502" type="move" name="aboveLC"/>
    </contour>
    <contour>
      <point x="418" y="-180" type="curve" smooth="yes"/>
      <point x="434" y="-180"/>
      <point x="456" y="-174"/>
      <point x="466" y="-168" type="curve"/>
      <point x="458" y="-142" type="line"/>
      <point x="448" y="-146"/>
      <point x="432" y="-152"/>
      <point x="416" y="-152" type="curve" smooth="yes"/>
      <point x="372" y="-152"/>
      <point x="360" y="-110"/>
      <point x="360" y="-50" type="curve" smooth="yes"/>
      <point x="360" y="28" type="line"/>
      <point x="66" y="28" type="line"/>
      <point x="360" y="462" type="line"/>
      <point x="360" y="478" type="line"/>
      <point x="58" y="478" type="line"/>
      <point x="58" y="450" type="line"/>
      <point x="320" y="450" type="line"/>
      <point x="26" y="16" type="line"/>
      <point x="26" y="0" type="line"/>
      <point x="330" y="0" type="line"/>
      <point x="330" y="-54" type="line" smooth="yes"/>
      <point x="330" y="-144"/>
      <point x="358" y="-180"/>
    </contour>
  </outline>
</glyph>
<glyph name="zcurl" format="2">
	<unicode hex="0291"/>
	<advance width="406"/>
	<outline>
		<contour>
			<point x="198" y="-80" type="line"/>
			<point x="228" y="80"/>
			<point x="286" y="150"/>
			<point x="338" y="150" type="curve" smooth="yes"/>
			<point x="375" y="150"/>
			<point x="388" y="130"/>
			<point x="388" y="104" type="curve" smooth="yes"/>
			<point x="388" y="66"/>
			<point x="352" y="28"/>
			<point x="288" y="28" type="curve" smooth="yes"/>
			<point x="214" y="28"/>
			<point x="140" y="28"/>
			<point x="66" y="28" type="curve"/>
			<point x="360" y="462" type="line"/>
			<point x="360" y="478" type="line"/>
			<point x="58" y="478" type="line"/>
			<point x="58" y="450" type="line"/>
			<point x="320" y="450" type="line"/>
			<point x="26" y="16" type="line"/>
			<point x="26" y="0" type="line"/>
			<point x="90" y="0"/>
			<point x="218" y="0"/>
			<point x="282" y="0" type="curve" smooth="yes"/>
			<point x="372" y="0"/>
			<point x="420" y="50"/>
			<point x="420" y="104" type="curve" smooth="yes"/>
			<point x="420" y="150"/>
			<point x="390" y="178"/>
			<point x="340" y="178" type="curve" smooth="yes"/>
			<point x="266" y="178"/>
			<point x="208" y="96"/>
			<point x="174" y="-74" type="curve"/>
		</contour>
	</outline>
	<anchor name="aboveLC" x="220" y="502"/>
	<anchor name="belowLC" x="200" y="-122"/>
</glyph>
<glyph name="glottalstopreversed" format="2">
	<unicode hex="0295"/>
	<advance width="392"/>
	<outline>
		<contour>
			<point x="202" y="0" type="line"/>
			<point x="232" y="0" type="line"/>
			<point x="232" y="330" type="line"/>
			<point x="114" y="392"/>
			<point x="54" y="454"/>
			<point x="54" y="554" type="curve" smooth="yes"/>
			<point x="54" y="644"/>
			<point x="112" y="706"/>
			<point x="216" y="706" type="curve" smooth="yes"/>
			<point x="293" y="706"/>
			<point x="338" y="666"/>
			<point x="370" y="626" type="curve"/>
			<point x="390" y="648" type="line"/>
			<point x="356" y="688"/>
			<point x="305" y="734"/>
			<point x="218" y="734" type="curve" smooth="yes"/>
			<point x="106" y="734"/>
			<point x="22" y="670"/>
			<point x="22" y="552" type="curve" smooth="yes"/>
			<point x="22" y="434"/>
			<point x="98" y="370"/>
			<point x="202" y="308" type="curve"/>
		</contour>
	</outline>
	<anchor name="aboveUC" x="190" y="732"/>
	<anchor name="belowLC" x="210" y="-22"/>
</glyph>
<glyph name="clickbilabial" format="1">
	<unicode hex="0298"/>
	<advance width="500"/>
	<outline>
		<contour>
			<point x="250" y="-12" type="curve" smooth="yes"/>
			<point x="366" y="-12"/>
			<point x="432" y="98"/>
			<point x="432" y="364" type="curve" smooth="yes"/>
			<point x="432" y="598"/>
			<point x="366" y="734"/>
			<point x="250" y="734" type="curve" smooth="yes"/>
			<point x="134" y="734"/>
			<point x="68" y="598"/>
			<point x="68" y="364" type="curve" smooth="yes"/>
			<point x="68" y="98"/>
			<point x="134" y="-12"/>
		</contour>
		<contour>
			<point x="250" y="16" type="curve" smooth="yes"/>
			<point x="162" y="16"/>
			<point x="100" y="114"/>
			<point x="100" y="364" type="curve" smooth="yes"/>
			<point x="100" y="586"/>
			<point x="162" y="706"/>
			<point x="250" y="706" type="curve" smooth="yes"/>
			<point x="338" y="706"/>
			<point x="400" y="586"/>
			<point x="400" y="364" type="curve" smooth="yes"/>
			<point x="400" y="114"/>
			<point x="338" y="16"/>
		</contour>
		<contour>
			<point x="250" y="330" type="curve" smooth="yes"/>
			<point x="268" y="330"/>
			<point x="284" y="344"/>
			<point x="284" y="364" type="curve" smooth="yes"/>
			<point x="284" y="386"/>
			<point x="268" y="398"/>
			<point x="250" y="398" type="curve" smooth="yes"/>
			<point x="232" y="398"/>
			<point x="216" y="386"/>
			<point x="216" y="364" type="curve" smooth="yes"/>
			<point x="216" y="344"/>
			<point x="232" y="330"/>
		</contour>
	</outline>
</glyph>
<glyph name="Bsmall" format="1">
  <advance width="492"/>
  <unicode hex="0299"/>
  <outline>
    <contour>
      <point x="242" y="502" type="move" name="aboveLC"/>
    </contour>
    <contour>
      <point x="264" y="-22" type="move" name="belowLC"/>
    </contour>
    <component base="ve"/>
  </outline>
</glyph>
<glyph name="lsmall" format="2">
	<unicode hex="029F"/>
	<advance width="394"/>
	<outline>
		<contour>
			<point x="96" y="0" type="line"/>
			<point x="368" y="0" type="line"/>
			<point x="368" y="28" type="line"/>
			<point x="126" y="28" type="line"/>
			<point x="126" y="478" type="line"/>
			<point x="96" y="478" type="line"/>
		</contour>
	</outline>
	<anchor name="aboveLC" x="120" y="502"/>
	<anchor name="belowLC" x="240" y="-22"/>
</glyph>
<glyph name="glottalstopstroke" format="1">
	<unicode hex="02A1"/>
	<advance width="402"/>
	<outline>
		<contour>
			<point x="44" y="152" type="line"/>
			<point x="322" y="152" type="line"/>
			<point x="322" y="180" type="line"/>
			<point x="120" y="180" type="line"/>
			<point x="44" y="176" type="line"/>
		</contour>
		<component base="glottalstop" xOffset="10"/>
		<contour>
			<point name="aboveUC" x="200" y="730" type="move"/>
		</contour>
		<contour>
			<point name="belowLC" x="180" y="-22" type="move"/>
		</contour>
	</outline>
</glyph>
<glyph name="glottalstopstrokereversed" format="1">
	<unicode hex="02A2"/>
	<advance width="412"/>
	<outline>
		<contour>
			<point x="86" y="152" type="line"/>
			<point x="364" y="152" type="line"/>
			<point x="364" y="180" type="line"/>
			<point x="162" y="180" type="line"/>
			<point x="86" y="176" type="line"/>
		</contour>
		<component base="glottalstopreversed" xOffset="10"/>
		<contour>
			<point name="aboveUC" x="200" y="730" type="move"/>
		</contour>
		<contour>
			<point name="belowLC" x="220" y="-22" type="move"/>
		</contour>
	</outline>
</glyph>
<glyph name="dzcurl" format="2">
	<unicode hex="02A5"/>
	<advance width="816"/>
	<outline>
		<contour>
			<point x="242" y="-12" type="curve" smooth="yes"/>
			<point x="304" y="-12"/>
			<point x="353" y="25"/>
			<point x="392" y="64" type="curve"/>
			<point x="394" y="64" type="line"/>
			<point x="398" y="0" type="line"/>
			<point x="424" y="0" type="line"/>
			<point x="424" y="722" type="line"/>
			<point x="394" y="722" type="line"/>
			<point x="394" y="520" type="line"/>
			<point x="396" y="430" type="line"/>
			<point x="348" y="466"/>
			<point x="312" y="490"/>
			<point x="258" y="490" type="curve" smooth="yes"/>
			<point x="148" y="490"/>
			<point x="54" y="392"/>
			<point x="54" y="238" type="curve" smooth="yes"/>
			<point x="54" y="76"/>
			<point x="128" y="-12"/>
		</contour>
		<contour>
			<point x="244" y="16" type="curve" smooth="yes"/>
			<point x="143" y="16"/>
			<point x="86" y="106"/>
			<point x="86" y="238" type="curve" smooth="yes"/>
			<point x="86" y="362"/>
			<point x="159" y="462"/>
			<point x="256" y="462" type="curve" smooth="yes"/>
			<point x="303" y="462"/>
			<point x="342" y="442"/>
			<point x="394" y="396" type="curve"/>
			<point x="394" y="100" type="line"/>
			<point x="342" y="48"/>
			<point x="297" y="16"/>
		</contour>
		<contour>
			<point x="608" y="-80" type="line"/>
			<point x="638" y="78"/>
			<point x="696" y="150"/>
			<point x="748" y="150" type="curve" smooth="yes"/>
			<point x="785" y="150"/>
			<point x="798" y="128"/>
			<point x="798" y="100" type="curve" smooth="yes"/>
			<point x="798" y="64"/>
			<point x="762" y="28"/>
			<point x="698" y="28" type="curve" smooth="yes"/>
			<point x="637" y="28"/>
			<point x="576" y="28"/>
			<point x="514" y="28" type="curve"/>
			<point x="770" y="462" type="line"/>
			<point x="770" y="478" type="line"/>
			<point x="418" y="478" type="line"/>
			<point x="418" y="450" type="line"/>
			<point x="732" y="450" type="line"/>
			<point x="476" y="16" type="line"/>
			<point x="476" y="0" type="line"/>
			<point x="530" y="0"/>
			<point x="638" y="0"/>
			<point x="692" y="0" type="curve" smooth="yes"/>
			<point x="784" y="0"/>
			<point x="830" y="45"/>
			<point x="830" y="100" type="curve" smooth="yes"/>
			<point x="830" y="148"/>
			<point x="800" y="178"/>
			<point x="750" y="178" type="curve" smooth="yes"/>
			<point x="676" y="178"/>
			<point x="616" y="96"/>
			<point x="578" y="-74" type="curve"/>
		</contour>
	</outline>
	<anchor name="aboveUC" x="410" y="732"/>
	<anchor name="belowLC" x="410" y="-122"/>
</glyph>
<glyph name="ts" format="1">
	<unicode hex="02A6"/>
	<advance width="590"/>
	<outline>
		<contour>
			<point x="318" y="-12" type="curve" smooth="yes"/>
			<point x="518" y="-12"/>
			<point x="554" y="50"/>
			<point x="554" y="120" type="curve" smooth="yes"/>
			<point x="554" y="214"/>
			<point x="474" y="238"/>
			<point x="400" y="266" type="curve" smooth="yes"/>
			<point x="344" y="287"/>
			<point x="292" y="310"/>
			<point x="292" y="368" type="curve" smooth="yes"/>
			<point x="292" y="415"/>
			<point x="326" y="462"/>
			<point x="402" y="462" type="curve" smooth="yes"/>
			<point x="451" y="462"/>
			<point x="483" y="445"/>
			<point x="514" y="422" type="curve"/>
			<point x="532" y="442" type="line"/>
			<point x="499" y="470"/>
			<point x="454" y="490"/>
			<point x="404" y="490" type="curve" smooth="yes"/>
			<point x="310" y="490"/>
			<point x="260" y="432"/>
			<point x="260" y="366" type="curve" smooth="yes"/>
			<point x="260" y="284"/>
			<point x="336" y="255"/>
			<point x="408" y="230" type="curve" smooth="yes"/>
			<point x="462" y="210"/>
			<point x="522" y="182"/>
			<point x="522" y="118" type="curve" smooth="yes"/>
			<point x="522" y="64"/>
			<point x="500" y="16"/>
			<point x="320" y="16" type="curve" smooth="yes"/>
			<point x="177" y="16"/>
			<point x="136" y="77"/>
			<point x="136" y="162" type="curve" smooth="yes"/>
			<point x="136" y="450" type="line"/>
			<point x="328" y="450" type="line"/>
			<point x="348" y="478" type="line"/>
			<point x="136" y="478" type="line"/>
			<point x="136" y="638" type="line"/>
			<point x="110" y="638" type="line"/>
			<point x="106" y="478" type="line"/>
			<point x="30" y="474" type="line"/>
			<point x="30" y="450" type="line"/>
			<point x="106" y="450" type="line"/>
			<point x="106" y="166" type="line" smooth="yes"/>
			<point x="106" y="60"/>
			<point x="161" y="-12"/>
		</contour>
		<contour>
			<point name="aboveLC" x="330" y="630" type="move"/>
		</contour>
		<contour>
			<point name="belowLC" x="330" y="-20" type="move"/>
		</contour>
	</outline>
</glyph>
<glyph name="tesh" format="1">
	<unicode hex="02A7"/>
	<advance width="522"/>
	<outline>
		<contour>
			<point x="328" y="-234" type="curve" smooth="yes"/>
			<point x="394" y="-234"/>
			<point x="426" y="-194"/>
			<point x="426" y="-102" type="curve" smooth="yes"/>
			<point x="426" y="600" type="line" smooth="yes"/>
			<point x="426" y="662"/>
			<point x="438" y="708"/>
			<point x="502" y="708" type="curve" smooth="yes"/>
			<point x="518" y="708"/>
			<point x="534" y="702"/>
			<point x="544" y="698" type="curve"/>
			<point x="552" y="724" type="line"/>
			<point x="540" y="730"/>
			<point x="521" y="736"/>
			<point x="504" y="736" type="curve" smooth="yes"/>
			<point x="431" y="736"/>
			<point x="396" y="696"/>
			<point x="396" y="604" type="curve" smooth="yes"/>
			<point x="396" y="100" type="line"/>
			<point x="343" y="37"/>
			<point x="299" y="16"/>
			<point x="242" y="16" type="curve" smooth="yes"/>
			<point x="167" y="16"/>
			<point x="136" y="68"/>
			<point x="136" y="174" type="curve" smooth="yes"/>
			<point x="136" y="450" type="line"/>
			<point x="406" y="450" type="line"/>
			<point x="406" y="478" type="line"/>
			<point x="136" y="478" type="line"/>
			<point x="136" y="618" type="line"/>
			<point x="110" y="618" type="line"/>
			<point x="106" y="478" type="line"/>
			<point x="30" y="474" type="line"/>
			<point x="30" y="450" type="line"/>
			<point x="106" y="450" type="line"/>
			<point x="106" y="170" type="line" smooth="yes"/>
			<point x="106" y="46"/>
			<point x="149" y="-12"/>
			<point x="240" y="-12" type="curve" smooth="yes"/>
			<point x="302" y="-12"/>
			<point x="352" y="13"/>
			<point x="394" y="62" type="curve"/>
			<point x="396" y="62" type="line"/>
			<point x="396" y="-98" type="line" smooth="yes"/>
			<point x="396" y="-160"/>
			<point x="386" y="-206"/>
			<point x="330" y="-206" type="curve" smooth="yes"/>
			<point x="310" y="-206"/>
			<point x="290" y="-200"/>
			<point x="278" y="-196" type="curve"/>
			<point x="270" y="-222" type="line"/>
			<point x="284" y="-228"/>
			<point x="308" y="-234"/>
		</contour>
		<contour>
			<point name="aboveUC" x="280" y="730" type="move"/>
		</contour>
		<contour>
			<point name="belowLC" x="250" y="-218" type="move"/>
		</contour>
	</outline>
</glyph>
<glyph name="tccurl" format="2">
	<unicode hex="02A8"/>
	<advance width="706"/>
	<outline>
		<contour>
			<point x="218" y="-12" type="curve" smooth="yes"/>
			<point x="234" y="-12"/>
			<point x="264" y="-4"/>
			<point x="292" y="6" type="curve"/>
			<point x="282" y="32" type="line"/>
			<point x="264" y="24"/>
			<point x="238" y="16"/>
			<point x="220" y="16" type="curve" smooth="yes"/>
			<point x="150" y="16"/>
			<point x="136" y="60"/>
			<point x="136" y="122" type="curve" smooth="yes"/>
			<point x="136" y="450" type="line"/>
			<point x="462" y="450" type="line"/>
			<point x="462" y="478" type="line"/>
			<point x="136" y="478" type="line"/>
			<point x="136" y="638" type="line"/>
			<point x="110" y="638" type="line"/>
			<point x="106" y="478" type="line"/>
			<point x="30" y="474" type="line"/>
			<point x="30" y="450" type="line"/>
			<point x="106" y="450" type="line"/>
			<point x="106" y="126" type="line" smooth="yes"/>
			<point x="106" y="44"/>
			<point x="130" y="-12"/>
		</contour>
		<component base="ccurl" xOffset="260"/>
	</outline>
	<anchor name="aboveUC" x="340" y="632"/>
	<anchor name="belowLC" x="380" y="-22"/>
</glyph>
<glyph name="hhook.sups" format="2">
	<unicode hex="02B1"/>
	<advance width="352"/>
	<outline>
		<contour>
			<point x="60" y="410" type="line"/>
			<point x="88" y="410" type="line"/>
			<point x="88" y="648" type="line"/>
			<point x="130" y="690"/>
			<point x="164" y="708"/>
			<point x="194" y="708" type="curve" smooth="yes"/>
			<point x="258" y="708"/>
			<point x="272" y="668"/>
			<point x="272" y="608" type="curve" smooth="yes"/>
			<point x="272" y="410" type="line"/>
			<point x="300" y="410" type="line"/>
			<point x="300" y="614" type="line" smooth="yes"/>
			<point x="300" y="684"/>
			<point x="276" y="734"/>
			<point x="200" y="734" type="curve" smooth="yes"/>
			<point x="158" y="734"/>
			<point x="118" y="708"/>
			<point x="88" y="676" type="curve"/>
			<point x="88" y="776" type="line" smooth="yes"/>
			<point x="88" y="827"/>
			<point x="110" y="866"/>
			<point x="156" y="866" type="curve" smooth="yes"/>
			<point x="174" y="866"/>
			<point x="188" y="864"/>
			<point x="198" y="860" type="curve"/>
			<point x="206" y="882" type="line"/>
			<point x="188" y="890"/>
			<point x="176" y="892"/>
			<point x="156" y="892" type="curve" smooth="yes"/>
			<point x="95" y="892"/>
			<point x="60" y="846"/>
			<point x="60" y="772" type="curve" smooth="yes"/>
		</contour>
	</outline>
</glyph>
<glyph name="j.sups" format="2">
	<unicode hex="02B2"/>
	<advance width="152"/>
	<outline>
		<contour>
			<point x="20" y="258" type="curve" smooth="yes"/>
			<point x="66" y="258"/>
			<point x="90" y="286"/>
			<point x="90" y="356" type="curve" smooth="yes"/>
			<point x="90" y="726" type="line"/>
			<point x="62" y="726" type="line"/>
			<point x="62" y="352" type="line" smooth="yes"/>
			<point x="62" y="312"/>
			<point x="54" y="286"/>
			<point x="18" y="286" type="curve" smooth="yes"/>
			<point x="4" y="286"/>
			<point x="-2" y="288"/>
			<point x="-12" y="292" type="curve"/>
			<point x="-20" y="266" type="line"/>
			<point x="-4" y="260"/>
			<point x="4" y="258"/>
		</contour>
		<contour>
			<point x="78" y="802" type="curve" smooth="yes"/>
			<point x="94" y="802"/>
			<point x="106" y="814"/>
			<point x="106" y="830" type="curve" smooth="yes"/>
			<point x="106" y="846"/>
			<point x="94" y="858"/>
			<point x="78" y="858" type="curve" smooth="yes"/>
			<point x="62" y="858"/>
			<point x="50" y="846"/>
			<point x="50" y="830" type="curve" smooth="yes"/>
			<point x="50" y="814"/>
			<point x="62" y="802"/>
		</contour>
	</outline>
</glyph>
<glyph name="commaturnedmod" format="2">
	<unicode hex="02BB"/>
	<advance width="220"/>
	<outline>
		<contour>
			<point x="110" y="484" type="curve" smooth="yes"/>
			<point x="134" y="484"/>
			<point x="154" y="502"/>
			<point x="154" y="526" type="curve" smooth="yes"/>
			<point x="154" y="555"/>
			<point x="130" y="570"/>
			<point x="108" y="570" type="curve" smooth="yes"/>
			<point x="93" y="570"/>
			<point x="84" y="564"/>
			<point x="76" y="548" type="curve"/>
			<point x="86" y="548" type="line"/>
			<point x="86" y="560" type="line" smooth="yes"/>
			<point x="86" y="620"/>
			<point x="106" y="664"/>
			<point x="168" y="706" type="curve"/>
			<point x="154" y="726" type="line"/>
			<point x="86" y="686"/>
			<point x="54" y="628"/>
			<point x="54" y="552" type="curve" smooth="yes"/>
			<point x="54" y="508"/>
			<point x="77" y="484"/>
		</contour>
	</outline>
</glyph>
<glyph name="apostrophemod" format="2">
	<unicode hex="02BC"/>
	<advance width="220"/>
	<outline>
		<contour>
			<point x="76" y="488" type="line"/>
			<point x="137" y="526"/>
			<point x="168" y="581"/>
			<point x="168" y="646" type="curve" smooth="yes"/>
			<point x="168" y="707"/>
			<point x="139" y="734"/>
			<point x="106" y="734" type="curve" smooth="yes"/>
			<point x="84" y="734"/>
			<point x="66" y="718"/>
			<point x="66" y="696" type="curve" smooth="yes"/>
			<point x="66" y="669"/>
			<point x="84" y="660"/>
			<point x="102" y="660" type="curve" smooth="yes"/>
			<point x="118" y="660"/>
			<point x="130" y="666"/>
			<point x="136" y="682" type="curve"/>
			<point x="132" y="682" type="line"/>
			<point x="134" y="669"/>
			<point x="136" y="662"/>
			<point x="136" y="646" type="curve" smooth="yes"/>
			<point x="136" y="597"/>
			<point x="119" y="549"/>
			<point x="62" y="508" type="curve"/>
		</contour>
	</outline>
</glyph>
<glyph name="commareversedmod" format="2">
	<unicode hex="02BD"/>
	<advance width="220"/>
	<outline>
		<contour>
			<point x="144" y="488" type="curve"/>
			<point x="158" y="508" type="line"/>
			<point x="103" y="547"/>
			<point x="84" y="591"/>
			<point x="84" y="636" type="curve" smooth="yes"/>
			<point x="84" y="656"/>
			<point x="86" y="665"/>
			<point x="88" y="682" type="curve"/>
			<point x="84" y="682" type="line"/>
			<point x="90" y="666"/>
			<point x="102" y="660"/>
			<point x="118" y="660" type="curve" smooth="yes"/>
			<point x="136" y="660"/>
			<point x="154" y="669"/>
			<point x="154" y="696" type="curve" smooth="yes"/>
			<point x="154" y="718"/>
			<point x="136" y="734"/>
			<point x="114" y="734" type="curve" smooth="yes"/>
			<point x="81" y="734"/>
			<point x="52" y="705"/>
			<point x="52" y="636" type="curve" smooth="yes"/>
			<point x="52" y="575"/>
			<point x="85" y="524"/>
		</contour>
	</outline>
</glyph>
<glyph name="glottalstopmod" format="1">
	<unicode hex="02C0"/>
	<advance width="270"/>
	<outline>
		<contour>
			<point x="108" y="530" type="line"/>
			<point x="136" y="530" type="line"/>
			<point x="136" y="630" type="line"/>
			<point x="204" y="668"/>
			<point x="252" y="708"/>
			<point x="252" y="780" type="curve" smooth="yes"/>
			<point x="252" y="852"/>
			<point x="196" y="892"/>
			<point x="126" y="892" type="curve" smooth="yes"/>
			<point x="68" y="892"/>
			<point x="28" y="864"/>
			<point x="6" y="836" type="curve"/>
			<point x="22" y="820" type="line"/>
			<point x="46" y="846"/>
			<point x="78" y="866"/>
			<point x="126" y="866" type="curve" smooth="yes"/>
			<point x="184" y="866"/>
			<point x="222" y="832"/>
			<point x="222" y="782" type="curve" smooth="yes"/>
			<point x="222" y="722"/>
			<point x="190" y="684"/>
			<point x="108" y="646" type="curve"/>
		</contour>
	</outline>
</glyph>
<glyph name="glottalstopreversedmod" format="1">
	<unicode hex="02C1"/>
	<advance width="270"/>
	<outline>
		<contour>
			<point x="134" y="530" type="line"/>
			<point x="162" y="530" type="line"/>
			<point x="162" y="646" type="line"/>
			<point x="80" y="684"/>
			<point x="48" y="722"/>
			<point x="48" y="782" type="curve" smooth="yes"/>
			<point x="48" y="832"/>
			<point x="86" y="866"/>
			<point x="144" y="866" type="curve" smooth="yes"/>
			<point x="192" y="866"/>
			<point x="224" y="846"/>
			<point x="248" y="820" type="curve"/>
			<point x="264" y="836" type="line"/>
			<point x="242" y="864"/>
			<point x="202" y="892"/>
			<point x="144" y="892" type="curve" smooth="yes"/>
			<point x="74" y="892"/>
			<point x="18" y="852"/>
			<point x="18" y="780" type="curve" smooth="yes"/>
			<point x="18" y="708"/>
			<point x="66" y="668"/>
			<point x="134" y="630" type="curve"/>
		</contour>
	</outline>
</glyph>
<glyph name="circumflex" format="1">
  <advance width="532"/>
  <unicode hex="02C6"/>
  <outline>
    <contour>
      <point x="266" y="502" type="move" name="_aboveLC"/>
    </contour>
    <contour>
      <point x="266" y="706" type="move" name="aboveLC"/>
    </contour>
    <component base="circumflexcmb" xOffset="266"/>
  </outline>
</glyph>
<glyph name="colontriangularmod" format="1">
  <advance width="208"/>
  <unicode hex="02D0"/>
  <outline>
    <contour>
      <point x="56" y="0" type="line"/>
      <point x="152" y="0" type="line"/>
      <point x="108" y="96" type="line"/>
      <point x="100" y="96" type="line"/>
    </contour>
    <contour>
      <point x="100" y="348" type="line"/>
      <point x="108" y="348" type="line"/>
      <point x="152" y="442" type="line"/>
      <point x="56" y="442" type="line"/>
    </contour>
  </outline>
</glyph>
<glyph name="dotaccent" format="1">
	<unicode hex="02D9"/>
	<advance width="532"/>
	<outline>
		<component base="dotaccentcmb" xOffset="266"/>
		<contour>
			<point name="_aboveLC" x="266" y="502" type="move"/>
		</contour>
	</outline>
</glyph>
<glyph name="gammalatin.sups" format="2">
	<unicode hex="02E0"/>
	<advance width="289"/>
	<outline>
		<contour>
			<point x="129" y="425" type="line"/>
			<point x="162" y="425" type="line"/>
			<point x="281" y="726" type="line"/>
			<point x="253" y="726" type="line"/>
			<point x="180" y="534" type="line"/>
			<point x="169" y="504"/>
			<point x="157" y="479"/>
			<point x="147" y="451" type="curve"/>
			<point x="144" y="451" type="line"/>
			<point x="134" y="479"/>
			<point x="122" y="504"/>
			<point x="111" y="534" type="curve"/>
			<point x="38" y="726" type="line"/>
			<point x="8" y="726" type="line"/>
		</contour>
		<contour>
			<point x="145" y="256" type="curve" smooth="yes"/>
			<point x="186" y="256"/>
			<point x="206" y="283"/>
			<point x="206" y="320" type="curve" smooth="yes"/>
			<point x="206" y="351"/>
			<point x="190" y="384"/>
			<point x="161" y="437" type="curve"/>
			<point x="129" y="437" type="line"/>
			<point x="100" y="384"/>
			<point x="84" y="351"/>
			<point x="84" y="320" type="curve" smooth="yes"/>
			<point x="84" y="283"/>
			<point x="105" y="256"/>
		</contour>
		<contour>
			<point x="145" y="279" type="curve" smooth="yes"/>
			<point x="121" y="279"/>
			<point x="112" y="297"/>
			<point x="112" y="319" type="curve" smooth="yes"/>
			<point x="112" y="343"/>
			<point x="126" y="378"/>
			<point x="144" y="411" type="curve"/>
			<point x="147" y="411" type="line"/>
			<point x="166" y="378"/>
			<point x="178" y="345"/>
			<point x="178" y="319" type="curve" smooth="yes"/>
			<point x="178" y="297"/>
			<point x="169" y="279"/>
		</contour>
	</outline>
</glyph>
<glyph name="gammalatinsupmod" format="1">
	<unicode hex="02E0"/>
	<advance width="289"/>
	<outline>
		<contour>
			<point x="129" y="425" type="line"/>
			<point x="162" y="425" type="line"/>
			<point x="281" y="726" type="line"/>
			<point x="253" y="726" type="line"/>
			<point x="180" y="534" type="line"/>
			<point x="169" y="504"/>
			<point x="157" y="479"/>
			<point x="147" y="451" type="curve"/>
			<point x="144" y="451" type="line"/>
			<point x="134" y="479"/>
			<point x="122" y="504"/>
			<point x="111" y="534" type="curve"/>
			<point x="38" y="726" type="line"/>
			<point x="8" y="726" type="line"/>
		</contour>
		<contour>
			<point x="145" y="256" type="curve" smooth="yes"/>
			<point x="186" y="256"/>
			<point x="206" y="283"/>
			<point x="206" y="320" type="curve" smooth="yes"/>
			<point x="206" y="351"/>
			<point x="190" y="384"/>
			<point x="161" y="437" type="curve"/>
			<point x="129" y="437" type="line"/>
			<point x="100" y="384"/>
			<point x="84" y="351"/>
			<point x="84" y="320" type="curve" smooth="yes"/>
			<point x="84" y="283"/>
			<point x="105" y="256"/>
		</contour>
		<contour>
			<point x="145" y="279" type="curve" smooth="yes"/>
			<point x="121" y="279"/>
			<point x="112" y="297"/>
			<point x="112" y="319" type="curve" smooth="yes"/>
			<point x="112" y="343"/>
			<point x="126" y="378"/>
			<point x="144" y="411" type="curve"/>
			<point x="147" y="411" type="line"/>
			<point x="166" y="378"/>
			<point x="178" y="345"/>
			<point x="178" y="319" type="curve" smooth="yes"/>
			<point x="178" y="297"/>
			<point x="169" y="279"/>
		</contour>
	</outline>
</glyph>
<glyph name="s.sups" format="2">
	<unicode hex="02E2"/>
	<advance width="272"/>
	<outline>
		<contour>
			<point x="144" y="402" type="curve" smooth="yes"/>
			<point x="204" y="402"/>
			<point x="248" y="440"/>
			<point x="248" y="494" type="curve" smooth="yes"/>
			<point x="248" y="554"/>
			<point x="194" y="568"/>
			<point x="144" y="588" type="curve" smooth="yes"/>
			<point x="104" y="604"/>
			<point x="68" y="616"/>
			<point x="68" y="654" type="curve" smooth="yes"/>
			<point x="68" y="680"/>
			<point x="90" y="708"/>
			<point x="136" y="708" type="curve" smooth="yes"/>
			<point x="172" y="708"/>
			<point x="190" y="698"/>
			<point x="214" y="680" type="curve"/>
			<point x="232" y="702" type="line"/>
			<point x="208" y="720"/>
			<point x="176" y="734"/>
			<point x="136" y="734" type="curve" smooth="yes"/>
			<point x="72" y="734"/>
			<point x="38" y="692"/>
			<point x="38" y="652" type="curve" smooth="yes"/>
			<point x="38" y="596"/>
			<point x="92" y="576"/>
			<point x="140" y="558" type="curve" smooth="yes"/>
			<point x="178" y="544"/>
			<point x="218" y="528"/>
			<point x="218" y="490" type="curve" smooth="yes"/>
			<point x="218" y="456"/>
			<point x="190" y="428"/>
			<point x="144" y="428" type="curve" smooth="yes"/>
			<point x="100" y="428"/>
			<point x="68" y="446"/>
			<point x="40" y="468" type="curve"/>
			<point x="22" y="446" type="line"/>
			<point x="52" y="422"/>
			<point x="94" y="402"/>
		</contour>
	</outline>
</glyph>
<glyph name="x.sups" format="2">
	<unicode hex="02E3"/>
	<advance width="274"/>
	<outline>
		<contour>
			<point x="8" y="410" type="line"/>
			<point x="40" y="410" type="line"/>
			<point x="94" y="494" type="line"/>
			<point x="134" y="552" type="line"/>
			<point x="138" y="552" type="line"/>
			<point x="176" y="494" type="line"/>
			<point x="230" y="410" type="line"/>
			<point x="264" y="410" type="line"/>
			<point x="156" y="574" type="line"/>
			<point x="256" y="726" type="line"/>
			<point x="224" y="726" type="line"/>
			<point x="174" y="648" type="line"/>
			<point x="142" y="596" type="line"/>
			<point x="138" y="596" type="line"/>
			<point x="104" y="648" type="line"/>
			<point x="52" y="726" type="line"/>
			<point x="18" y="726" type="line"/>
			<point x="120" y="576" type="line"/>
		</contour>
	</outline>
</glyph>
<glyph name="gravecmb" format="1">
  <advance width="0"/>
  <unicode hex="0300"/>
  <outline>
    <contour>
      <point x="0" y="502" type="move" name="_aboveLC"/>
    </contour>
    <contour>
      <point x="34" y="574" type="line"/>
      <point x="52" y="590" type="line"/>
      <point x="-80" y="744" type="line"/>
      <point x="-104" y="724" type="line"/>
    </contour>
  </outline>
</glyph>
<glyph name="acutecmb" format="1">
  <advance width="0"/>
  <unicode hex="0301"/>
  <outline>
    <contour>
      <point x="0" y="502" type="move" name="_aboveLC"/>
    </contour>
    <contour>
      <point x="-34" y="574" type="line"/>
      <point x="104" y="724" type="line"/>
      <point x="80" y="744" type="line"/>
      <point x="-52" y="590" type="line"/>
    </contour>
  </outline>
</glyph>
<glyph name="circumflexcmb" format="1">
  <advance width="0"/>
  <unicode hex="0302"/>
  <outline>
    <contour>
      <point x="0" y="502" type="move" name="_aboveLC"/>
    </contour>
    <contour>
      <point x="0" y="728" type="move" name="aboveLC"/>
    </contour>
    <contour>
      <point x="-132" y="590" type="line"/>
      <point x="-114" y="574" type="line"/>
      <point x="-2" y="704" type="line"/>
      <point x="2" y="704" type="line"/>
      <point x="114" y="574" type="line"/>
      <point x="132" y="590" type="line"/>
      <point x="14" y="736" type="line"/>
      <point x="-14" y="736" type="line"/>
    </contour>
  </outline>
</glyph>
<glyph name="tildecmb" format="1">
  <advance width="0"/>
  <unicode hex="0303"/>
  <outline>
    <contour>
      <point x="0" y="502" type="move" name="_aboveLC"/>
    </contour>
    <contour>
      <point x="77" y="580" type="curve" smooth="yes"/>
      <point x="140" y="580"/>
      <point x="156" y="646"/>
      <point x="160" y="702" type="curve"/>
      <point x="134" y="704" type="line"/>
      <point x="132" y="652"/>
      <point x="116" y="606"/>
      <point x="79" y="606" type="curve" smooth="yes"/>
      <point x="20" y="606"/>
      <point x="0" y="706"/>
      <point x="-76" y="706" type="curve" smooth="yes"/>
      <point x="-140" y="706"/>
      <point x="-156" y="641"/>
      <point x="-160" y="584" type="curve"/>
      <point x="-134" y="582" type="line"/>
      <point x="-132" y="636"/>
      <point x="-116" y="680"/>
      <point x="-78" y="680" type="curve" smooth="yes"/>
      <point x="-20" y="680"/>
      <point x="0" y="580"/>
    </contour>
  </outline>
</glyph>
<glyph name="macroncmb" format="1">
  <advance width="0"/>
  <unicode hex="0304"/>
  <outline>
    <contour>
      <point x="0" y="502" type="move" name="_aboveLC"/>
    </contour>
    <contour>
      <point x="-120" y="608" type="line"/>
      <point x="120" y="608" type="line"/>
      <point x="120" y="636" type="line"/>
      <point x="-120" y="636" type="line"/>
    </contour>
  </outline>
</glyph>
<glyph name="overlinecmb" format="1">
	<unicode hex="0305"/>
	<outline>
		<component base="macroncmb"/>
		<contour>
			<point name="_aboveLC" x="0" y="502" type="move"/>
		</contour>
		<contour>
			<point name="aboveLC" x="0" y="502" type="move"/>
		</contour>
	</outline>
</glyph>
<glyph name="brevecmb" format="1">
  <advance width="0"/>
  <unicode hex="0306"/>
  <outline>
    <contour>
      <point x="0" y="502" type="move" name="_aboveLC"/>
    </contour>
    <contour>
      <point x="0" y="570" type="curve" smooth="yes"/>
      <point x="101" y="570"/>
      <point x="138" y="654"/>
      <point x="146" y="716" type="curve"/>
      <point x="120" y="720" type="line"/>
      <point x="112" y="662"/>
      <point x="75" y="596"/>
      <point x="0" y="596" type="curve" smooth="yes"/>
      <point x="-75" y="596"/>
      <point x="-112" y="662"/>
      <point x="-120" y="720" type="curve"/>
      <point x="-146" y="716" type="line"/>
      <point x="-138" y="654"/>
      <point x="-101" y="570"/>
    </contour>
  </outline>
</glyph>
<glyph name="dieresiscmb" format="1">
  <advance width="0"/>
  <unicode hex="0308"/>
  <outline>
    <contour>
      <point x="0" y="502" type="move" name="_aboveLC"/>
    </contour>
    <contour>
      <point x="0" y="674" type="move" name="aboveLC"/>
    </contour>
    <contour>
      <point x="-86" y="602" type="curve" smooth="yes"/>
      <point x="-68" y="602"/>
      <point x="-54" y="616"/>
      <point x="-54" y="634" type="curve" smooth="yes"/>
      <point x="-54" y="652"/>
      <point x="-68" y="666"/>
      <point x="-86" y="666" type="curve" smooth="yes"/>
      <point x="-104" y="666"/>
      <point x="-118" y="652"/>
      <point x="-118" y="634" type="curve" smooth="yes"/>
      <point x="-118" y="616"/>
      <point x="-104" y="602"/>
    </contour>
    <contour>
      <point x="86" y="602" type="curve" smooth="yes"/>
      <point x="104" y="602"/>
      <point x="118" y="616"/>
      <point x="118" y="634" type="curve" smooth="yes"/>
      <point x="118" y="652"/>
      <point x="104" y="666"/>
      <point x="86" y="666" type="curve" smooth="yes"/>
      <point x="68" y="666"/>
      <point x="54" y="652"/>
      <point x="54" y="634" type="curve" smooth="yes"/>
      <point x="54" y="616"/>
      <point x="68" y="602"/>
    </contour>
  </outline>
</glyph>
<glyph name="hoicmb" format="1">
	<unicode hex="0309"/>
	<outline>
		<contour>
			<point x="-22" y="566" type="line"/>
			<point x="24" y="580"/>
			<point x="66" y="614"/>
			<point x="66" y="668" type="curve" smooth="yes"/>
			<point x="66" y="722"/>
			<point x="10" y="742"/>
			<point x="-48" y="744" type="curve"/>
			<point x="-50" y="718" type="line"/>
			<point x="4" y="716"/>
			<point x="36" y="700"/>
			<point x="36" y="664" type="curve" smooth="yes"/>
			<point x="36" y="632"/>
			<point x="10" y="602"/>
			<point x="-30" y="590" type="curve"/>
		</contour>
		<contour>
			<point name="_aboveLC" x="0" y="502" type="move"/>
		</contour>
		<contour>
			<point name="aboveLC" x="0" y="722" type="move"/>
		</contour>
	</outline>
</glyph>
<glyph name="ringcmb" format="1">
  <advance width="0"/>
  <unicode hex="030A"/>
  <outline>
    <contour>
      <point x="0" y="502" type="move" name="_aboveLC"/>
    </contour>
    <contour>
      <point x="0" y="546" type="curve" smooth="yes"/>
      <point x="52" y="546"/>
      <point x="92" y="584"/>
      <point x="92" y="640" type="curve" smooth="yes"/>
      <point x="92" y="696"/>
      <point x="52" y="734"/>
      <point x="0" y="734" type="curve" smooth="yes"/>
      <point x="-52" y="734"/>
      <point x="-92" y="696"/>
      <point x="-92" y="640" type="curve" smooth="yes"/>
      <point x="-92" y="584"/>
      <point x="-52" y="546"/>
    </contour>
    <contour>
      <point x="0" y="568" type="curve" smooth="yes"/>
      <point x="-38" y="568"/>
      <point x="-68" y="596"/>
      <point x="-68" y="640" type="curve" smooth="yes"/>
      <point x="-68" y="684"/>
      <point x="-38" y="712"/>
      <point x="0" y="712" type="curve" smooth="yes"/>
      <point x="38" y="712"/>
      <point x="68" y="684"/>
      <point x="68" y="640" type="curve" smooth="yes"/>
      <point x="68" y="596"/>
      <point x="38" y="568"/>
    </contour>
  </outline>
</glyph>
<glyph name="caroncmb" format="1">
  <advance width="0"/>
  <unicode hex="030C"/>
  <outline>
    <contour>
      <point x="0" y="502" type="move" name="_aboveLC"/>
    </contour>
    <contour>
      <point x="-14" y="572" type="line"/>
      <point x="14" y="572" type="line"/>
      <point x="132" y="718" type="line"/>
      <point x="114" y="734" type="line"/>
      <point x="2" y="604" type="line"/>
      <point x="-2" y="604" type="line"/>
      <point x="-114" y="734" type="line"/>
      <point x="-132" y="718" type="line"/>
    </contour>
  </outline>
</glyph>
<glyph name="breveinvertedcmb" format="1">
  <advance width="0"/>
  <unicode hex="0311"/>
  <outline>
    <contour>
      <point x="0" y="502" type="move" name="_aboveLC"/>
    </contour>
    <contour>
      <point x="-120" y="570" type="line"/>
      <point x="-112" y="628"/>
      <point x="-75" y="694"/>
      <point x="0" y="694" type="curve" smooth="yes"/>
      <point x="75" y="694"/>
      <point x="112" y="628"/>
      <point x="120" y="570" type="curve"/>
      <point x="146" y="574" type="line"/>
      <point x="138" y="636"/>
      <point x="101" y="720"/>
      <point x="0" y="720" type="curve" smooth="yes"/>
      <point x="-101" y="720"/>
      <point x="-138" y="636"/>
      <point x="-146" y="574" type="curve"/>
    </contour>
  </outline>
</glyph>
<glyph name="commaturnedabovecmb" format="2">
	<unicode hex="0312"/>
	<outline>
		<contour>
			<point x="4" y="556" type="curve" smooth="yes"/>
			<point x="25" y="556"/>
			<point x="42" y="567"/>
			<point x="42" y="590" type="curve" smooth="yes"/>
			<point x="42" y="609"/>
			<point x="24" y="620"/>
			<point x="10" y="620" type="curve" smooth="yes"/>
			<point x="0" y="620"/>
			<point x="-10" y="616"/>
			<point x="-16" y="610" type="curve"/>
			<point x="-16" y="652"/>
			<point x="-4" y="678"/>
			<point x="36" y="700" type="curve"/>
			<point x="22" y="722" type="line"/>
			<point x="-28" y="695"/>
			<point x="-46" y="654"/>
			<point x="-46" y="614" type="curve" smooth="yes"/>
			<point x="-46" y="580"/>
			<point x="-26" y="556"/>
		</contour>
	</outline>
	<anchor name="_aboveLC" x="0" y="502"/>
</glyph>
<glyph name="downtackbelowcmb" format="1">
  <advance width="0"/>
  <unicode hex="031E"/>
  <outline>
    <contour>
      <point x="0" y="-22" type="move" name="_belowLC"/>
    </contour>
    <contour>
      <point x="86" y="-136" type="line"/>
      <point x="86" y="-108" type="line"/>
      <point x="-86" y="-108" type="line"/>
      <point x="-86" y="-136" type="line"/>
      <point x="-14" y="-136" type="line"/>
      <point x="-14" y="-242" type="line"/>
      <point x="14" y="-242" type="line"/>
      <point x="14" y="-136" type="line"/>
    </contour>
  </outline>
</glyph>
<glyph name="cedillacmb" format="2">
	<unicode hex="0327"/>
	<outline>
		<contour>
			<point x="-74" y="-216" type="line"/>
			<point x="16" y="-210"/>
			<point x="64" y="-184"/>
			<point x="64" y="-134" type="curve" smooth="yes"/>
			<point x="64" y="-94"/>
			<point x="36" y="-76"/>
			<point x="-6" y="-66" type="curve"/>
			<point x="24" y="2" type="line"/>
			<point x="-4" y="2" type="line"/>
			<point x="-44" y="-84" type="line"/>
			<point x="10" y="-92"/>
			<point x="34" y="-106"/>
			<point x="34" y="-136" type="curve" smooth="yes"/>
			<point x="34" y="-166"/>
			<point x="8" y="-184"/>
			<point x="-80" y="-190" type="curve"/>
		</contour>
	</outline>
	<anchor name="_baseLC" x="0" y="0"/>
</glyph>
<glyph name="ogonekcmb" format="1">
	<unicode hex="0328"/>
	<outline>
		<contour>
			<point x="12" y="-202" type="curve" smooth="yes"/>
			<point x="31" y="-202"/>
			<point x="56" y="-192"/>
			<point x="70" y="-180" type="curve"/>
			<point x="56" y="-160" type="line"/>
			<point x="42" y="-170"/>
			<point x="31" y="-174"/>
			<point x="14" y="-174" type="curve" smooth="yes"/>
			<point x="-12" y="-174"/>
			<point x="-36" y="-156"/>
			<point x="-36" y="-120" type="curve" smooth="yes"/>
			<point x="-36" y="-76"/>
			<point x="-7" y="-28"/>
			<point x="38" y="4" type="curve"/>
			<point x="2" y="4" type="line"/>
			<point x="-35" y="-25"/>
			<point x="-66" y="-72"/>
			<point x="-66" y="-122" type="curve" smooth="yes"/>
			<point x="-66" y="-176"/>
			<point x="-32" y="-202"/>
		</contour>
		<contour>
			<point name="_ogonekLC" x="0" y="0" type="move"/>
		</contour>
	</outline>
</glyph>
<glyph name="verticallinebelowcmb" format="1">
	<unicode hex="0329"/>
	<outline>
		<contour>
			<point x="-16" y="-264" type="line"/>
			<point x="16" y="-264" type="line"/>
			<point x="10" y="-76" type="line"/>
			<point x="-10" y="-76" type="line"/>
		</contour>
		<contour>
			<point name="_belowLC" x="0" y="-22" type="move"/>
		</contour>
	</outline>
</glyph>
<glyph name="bridgebelowcmb" format="2">
	<unicode hex="032A"/>
	<outline>
		<contour>
			<point x="-116" y="-230" type="line"/>
			<point x="-90" y="-230" type="line"/>
			<point x="-90" y="-114" type="line"/>
			<point x="90" y="-114" type="line"/>
			<point x="90" y="-230" type="line"/>
			<point x="116" y="-230" type="line"/>
			<point x="116" y="-86" type="line"/>
			<point x="-116" y="-86" type="line"/>
		</contour>
	</outline>
	<anchor name="_belowLC" x="0" y="-22"/>
</glyph>
<glyph name="caronbelowcmb" format="1">
	<unicode hex="032C"/>
	<outline>
		<component base="caroncmb" yOffset="-794"/>
		<contour>
			<point name="_belowLC" x="0" y="-22" type="move"/>
		</contour>
	</outline>
</glyph>
<glyph name="brevebelowcmb" format="1">
  <advance width="0"/>
  <unicode hex="032E"/>
  <outline>
    <contour>
      <point x="0" y="-22" type="move" name="_belowLC"/>
    </contour>
    <component base="brevecmb" yOffset="-800"/>
  </outline>
</glyph>
<glyph name="breveinvertedbelowcmb" format="1">
  <advance width="0"/>
  <unicode hex="032F"/>
  <outline>
    <contour>
      <point x="0" y="-22" type="move" name="_belowLC"/>
    </contour>
    <component base="breveinvertedcmb" yOffset="-800"/>
  </outline>
</glyph>
<glyph name="tildebelowcmb" format="1">
  <advance width="0"/>
  <unicode hex="0330"/>
  <outline>
    <contour>
      <point x="0" y="-22" type="move" name="_belowLC"/>
    </contour>
    <component base="tildecmb" yOffset="-800"/>
  </outline>
</glyph>
<glyph name="macronbelowcmb" format="1">
  <advance width="0"/>
  <unicode hex="0331"/>
  <outline>
    <contour>
      <point x="0" y="-22" type="move" name="_belowLC"/>
    </contour>
    <component base="macroncmb" yOffset="-764"/>
  </outline>
</glyph>
<glyph name="lowlinecmb" format="2">
	<unicode hex="0332"/>
	<outline>
		<contour>
			<point x="-280" y="-162" type="line"/>
			<point x="280" y="-162" type="line"/>
			<point x="280" y="-134" type="line"/>
			<point x="-280" y="-134" type="line"/>
		</contour>
	</outline>
	<anchor name="_belowLC" x="0" y="-22"/>
</glyph>
<glyph name="tildeoverlaycmb" format="1">
	<unicode hex="0334"/>
	<outline>
		<component base="tildecmb" yOffset="-384"/>
		<contour>
			<point name="_center" x="0" y="240" type="move"/>
		</contour>
	</outline>
</glyph>
<glyph name="slashshortcmb" format="2">
	<unicode hex="0337"/>
	<outline>
		<contour>
			<point x="-464" y="-22" type="line"/>
			<point x="-46" y="480" type="line"/>
			<point x="-68" y="498" type="line"/>
			<point x="-486" y="-4" type="line"/>
		</contour>
	</outline>
</glyph>
<glyph name="ringhalfrightbelowcmb" format="1">
  <advance width="0"/>
  <unicode hex="0339"/>
  <outline>
    <contour>
      <point x="0" y="-22" type="move" name="_belowLC"/>
    </contour>
    <contour>
      <point x="-48" y="-256" type="line"/>
      <point x="16" y="-258"/>
      <point x="58" y="-223"/>
      <point x="58" y="-164" type="curve" smooth="yes"/>
      <point x="58" y="-105"/>
      <point x="16" y="-70"/>
      <point x="-48" y="-72" type="curve"/>
      <point x="-48" y="-92" type="line"/>
      <point x="7" y="-92"/>
      <point x="30" y="-121"/>
      <point x="30" y="-164" type="curve" smooth="yes"/>
      <point x="30" y="-207"/>
      <point x="7" y="-236"/>
      <point x="-48" y="-236" type="curve"/>
    </contour>
  </outline>
</glyph>
<glyph name="seagullbelowcmb" format="1">
  <advance width="0"/>
  <unicode hex="033C"/>
  <outline>
    <contour>
      <point x="0" y="-22" type="move" name="_belowLC"/>
    </contour>
    <contour>
      <point x="-152" y="-222" type="curve"/>
      <point x="-126" y="-224" type="line"/>
      <point x="-126" y="-131"/>
      <point x="-103" y="-108"/>
      <point x="-68" y="-108" type="curve" smooth="yes"/>
      <point x="-34" y="-108"/>
      <point x="-14" y="-141"/>
      <point x="-14" y="-208" type="curve" smooth="yes"/>
      <point x="-14" y="-224" type="line"/>
      <point x="14" y="-224" type="line"/>
      <point x="14" y="-208" type="line" smooth="yes"/>
      <point x="14" y="-141"/>
      <point x="34" y="-108"/>
      <point x="68" y="-108" type="curve" smooth="yes"/>
      <point x="103" y="-108"/>
      <point x="126" y="-131"/>
      <point x="126" y="-224" type="curve"/>
      <point x="152" y="-222" type="line"/>
      <point x="153" y="-121"/>
      <point x="120" y="-84"/>
      <point x="70" y="-84" type="curve" smooth="yes"/>
      <point x="38" y="-84"/>
      <point x="9" y="-99"/>
      <point x="1" y="-145" type="curve"/>
      <point x="-1" y="-145" type="line"/>
      <point x="-9" y="-99"/>
      <point x="-38" y="-84"/>
      <point x="-70" y="-84" type="curve" smooth="yes"/>
      <point x="-120" y="-84"/>
      <point x="-153" y="-121"/>
    </contour>
  </outline>
</glyph>
<glyph name="dialytikatonoscmb" format="2">
	<unicode hex="0344"/>
	<outline>
		<contour>
			<point x="-98" y="604" type="curve" smooth="yes"/>
			<point x="-80" y="604"/>
			<point x="-68" y="616"/>
			<point x="-68" y="634" type="curve" smooth="yes"/>
			<point x="-68" y="652"/>
			<point x="-80" y="664"/>
			<point x="-98" y="664" type="curve" smooth="yes"/>
			<point x="-116" y="664"/>
			<point x="-128" y="652"/>
			<point x="-128" y="634" type="curve" smooth="yes"/>
			<point x="-128" y="616"/>
			<point x="-116" y="604"/>
		</contour>
		<contour>
			<point x="-6" y="560" type="line"/>
			<point x="58" y="744" type="line"/>
			<point x="20" y="752" type="line"/>
			<point x="-30" y="566" type="line"/>
		</contour>
		<contour>
			<point x="98" y="604" type="curve" smooth="yes"/>
			<point x="116" y="604"/>
			<point x="128" y="616"/>
			<point x="128" y="634" type="curve" smooth="yes"/>
			<point x="128" y="652"/>
			<point x="116" y="664"/>
			<point x="98" y="664" type="curve" smooth="yes"/>
			<point x="80" y="664"/>
			<point x="68" y="652"/>
			<point x="68" y="634" type="curve" smooth="yes"/>
			<point x="68" y="616"/>
			<point x="80" y="604"/>
		</contour>
	</outline>
	<anchor name="_aboveLC" x="0" y="502"/>
</glyph>
<glyph name="numeralsign" format="2">
	<unicode hex="0374"/>
	<advance width="208"/>
	<outline>
		<contour>
			<point x="82" y="498" type="line"/>
			<point x="102" y="498" type="line"/>
			<point x="126" y="630" type="line"/>
			<point x="134" y="694" type="line"/>
			<point x="106" y="694" type="line"/>
		</contour>
	</outline>
</glyph>
<glyph name="dieresistonos" format="1">
	<unicode hex="0385"/>
	<advance width="532"/>
	<outline>
		<component base="dieresistonoscmb" xOffset="276"/>
		<contour>
			<point name="_aboveLC" x="276" y="502" type="move"/>
		</contour>
	</outline>
</glyph>
<glyph name="Theta" format="2">
	<unicode hex="0398"/>
	<advance width="648"/>
	<outline>
		<contour>
			<point x="200" y="338" type="line"/>
			<point x="448" y="338" type="line"/>
			<point x="448" y="366" type="line"/>
			<point x="200" y="366" type="line"/>
		</contour>
		<component base="O"/>
	</outline>
	<anchor name="aboveUC" x="324" y="682"/>
</glyph>
<glyph name="Xi" format="2">
	<unicode hex="039E"/>
	<advance width="502"/>
	<outline>
		<contour>
			<point x="46" y="0" type="line"/>
			<point x="456" y="0" type="line"/>
			<point x="456" y="28" type="line"/>
			<point x="46" y="28" type="line"/>
		</contour>
		<contour>
			<point x="126" y="338" type="line"/>
			<point x="376" y="338" type="line"/>
			<point x="376" y="366" type="line"/>
			<point x="126" y="366" type="line"/>
		</contour>
		<contour>
			<point x="56" y="632" type="line"/>
			<point x="446" y="632" type="line"/>
			<point x="446" y="660" type="line"/>
			<point x="56" y="660" type="line"/>
		</contour>
	</outline>
</glyph>
<glyph name="delta" format="1">
	<unicode hex="03B4"/>
	<advance width="518"/>
	<outline>
		<contour>
			<point x="264" y="-12" type="curve" smooth="yes"/>
			<point x="388" y="-12"/>
			<point x="464" y="84"/>
			<point x="464" y="226" type="curve" smooth="yes"/>
			<point x="464" y="388"/>
			<point x="380" y="444"/>
			<point x="296" y="486" type="curve" smooth="yes"/>
			<point x="208" y="530"/>
			<point x="150" y="578"/>
			<point x="150" y="636" type="curve" smooth="yes"/>
			<point x="150" y="672"/>
			<point x="182" y="706"/>
			<point x="258" y="706" type="curve" smooth="yes"/>
			<point x="302" y="706"/>
			<point x="356" y="698"/>
			<point x="450" y="664" type="curve"/>
			<point x="460" y="694" type="line"/>
			<point x="370" y="724"/>
			<point x="312" y="734"/>
			<point x="260" y="734" type="curve" smooth="yes"/>
			<point x="160" y="734"/>
			<point x="118" y="686"/>
			<point x="118" y="634" type="curve" smooth="yes"/>
			<point x="118" y="564"/>
			<point x="190" y="506"/>
			<point x="282" y="460" type="curve" smooth="yes"/>
			<point x="362" y="420"/>
			<point x="432" y="370"/>
			<point x="432" y="224" type="curve" smooth="yes"/>
			<point x="432" y="108"/>
			<point x="378" y="16"/>
			<point x="264" y="16" type="curve" smooth="yes"/>
			<point x="166" y="16"/>
			<point x="94" y="98"/>
			<point x="94" y="226" type="curve" smooth="yes"/>
			<point x="94" y="334"/>
			<point x="168" y="452"/>
			<point x="298" y="452" type="curve"/>
			<point x="280" y="474" type="line"/>
			<point x="154" y="474"/>
			<point x="62" y="356"/>
			<point x="62" y="224" type="curve" smooth="yes"/>
			<point x="62" y="73"/>
			<point x="156" y="-12"/>
		</contour>
	</outline>
</glyph>
<glyph name="mu" format="1">
  <advance width="536"/>
  <unicode hex="03BC"/>
  <outline>
    <contour>
      <point x="96" y="-180" type="line"/>
      <point x="126" y="-180" type="line"/>
      <point x="122" y="-98"/>
      <point x="122" y="-60"/>
      <point x="122" y="54" type="curve"/>
      <point x="150" y="0"/>
      <point x="190" y="-12"/>
      <point x="242" y="-12" type="curve" smooth="yes"/>
      <point x="302" y="-12"/>
      <point x="356" y="20"/>
      <point x="400" y="92" type="curve"/>
      <point x="402" y="92" type="line"/>
      <point x="400" y="18"/>
      <point x="412" y="-12"/>
      <point x="456" y="-12" type="curve"/>
      <point x="471" y="-12"/>
      <point x="483" y="-8"/>
      <point x="492" y="-4" type="curve"/>
      <point x="486" y="22" type="line"/>
      <point x="474" y="18"/>
      <point x="467" y="16"/>
      <point x="458" y="16" type="curve" smooth="yes"/>
      <point x="442" y="16"/>
      <point x="430" y="28"/>
      <point x="430" y="52" type="curve" smooth="yes"/>
      <point x="430" y="196"/>
      <point x="431" y="334"/>
      <point x="432" y="478" type="curve"/>
      <point x="402" y="478" type="line"/>
      <point x="402" y="134" type="line"/>
      <point x="341" y="29"/>
      <point x="290" y="16"/>
      <point x="238" y="16" type="curve" smooth="yes"/>
      <point x="158" y="16"/>
      <point x="126" y="76"/>
      <point x="126" y="174" type="curve" smooth="yes"/>
      <point x="126" y="478" type="line"/>
      <point x="96" y="478" type="line"/>
    </contour>
  </outline>
</glyph>
<glyph name="xi" format="2">
	<unicode hex="03BE"/>
	<advance width="400"/>
	<outline>
		<contour>
			<point x="346" y="-182" type="line"/>
			<point x="384" y="-134"/>
			<point x="400" y="-98"/>
			<point x="400" y="-72" type="curve" smooth="yes"/>
			<point x="400" y="-14"/>
			<point x="352" y="2"/>
			<point x="264" y="18" type="curve" smooth="yes"/>
			<point x="174" y="34"/>
			<point x="86" y="68"/>
			<point x="86" y="186" type="curve" smooth="yes"/>
			<point x="86" y="308"/>
			<point x="192" y="374"/>
			<point x="288" y="374" type="curve" smooth="yes"/>
			<point x="312" y="374"/>
			<point x="326" y="374"/>
			<point x="348" y="370" type="curve"/>
			<point x="348" y="404" type="line"/>
			<point x="324" y="400"/>
			<point x="314" y="400"/>
			<point x="290" y="400" type="curve" smooth="yes"/>
			<point x="226" y="400"/>
			<point x="136" y="458"/>
			<point x="136" y="548" type="curve" smooth="yes"/>
			<point x="136" y="642"/>
			<point x="210" y="694"/>
			<point x="283" y="694" type="curve" smooth="yes"/>
			<point x="390" y="694" type="line"/>
			<point x="390" y="722" type="line"/>
			<point x="38" y="722" type="line"/>
			<point x="38" y="694" type="line"/>
			<point x="103" y="696"/>
			<point x="132" y="696"/>
			<point x="197" y="696" type="curve"/>
			<point x="140" y="670"/>
			<point x="104" y="620"/>
			<point x="104" y="548" type="curve" smooth="yes"/>
			<point x="104" y="470"/>
			<point x="154" y="420"/>
			<point x="214" y="394" type="curve"/>
			<point x="214" y="390" type="line"/>
			<point x="128" y="368"/>
			<point x="54" y="290"/>
			<point x="54" y="186" type="curve" smooth="yes"/>
			<point x="54" y="56"/>
			<point x="143" y="11"/>
			<point x="246" y="-8" type="curve" smooth="yes"/>
			<point x="346" y="-26"/>
			<point x="370" y="-42"/>
			<point x="370" y="-74" type="curve" smooth="yes"/>
			<point x="370" y="-102"/>
			<point x="360" y="-116"/>
			<point x="320" y="-164" type="curve"/>
		</contour>
	</outline>
	<anchor name="aboveUC" x="240" y="732"/>
	<anchor name="belowLC" x="220" y="-182"/>
</glyph>
<glyph name="sigma.end" format="1">
	<unicode hex="03C2"/>
	<advance width="420"/>
	<outline>
		<contour>
			<point x="290" y="-176" type="line"/>
			<point x="328" y="-128"/>
			<point x="350" y="-84"/>
			<point x="350" y="-52" type="curve" smooth="yes"/>
			<point x="350" y="6"/>
			<point x="324" y="30"/>
			<point x="254" y="50" type="curve" smooth="yes"/>
			<point x="172" y="76"/>
			<point x="86" y="118"/>
			<point x="86" y="252" type="curve" smooth="yes"/>
			<point x="86" y="378"/>
			<point x="156" y="462"/>
			<point x="248" y="462" type="curve" smooth="yes"/>
			<point x="298" y="462"/>
			<point x="330" y="438"/>
			<point x="362" y="408" type="curve"/>
			<point x="382" y="430" type="line"/>
			<point x="350" y="460"/>
			<point x="314" y="490"/>
			<point x="248" y="490" type="curve" smooth="yes"/>
			<point x="144" y="490"/>
			<point x="54" y="406"/>
			<point x="54" y="252" type="curve" smooth="yes"/>
			<point x="54" y="104"/>
			<point x="146" y="54"/>
			<point x="236" y="24" type="curve" smooth="yes"/>
			<point x="306" y="4"/>
			<point x="320" y="-20"/>
			<point x="320" y="-54" type="curve" smooth="yes"/>
			<point x="320" y="-85"/>
			<point x="304" y="-110"/>
			<point x="264" y="-158" type="curve"/>
		</contour>
	</outline>
</glyph>
<glyph name="tau" format="2">
	<unicode hex="03C4"/>
	<advance width="434"/>
	<outline>
		<contour>
			<point x="270" y="-8" type="curve" smooth="yes"/>
			<point x="290" y="-8"/>
			<point x="310" y="-2"/>
			<point x="320" y="2" type="curve"/>
			<point x="314" y="28" type="line"/>
			<point x="302" y="24"/>
			<point x="286" y="20"/>
			<point x="272" y="20" type="curve" smooth="yes"/>
			<point x="242" y="20"/>
			<point x="230" y="36"/>
			<point x="230" y="70" type="curve" smooth="yes"/>
			<point x="230" y="198"/>
			<point x="230" y="322"/>
			<point x="232" y="450" type="curve"/>
			<point x="410" y="450" type="line"/>
			<point x="410" y="478" type="line"/>
			<point x="90" y="478" type="line"/>
			<point x="24" y="474" type="line"/>
			<point x="24" y="450" type="line"/>
			<point x="202" y="450" type="line"/>
			<point x="202" y="76" type="line" smooth="yes"/>
			<point x="202" y="16"/>
			<point x="220" y="-8"/>
		</contour>
	</outline>
	<anchor name="aboveLC" x="220" y="502"/>
	<anchor name="belowLC" x="260" y="-22"/>
</glyph>
<glyph name="chi" format="2">
	<unicode hex="03C7"/>
	<advance width="444"/>
	<outline>
		<contour>
			<point x="38" y="-192" type="line"/>
			<point x="220" y="134" type="line"/>
			<point x="224" y="134" type="line"/>
			<point x="418" y="-192" type="line"/>
			<point x="446" y="-180" type="line"/>
			<point x="238" y="162" type="line"/>
			<point x="412" y="478" type="line"/>
			<point x="378" y="478" type="line"/>
			<point x="224" y="192" type="line"/>
			<point x="220" y="192" type="line"/>
			<point x="46" y="490" type="line"/>
			<point x="16" y="478" type="line"/>
			<point x="206" y="162" type="line"/>
			<point x="10" y="-180" type="line"/>
		</contour>
	</outline>
	<anchor name="aboveLC" x="220" y="502"/>
	<anchor name="belowLC" x="230" y="-182"/>
</glyph>
<glyph name="psi" format="2">
	<unicode hex="03C8"/>
	<advance width="638"/>
	<outline>
		<contour>
			<point x="304" y="-12" type="curve"/>
			<point x="306" y="16" type="line"/>
			<point x="178" y="16"/>
			<point x="106" y="86"/>
			<point x="106" y="212" type="curve" smooth="yes"/>
			<point x="106" y="238"/>
			<point x="108" y="308"/>
			<point x="108" y="372" type="curve" smooth="yes"/>
			<point x="108" y="412"/>
			<point x="108" y="444"/>
			<point x="104" y="478" type="curve"/>
			<point x="74" y="478" type="line"/>
			<point x="78" y="430"/>
			<point x="78" y="398"/>
			<point x="78" y="360" type="curve" smooth="yes"/>
			<point x="78" y="211" type="line" smooth="yes"/>
			<point x="78" y="68"/>
			<point x="160" y="-12"/>
		</contour>
		<contour>
			<point x="320" y="-12" type="line"/>
			<point x="474" y="-12"/>
			<point x="574" y="84"/>
			<point x="574" y="254" type="curve" smooth="yes"/>
			<point x="574" y="343"/>
			<point x="560" y="402"/>
			<point x="526" y="490" type="curve"/>
			<point x="496" y="480" type="line"/>
			<point x="532" y="392"/>
			<point x="542" y="337"/>
			<point x="542" y="255" type="curve" smooth="yes"/>
			<point x="542" y="100"/>
			<point x="460" y="16"/>
			<point x="322" y="16" type="curve"/>
		</contour>
		<contour>
			<point x="302" y="-180" type="line"/>
			<point x="332" y="-180" type="line"/>
			<point x="332" y="638" type="line"/>
			<point x="302" y="638" type="line"/>
		</contour>
	</outline>
	<anchor name="aboveLC" x="320" y="632"/>
	<anchor name="belowLC" x="320" y="-182"/>
</glyph>
<glyph name="omega" format="1">
	<unicode hex="03C9"/>
	<advance width="664"/>
	<outline>
		<contour>
			<point x="208" y="-12" type="curve" smooth="yes"/>
			<point x="274" y="-12"/>
			<point x="316" y="24"/>
			<point x="330" y="102" type="curve"/>
			<point x="334" y="102" type="line"/>
			<point x="346" y="24"/>
			<point x="390" y="-12"/>
			<point x="456" y="-12" type="curve" smooth="yes"/>
			<point x="540" y="-12"/>
			<point x="604" y="52"/>
			<point x="604" y="202" type="curve" smooth="yes"/>
			<point x="604" y="328"/>
			<point x="568" y="406"/>
			<point x="508" y="490" type="curve"/>
			<point x="482" y="474" type="line"/>
			<point x="544" y="388"/>
			<point x="572" y="320"/>
			<point x="572" y="202" type="curve" smooth="yes"/>
			<point x="572" y="72"/>
			<point x="522" y="16"/>
			<point x="454" y="16" type="curve" smooth="yes"/>
			<point x="398" y="16"/>
			<point x="346" y="55"/>
			<point x="346" y="190" type="curve" smooth="yes"/>
			<point x="346" y="226"/>
			<point x="346" y="272"/>
			<point x="350" y="320" type="curve"/>
			<point x="312" y="320" type="line"/>
			<point x="316" y="272"/>
			<point x="316" y="226"/>
			<point x="316" y="190" type="curve" smooth="yes"/>
			<point x="316" y="55"/>
			<point x="266" y="16"/>
			<point x="210" y="16" type="curve" smooth="yes"/>
			<point x="146" y="16"/>
			<point x="90" y="76"/>
			<point x="90" y="196" type="curve" smooth="yes"/>
			<point x="90" y="318"/>
			<point x="122" y="392"/>
			<point x="184" y="472" type="curve"/>
			<point x="160" y="490" type="line"/>
			<point x="102" y="410"/>
			<point x="60" y="324"/>
			<point x="60" y="200" type="curve" smooth="yes"/>
			<point x="60" y="54"/>
			<point x="130" y="-12"/>
		</contour>
		<contour>
			<point name="aboveLC" x="326" y="502" type="move"/>
		</contour>
		<contour>
			<point name="belowLC" x="326" y="-22" type="move"/>
		</contour>
	</outline>
</glyph>
<glyph name="Kai" format="2">
	<unicode hex="03CF"/>
	<advance width="560"/>
	<outline>
		<contour>
			<point x="100" y="0" type="line"/>
			<point x="132" y="0" type="line"/>
			<point x="132" y="234" type="line"/>
			<point x="260" y="374" type="line"/>
			<point x="510" y="660" type="line"/>
			<point x="470" y="660" type="line"/>
			<point x="134" y="280" type="line"/>
			<point x="132" y="280" type="line"/>
			<point x="132" y="660" type="line"/>
			<point x="100" y="660" type="line"/>
		</contour>
		<contour>
			<point x="254" y="-152" type="curve" smooth="yes"/>
			<point x="414" y="-152"/>
			<point x="528" y="-46"/>
			<point x="528" y="110" type="curve" smooth="yes"/>
			<point x="528" y="301"/>
			<point x="412" y="384"/>
			<point x="232" y="384" type="curve"/>
			<point x="214" y="358" type="line"/>
			<point x="392" y="358"/>
			<point x="494" y="285"/>
			<point x="494" y="110" type="curve" smooth="yes"/>
			<point x="494" y="-23"/>
			<point x="398" y="-120"/>
			<point x="252" y="-120" type="curve" smooth="yes"/>
			<point x="187" y="-120"/>
			<point x="130" y="-106"/>
			<point x="92" y="-80" type="curve"/>
			<point x="76" y="-106" type="line"/>
			<point x="116" y="-134"/>
			<point x="170" y="-152"/>
		</contour>
	</outline>
</glyph>
<glyph name="theta.a" format="1">
	<unicode hex="03D1"/>
	<advance width="500"/>
	<outline>
		<contour>
			<point x="250" y="-12" type="curve" smooth="yes"/>
			<point x="346" y="-12"/>
			<point x="432" y="64"/>
			<point x="432" y="368" type="curve" smooth="yes"/>
			<point x="432" y="614"/>
			<point x="374" y="734"/>
			<point x="258" y="734" type="curve" smooth="yes"/>
			<point x="162" y="734"/>
			<point x="82" y="628"/>
			<point x="82" y="512" type="curve" smooth="yes"/>
			<point x="82" y="375"/>
			<point x="150" y="334"/>
			<point x="408" y="334" type="curve"/>
			<point x="410" y="362" type="line"/>
			<point x="168" y="362"/>
			<point x="114" y="390"/>
			<point x="114" y="514" type="curve" smooth="yes"/>
			<point x="114" y="616"/>
			<point x="178" y="706"/>
			<point x="258" y="706" type="curve" smooth="yes"/>
			<point x="348" y="706"/>
			<point x="400" y="608"/>
			<point x="400" y="368" type="curve" smooth="yes"/>
			<point x="400" y="90"/>
			<point x="332" y="16"/>
			<point x="252" y="16" type="curve" smooth="yes"/>
			<point x="188" y="16"/>
			<point x="138" y="58"/>
			<point x="114" y="170" type="curve" smooth="yes"/>
			<point x="102" y="228"/>
			<point x="96" y="256"/>
			<point x="84" y="278" type="curve"/>
			<point x="56" y="270" type="line"/>
			<point x="70" y="244"/>
			<point x="74" y="218"/>
			<point x="86" y="163" type="curve" smooth="yes"/>
			<point x="114" y="34"/>
			<point x="168" y="-12"/>
		</contour>
	</outline>
</glyph>
<glyph name="phi.alt" format="1">
	<unicode hex="03D5"/>
	<advance width="634"/>
	<outline>
		<contour>
			<point x="302" y="-180" type="line"/>
			<point x="332" y="-180" type="line"/>
			<point x="330" y="-15"/>
			<point x="330" y="149"/>
			<point x="330" y="314" type="curve" smooth="yes"/>
			<point x="330" y="414"/>
			<point x="368" y="462"/>
			<point x="414" y="462" type="curve" smooth="yes"/>
			<point x="488" y="462"/>
			<point x="548" y="368"/>
			<point x="548" y="246" type="curve" smooth="yes"/>
			<point x="548" y="112"/>
			<point x="450" y="16"/>
			<point x="328" y="16" type="curve"/>
			<point x="326" y="-10" type="line"/>
			<point x="460" y="-10"/>
			<point x="580" y="84"/>
			<point x="580" y="246" type="curve" smooth="yes"/>
			<point x="580" y="394"/>
			<point x="512" y="490"/>
			<point x="416" y="490" type="curve" smooth="yes"/>
			<point x="350" y="490"/>
			<point x="302" y="432"/>
			<point x="302" y="327" type="curve" smooth="yes"/>
		</contour>
		<contour>
			<point x="308" y="-10" type="curve"/>
			<point x="308" y="16" type="line"/>
			<point x="194" y="16"/>
			<point x="84" y="86"/>
			<point x="84" y="226" type="curve" smooth="yes"/>
			<point x="84" y="336"/>
			<point x="122" y="399"/>
			<point x="188" y="472" type="curve"/>
			<point x="164" y="490" type="line"/>
			<point x="102" y="417"/>
			<point x="54" y="342"/>
			<point x="54" y="230" type="curve" smooth="yes"/>
			<point x="54" y="64"/>
			<point x="180" y="-10"/>
		</contour>
	</outline>
</glyph>
<glyph name="kai" format="1">
	<unicode hex="03D7"/>
	<advance width="452"/>
	<outline>
		<contour>
			<point x="96" y="0" type="line"/>
			<point x="124" y="0" type="line"/>
			<point x="124" y="22" type="line" smooth="yes"/>
			<point x="125" y="76"/>
			<point x="132" y="130"/>
			<point x="156" y="170" type="curve" smooth="yes"/>
			<point x="244" y="320"/>
			<point x="350" y="426"/>
			<point x="432" y="460" type="curve"/>
			<point x="428" y="490" type="line"/>
			<point x="334" y="456"/>
			<point x="210" y="320"/>
			<point x="130" y="172" type="curve"/>
			<point x="126" y="172" type="line"/>
			<point x="126" y="372" type="line" smooth="yes"/>
			<point x="126" y="412"/>
			<point x="124" y="456"/>
			<point x="118" y="478" type="curve"/>
			<point x="88" y="478" type="line"/>
			<point x="96" y="442"/>
			<point x="96" y="398"/>
			<point x="96" y="360" type="curve" smooth="yes"/>
		</contour>
		<contour>
			<point x="220" y="-192" type="curve" smooth="yes"/>
			<point x="340" y="-192"/>
			<point x="438" y="-98"/>
			<point x="438" y="54" type="curve" smooth="yes"/>
			<point x="438" y="200"/>
			<point x="342" y="280"/>
			<point x="206" y="280" type="curve"/>
			<point x="204" y="254" type="line"/>
			<point x="324" y="254"/>
			<point x="406" y="182"/>
			<point x="406" y="54" type="curve" smooth="yes"/>
			<point x="406" y="-72"/>
			<point x="332" y="-164"/>
			<point x="218" y="-164" type="curve" smooth="yes"/>
			<point x="164" y="-164"/>
			<point x="121" y="-148"/>
			<point x="86" y="-122" type="curve"/>
			<point x="72" y="-146" type="line"/>
			<point x="106" y="-170"/>
			<point x="148" y="-192"/>
		</contour>
	</outline>
</glyph>
<glyph name="Sho" format="2">
	<unicode hex="03F7"/>
	<advance width="500"/>
	<outline>
		<contour>
			<point x="100" y="-22" type="line"/>
			<point x="132" y="-22" type="line"/>
			<point x="132" y="98" type="line"/>
			<point x="168" y="98" type="line" smooth="yes"/>
			<point x="340" y="98"/>
			<point x="452" y="190"/>
			<point x="452" y="332" type="curve" smooth="yes"/>
			<point x="452" y="474"/>
			<point x="340" y="562"/>
			<point x="168" y="562" type="curve" smooth="yes"/>
			<point x="132" y="562" type="line"/>
			<point x="132" y="682" type="line"/>
			<point x="100" y="682" type="line"/>
		</contour>
		<contour>
			<point x="132" y="126" type="line"/>
			<point x="132" y="534" type="line"/>
			<point x="168" y="534" type="line" smooth="yes"/>
			<point x="322" y="534"/>
			<point x="418" y="454"/>
			<point x="418" y="332" type="curve" smooth="yes"/>
			<point x="418" y="210"/>
			<point x="322" y="126"/>
			<point x="168" y="126" type="curve" smooth="yes"/>
		</contour>
	</outline>
</glyph>
<glyph name="Lje" format="1">
	<unicode hex="0409"/>
	<advance width="890"/>
	<outline>
		<contour>
			<point x="48" y="-8" type="curve" smooth="yes"/>
			<point x="108" y="-8"/>
			<point x="134" y="27"/>
			<point x="178" y="210" type="curve" smooth="yes"/>
			<point x="212" y="352"/>
			<point x="238" y="490"/>
			<point x="256" y="632" type="curve"/>
			<point x="456" y="632" type="line"/>
			<point x="456" y="0" type="line"/>
			<point x="612" y="0" type="line" smooth="yes"/>
			<point x="760" y="0"/>
			<point x="840" y="66"/>
			<point x="840" y="192" type="curve" smooth="yes"/>
			<point x="840" y="314"/>
			<point x="750" y="366"/>
			<point x="608" y="366" type="curve" smooth="yes"/>
			<point x="488" y="366" type="line"/>
			<point x="488" y="660" type="line"/>
			<point x="230" y="660" type="line"/>
			<point x="210" y="500"/>
			<point x="184" y="364"/>
			<point x="148" y="214" type="curve" smooth="yes"/>
			<point x="108" y="49"/>
			<point x="84" y="26"/>
			<point x="46" y="26" type="curve" smooth="yes"/>
			<point x="36" y="26"/>
			<point x="28" y="28"/>
			<point x="18" y="32" type="curve"/>
			<point x="8" y="0" type="line"/>
			<point x="24" y="-6"/>
			<point x="38" y="-8"/>
		</contour>
		<contour>
			<point x="488" y="28" type="line"/>
			<point x="488" y="338" type="line"/>
			<point x="596" y="338" type="line" smooth="yes"/>
			<point x="736" y="338"/>
			<point x="808" y="294"/>
			<point x="808" y="190" type="curve" smooth="yes"/>
			<point x="808" y="78"/>
			<point x="738" y="28"/>
			<point x="600" y="28" type="curve" smooth="yes"/>
		</contour>
	</outline>
</glyph>
<glyph name="Ghe" format="1">
	<unicode hex="0413"/>
	<advance width="480"/>
	<outline>
		<component base="Gamma"/>
		<contour>
			<point name="aboveUC" x="286" y="682" type="move"/>
		</contour>
	</outline>
</glyph>
<glyph name="De" format="1">
	<unicode hex="0414"/>
	<advance width="612"/>
	<outline>
		<contour>
			<point x="68" y="0" type="line"/>
			<point x="544" y="0" type="line"/>
			<point x="544" y="-188" type="line"/>
			<point x="570" y="-188" type="line"/>
			<point x="576" y="12" type="line"/>
			<point x="576" y="28" type="line"/>
			<point x="36" y="28" type="line"/>
			<point x="36" y="12" type="line"/>
			<point x="42" y="-188" type="line"/>
			<point x="68" y="-188" type="line"/>
		</contour>
		<contour>
			<point x="476" y="20" type="line"/>
			<point x="508" y="20" type="line"/>
			<point x="508" y="660" type="line"/>
			<point x="220" y="660" type="line"/>
			<point x="196" y="506"/>
			<point x="182" y="415"/>
			<point x="156" y="272" type="curve" smooth="yes"/>
			<point x="122" y="86"/>
			<point x="92" y="40"/>
			<point x="66" y="28" type="curve"/>
			<point x="92" y="14" type="line"/>
			<point x="120" y="30"/>
			<point x="150" y="68"/>
			<point x="186" y="264" type="curve" smooth="yes"/>
			<point x="211" y="399"/>
			<point x="222" y="494"/>
			<point x="246" y="632" type="curve"/>
			<point x="476" y="632" type="line"/>
		</contour>
	</outline>
</glyph>
<glyph name="Ie" format="1">
  <advance width="510"/>
  <unicode hex="0415"/>
  <outline>
    <contour>
      <point x="282" y="682" type="move" name="aboveUC"/>
    </contour>
    <component base="E"/>
  </outline>
</glyph>
<glyph name="Zhe" format="1">
	<unicode hex="0416"/>
	<advance width="754"/>
	<outline>
		<contour>
			<point x="10" y="0" type="line"/>
			<point x="48" y="0" type="line"/>
			<point x="245" y="338" type="line"/>
			<point x="362" y="338" type="line"/>
			<point x="362" y="0" type="line"/>
			<point x="392" y="0" type="line"/>
			<point x="392" y="338" type="line"/>
			<point x="509" y="338" type="line"/>
			<point x="706" y="0" type="line"/>
			<point x="744" y="0" type="line"/>
			<point x="534" y="352" type="line"/>
			<point x="616" y="536" type="line" smooth="yes"/>
			<point x="657" y="628"/>
			<point x="684" y="638"/>
			<point x="712" y="638" type="curve" smooth="yes"/>
			<point x="718" y="638"/>
			<point x="726" y="636"/>
			<point x="732" y="634" type="curve"/>
			<point x="738" y="668" type="line"/>
			<point x="732" y="670"/>
			<point x="724" y="672"/>
			<point x="716" y="672" type="curve" smooth="yes"/>
			<point x="668" y="672"/>
			<point x="636" y="652"/>
			<point x="588" y="546" type="curve" smooth="yes"/>
			<point x="507" y="366" type="line"/>
			<point x="392" y="366" type="line"/>
			<point x="392" y="660" type="line"/>
			<point x="362" y="660" type="line"/>
			<point x="362" y="366" type="line"/>
			<point x="247" y="366" type="line"/>
			<point x="166" y="546" type="line" smooth="yes"/>
			<point x="118" y="652"/>
			<point x="86" y="672"/>
			<point x="38" y="672" type="curve" smooth="yes"/>
			<point x="30" y="672"/>
			<point x="22" y="670"/>
			<point x="16" y="668" type="curve"/>
			<point x="22" y="634" type="line"/>
			<point x="28" y="636"/>
			<point x="36" y="638"/>
			<point x="42" y="638" type="curve" smooth="yes"/>
			<point x="70" y="638"/>
			<point x="97" y="628"/>
			<point x="138" y="536" type="curve" smooth="yes"/>
			<point x="220" y="352" type="line"/>
		</contour>
		<contour>
			<point name="aboveUC" x="372" y="682" type="move"/>
		</contour>
	</outline>
</glyph>
<glyph name="El" format="1">
	<unicode hex="041B"/>
	<advance width="608"/>
	<outline>
		<contour>
			<point x="48" y="-8" type="curve" smooth="yes"/>
			<point x="108" y="-8"/>
			<point x="134" y="27"/>
			<point x="178" y="210" type="curve" smooth="yes"/>
			<point x="212" y="352"/>
			<point x="238" y="490"/>
			<point x="256" y="632" type="curve"/>
			<point x="476" y="632" type="line"/>
			<point x="476" y="0" type="line"/>
			<point x="508" y="0" type="line"/>
			<point x="508" y="660" type="line"/>
			<point x="230" y="660" type="line"/>
			<point x="210" y="500"/>
			<point x="184" y="364"/>
			<point x="148" y="214" type="curve" smooth="yes"/>
			<point x="108" y="49"/>
			<point x="84" y="26"/>
			<point x="46" y="26" type="curve" smooth="yes"/>
			<point x="36" y="26"/>
			<point x="28" y="28"/>
			<point x="18" y="32" type="curve"/>
			<point x="8" y="0" type="line"/>
			<point x="24" y="-6"/>
			<point x="38" y="-8"/>
		</contour>
	</outline>
</glyph>
<glyph name="Ocyr" format="1">
  <advance width="648"/>
  <unicode hex="041E"/>
  <outline>
    <contour>
      <point x="324" y="682" type="move" name="aboveUC"/>
    </contour>
    <component base="O"/>
  </outline>
</glyph>
<glyph name="Che" format="1">
	<unicode hex="0427"/>
	<advance width="572"/>
	<outline>
		<contour>
			<point x="440" y="0" type="line"/>
			<point x="472" y="0" type="line"/>
			<point x="472" y="660" type="line"/>
			<point x="440" y="660" type="line"/>
			<point x="440" y="328" type="line"/>
			<point x="408" y="322"/>
			<point x="363" y="316"/>
			<point x="306" y="316" type="curve" smooth="yes"/>
			<point x="180" y="316"/>
			<point x="104" y="354"/>
			<point x="104" y="480" type="curve" smooth="yes"/>
			<point x="104" y="660" type="line"/>
			<point x="72" y="660" type="line"/>
			<point x="72" y="480" type="line" smooth="yes"/>
			<point x="72" y="336"/>
			<point x="160" y="286"/>
			<point x="304" y="286" type="curve" smooth="yes"/>
			<point x="362" y="286"/>
			<point x="406" y="292"/>
			<point x="440" y="298" type="curve"/>
		</contour>
		<contour>
			<point name="aboveUC" x="280" y="682" type="move"/>
		</contour>
	</outline>
</glyph>
<glyph name="Shcha" format="1">
	<unicode hex="0429"/>
	<advance width="832"/>
	<outline>
		<contour>
			<point x="764" y="-188" type="line"/>
			<point x="790" y="-188" type="line"/>
			<point x="796" y="12" type="line"/>
			<point x="796" y="28" type="line"/>
			<point x="718" y="28" type="line"/>
			<point x="718" y="0" type="line"/>
			<point x="764" y="0" type="line"/>
		</contour>
		<component base="Sha"/>
	</outline>
</glyph>
<glyph name="Ecyr" format="2">
	<unicode hex="042D"/>
	<advance width="562"/>
	<outline>
		<contour>
			<point x="246" y="-12" type="curve" smooth="yes"/>
			<point x="404" y="-12"/>
			<point x="506" y="116"/>
			<point x="506" y="332" type="curve" smooth="yes"/>
			<point x="506" y="548"/>
			<point x="408" y="672"/>
			<point x="244" y="672" type="curve" smooth="yes"/>
			<point x="166" y="672"/>
			<point x="96" y="634"/>
			<point x="60" y="594" type="curve"/>
			<point x="80" y="572" type="line"/>
			<point x="118" y="614"/>
			<point x="180" y="642"/>
			<point x="244" y="642" type="curve" smooth="yes"/>
			<point x="392" y="642"/>
			<point x="474" y="526"/>
			<point x="474" y="338" type="curve" smooth="yes"/>
			<point x="474" y="134"/>
			<point x="386" y="18"/>
			<point x="244" y="18" type="curve" smooth="yes"/>
			<point x="168" y="18"/>
			<point x="112" y="46"/>
			<point x="60" y="102" type="curve"/>
			<point x="40" y="82" type="line"/>
			<point x="92" y="24"/>
			<point x="154" y="-12"/>
		</contour>
		<contour>
			<point x="160" y="338" type="line"/>
			<point x="500" y="338" type="line"/>
			<point x="500" y="366" type="line"/>
			<point x="160" y="366" type="line"/>
		</contour>
	</outline>
	<anchor name="aboveUC" x="260" y="682"/>
</glyph>
<glyph name="acyr" format="1">
	<unicode hex="0430"/>
	<advance width="486"/>
	<outline>
		<component base="a"/>
		<contour>
			<point name="aboveLC" x="260" y="502" type="move"/>
		</contour>
	</outline>
</glyph>
<glyph name="de" format="1">
  <advance width="490"/>
  <unicode hex="0434"/>
  <outline>
    <contour>
      <point x="56" y="0" type="line"/>
      <point x="430" y="0" type="line"/>
      <point x="430" y="-172" type="line"/>
      <point x="456" y="-172" type="line"/>
      <point x="460" y="12" type="line"/>
      <point x="460" y="28" type="line"/>
      <point x="26" y="28" type="line"/>
      <point x="26" y="12" type="line"/>
      <point x="30" y="-172" type="line"/>
      <point x="56" y="-172" type="line"/>
    </contour>
    <contour>
      <point x="366" y="10" type="line"/>
      <point x="396" y="10" type="line"/>
      <point x="396" y="478" type="line"/>
      <point x="148" y="478" type="line"/>
      <point x="120" y="248" type="line" smooth="yes"/>
      <point x="99" y="78"/>
      <point x="74" y="44"/>
      <point x="44" y="28" type="curve"/>
      <point x="68" y="10" type="line"/>
      <point x="90" y="26"/>
      <point x="126" y="56"/>
      <point x="148" y="246" type="curve" smooth="yes"/>
      <point x="172" y="450" type="line"/>
      <point x="366" y="450" type="line"/>
    </contour>
  </outline>
</glyph>
<glyph name="ie" format="1">
	<unicode hex="0435"/>
	<advance width="478"/>
	<outline>
		<component base="e"/>
		<contour>
			<point name="aboveLC" x="260" y="502" type="move"/>
		</contour>
	</outline>
</glyph>
<glyph name="zhe" format="1">
	<unicode hex="0436"/>
	<advance width="616"/>
	<outline>
		<contour>
			<point x="18" y="0" type="line"/>
			<point x="52" y="0" type="line"/>
			<point x="188" y="236" type="line"/>
			<point x="294" y="236" type="line"/>
			<point x="294" y="0" type="line"/>
			<point x="322" y="0" type="line"/>
			<point x="322" y="236" type="line"/>
			<point x="428" y="236" type="line"/>
			<point x="564" y="0" type="line"/>
			<point x="598" y="0" type="line"/>
			<point x="448" y="254" type="line"/>
			<point x="496" y="378" type="line" smooth="yes"/>
			<point x="522" y="446"/>
			<point x="546" y="458"/>
			<point x="572" y="458" type="curve" smooth="yes"/>
			<point x="579" y="458"/>
			<point x="580" y="458"/>
			<point x="586" y="456" type="curve"/>
			<point x="594" y="486" type="line"/>
			<point x="590" y="488"/>
			<point x="581" y="490"/>
			<point x="574" y="490" type="curve" smooth="yes"/>
			<point x="536" y="490"/>
			<point x="502" y="470"/>
			<point x="470" y="386" type="curve" smooth="yes"/>
			<point x="424" y="264" type="line"/>
			<point x="322" y="264" type="line"/>
			<point x="322" y="478" type="line"/>
			<point x="294" y="478" type="line"/>
			<point x="294" y="264" type="line"/>
			<point x="192" y="264" type="line"/>
			<point x="146" y="386" type="line" smooth="yes"/>
			<point x="114" y="470"/>
			<point x="80" y="490"/>
			<point x="42" y="490" type="curve" smooth="yes"/>
			<point x="35" y="490"/>
			<point x="26" y="488"/>
			<point x="22" y="486" type="curve"/>
			<point x="30" y="456" type="line"/>
			<point x="36" y="458"/>
			<point x="37" y="458"/>
			<point x="44" y="458" type="curve" smooth="yes"/>
			<point x="70" y="458"/>
			<point x="94" y="446"/>
			<point x="120" y="378" type="curve" smooth="yes"/>
			<point x="168" y="254" type="line"/>
		</contour>
		<contour>
			<point name="aboveLC" x="309" y="502" type="move"/>
		</contour>
	</outline>
</glyph>
<glyph name="ka" format="1">
	<unicode hex="043A"/>
	<advance width="460"/>
	<outline>
		<contour>
			<point x="96" y="0" type="line"/>
			<point x="126" y="0" type="line"/>
			<point x="126" y="236" type="line"/>
			<point x="256" y="236" type="line"/>
			<point x="408" y="0" type="line"/>
			<point x="442" y="0" type="line"/>
			<point x="278" y="252" type="line"/>
			<point x="332" y="378" type="line" smooth="yes"/>
			<point x="362" y="448"/>
			<point x="382" y="458"/>
			<point x="408" y="458" type="curve" smooth="yes"/>
			<point x="415" y="458"/>
			<point x="416" y="458"/>
			<point x="422" y="456" type="curve"/>
			<point x="430" y="486" type="line"/>
			<point x="426" y="488"/>
			<point x="417" y="490"/>
			<point x="410" y="490" type="curve" smooth="yes"/>
			<point x="372" y="490"/>
			<point x="344" y="476"/>
			<point x="306" y="386" type="curve" smooth="yes"/>
			<point x="254" y="264" type="line"/>
			<point x="126" y="264" type="line"/>
			<point x="126" y="478" type="line"/>
			<point x="96" y="478" type="line"/>
		</contour>
		<contour>
			<point name="aboveLC" x="260" y="502" type="move"/>
		</contour>
	</outline>
</glyph>
